<svg width="257" height="290" viewBox="0 0 257 290" fill="none" xmlns="http://www.w3.org/2000/svg">
<path d="M254.935 11.9619C257.668 9.22949 257.668 4.79692 254.935 2.00378C252.202 -0.78935 247.769 -0.72863 244.976 2.00378C242.425 4.55403 242.243 8.56157 244.429 11.294L212.851 42.8685C210.118 40.6826 206.11 40.8648 203.56 43.415C201.373 45.6009 200.948 48.8798 202.224 51.4908L172.345 70.8606C171.981 70.3748 171.556 69.889 171.131 69.4033C166.03 64.3028 157.771 64.3028 152.73 69.4033C149.087 73.0465 148.054 78.3899 149.694 82.9439L115.444 97.5775C114.836 96.3631 114.047 95.2701 113.014 94.2379C107.913 89.1374 99.715 89.1374 94.6139 94.2379C90.6059 98.2454 89.7557 104.196 92.0633 109.054L67.6508 122.716C67.4078 122.412 67.2257 122.108 66.922 121.866C64.1893 119.133 59.7561 119.133 56.9627 121.866C54.2299 124.598 54.2299 129.031 56.9627 131.824C57.5699 132.431 58.1772 132.856 58.906 133.16L50.7077 157.266C46.3353 156.112 41.5378 157.205 38.0763 160.605C32.9752 165.706 32.9752 173.964 38.0763 179.003C40.1411 181.068 42.8131 182.282 45.4851 182.707L43.7847 205.842C42.0844 205.902 40.4447 206.57 39.1087 207.906C36.3759 210.639 36.3759 215.071 39.1087 217.864C39.4123 218.168 39.7767 218.472 40.1411 218.714L31.6999 234.987C28.4813 233.712 24.7162 234.32 22.1049 236.931C18.6434 240.392 18.6434 245.978 22.1049 249.439C22.6515 249.985 23.3195 250.471 23.9875 250.835L17.6718 264.74C13.0565 262.979 7.59097 263.951 3.82585 267.716C-1.27528 272.816 -1.27528 281.074 3.82585 286.114C8.92698 291.214 17.186 291.214 22.2264 286.114C27.3275 281.013 27.3275 272.755 22.2264 267.716C21.3155 266.805 20.2831 266.016 19.1293 265.408L25.5057 251.564C28.6028 252.657 32.1857 251.928 34.6756 249.439C37.2261 246.889 37.8941 243.245 36.7403 240.088L70.505 223.693C70.8693 224.301 71.2944 224.847 71.7802 225.394C75.2417 228.855 80.8287 228.855 84.2902 225.394C85.8691 223.815 86.7193 221.872 86.8407 219.807L101.355 219.625C101.598 222.601 102.812 225.515 105.12 227.822C110.221 232.923 118.48 232.923 123.52 227.822C126.86 224.483 128.014 219.686 126.921 215.436L151.819 207.42C152.245 208.453 152.852 209.364 153.702 210.214C157.164 213.675 162.75 213.675 166.212 210.214C169.491 206.935 169.673 201.773 166.759 198.312L185.098 179.975C190.199 184.468 198.033 184.286 202.892 179.428C207.993 174.328 207.993 166.07 202.892 161.03C202.527 160.666 202.163 160.362 201.738 160.059L218.802 135.467C221.474 136.864 224.814 136.438 227.061 134.253C229.794 131.52 229.794 127.088 227.061 124.294C226.393 123.626 225.543 123.08 224.693 122.716L230.523 100.674C234.652 101.464 239.085 100.31 242.243 97.0917C247.344 91.9912 247.344 83.7333 242.243 78.6935C240.786 77.2362 239.025 76.204 237.142 75.536L242.668 54.5268C245.401 54.9519 248.255 54.1625 250.381 52.0373C253.842 48.5762 253.842 42.99 250.381 39.5289C249.166 38.3145 247.769 37.5859 246.19 37.2215L249.53 14.2086C251.656 14.0871 253.538 13.4192 254.935 11.9619ZM173.256 72.3179L203.134 52.9481C203.256 53.1302 203.438 53.2517 203.56 53.4339C204.41 54.2839 205.381 54.8304 206.414 55.134L201.13 82.8225L200.827 84.4619L198.337 97.6989C196.394 97.5775 194.39 98.2454 192.871 99.7027C190.442 102.132 190.139 105.896 192.021 108.629L167.184 130.124C167.184 130.063 167.123 130.063 167.123 130.063C164.997 127.938 162.386 126.723 159.593 126.359L161.9 91.7484C165.24 91.7484 168.58 90.4732 171.131 87.923C175.321 83.7333 176.05 77.2969 173.256 72.3179ZM216.495 124.537L216.737 124.78C215.705 126.116 215.159 127.755 215.219 129.395L214.065 129.577L212.061 129.881L170.584 136.438C170.159 134.617 169.431 132.917 168.216 131.399L193.114 109.904C195.665 112.211 199.491 112.333 202.163 110.207L215.28 123.323L216.495 124.537ZM105.12 209.424C102.751 211.792 101.476 214.889 101.355 217.986L86.8407 218.168C86.6586 216.225 85.8084 214.343 84.2902 212.825C83.6829 212.217 83.0149 211.732 82.3469 211.367L93.8244 185.5C98.4397 187.201 103.784 186.168 107.488 182.464C109.978 179.975 111.193 176.817 111.314 173.599L133.965 172.688C134.208 174.085 134.816 175.421 135.909 176.514C136.152 176.757 136.455 177 136.759 177.242L120.059 206.874C115.14 204.567 109.189 205.417 105.12 209.424ZM50.2219 209.424L88.2375 181.614C88.4804 181.918 88.784 182.222 89.0269 182.525C89.9986 183.497 91.0917 184.286 92.1848 184.893L80.768 210.76C77.6708 209.728 74.1486 210.456 71.7195 212.885C70.6264 213.978 69.837 215.314 69.4726 216.711L51.0721 213.31C51.1935 211.974 50.8899 210.639 50.2219 209.424ZM113.014 112.818C114.168 111.725 115.018 110.389 115.626 109.054L146.961 132.249C145.868 134.01 145.139 135.892 144.957 137.896C144.896 138.442 144.896 138.989 144.896 139.535C144.896 141.418 145.382 143.239 146.233 145L109.189 166.131C108.703 165.402 108.156 164.734 107.549 164.066C106.942 163.459 106.274 162.913 105.606 162.487C105.181 162.184 104.695 161.88 104.209 161.698C103.055 161.091 101.84 160.727 100.565 160.484L105.423 116.522C108.217 116.219 110.889 114.943 113.014 112.818ZM135.909 166.616C134.694 167.831 134.026 169.41 133.905 171.049L111.253 171.96C111.132 170.442 110.707 168.985 109.978 167.588L147.022 146.457C147.508 147.186 148.054 147.854 148.662 148.522C149.39 149.25 150.241 149.918 151.091 150.404L143.318 165.098C140.888 164.066 137.913 164.613 135.909 166.616ZM152.67 87.923C154.795 90.0482 157.467 91.2626 160.2 91.6269L157.892 126.237C154.552 126.237 151.212 127.513 148.662 130.063C148.419 130.306 148.115 130.609 147.933 130.852L116.233 107.414C117.022 104.742 116.962 101.889 116.051 99.2777L150.241 84.6441C150.909 85.7978 151.698 86.9514 152.67 87.923ZM60.4849 133.888C62.7318 134.374 65.1609 133.706 66.922 132.006C68.9868 129.941 69.4726 126.905 68.4402 124.355L92.8528 110.693C93.3386 111.422 93.9459 112.15 94.6139 112.818C97.1645 115.369 100.444 116.644 103.784 116.644L98.9256 160.302C95.4034 160.119 91.8204 161.395 89.0877 164.066C86.9622 166.191 85.7476 168.863 85.3833 171.596L60.3634 170.017C60.3634 166.677 59.0881 163.338 56.5376 160.787C55.2623 159.512 53.8655 158.601 52.2866 157.933L60.4849 133.888ZM56.5376 179.246C58.663 177.121 59.8776 174.449 60.242 171.717L85.2618 173.356C85.2618 175.785 85.9298 178.214 87.3266 180.339L49.2502 208.149C49.1895 208.088 49.1288 208.028 49.0681 207.967C48.0357 206.935 46.7604 206.327 45.4244 206.024L47.1248 183.072C50.5255 183.072 53.9263 181.797 56.5376 179.246ZM35.9509 238.57C35.5865 237.963 35.1614 237.416 34.6756 236.87C34.1897 236.384 33.7039 236.02 33.2181 235.655L41.72 219.382C44.2098 220.293 47.1248 219.807 49.1288 217.804C49.979 216.954 50.5255 215.982 50.8899 214.95L69.2297 218.35C69.1082 219.686 69.2904 220.961 69.7762 222.236L35.9509 238.57ZM126.435 213.857C125.828 212.217 124.856 210.699 123.52 209.424C122.852 208.756 122.184 208.21 121.395 207.724L138.095 178.093C140.646 179.125 143.682 178.639 145.747 176.575C146.961 175.36 147.629 173.842 147.751 172.263L180.726 171.353C180.969 174.024 182.062 176.635 183.944 178.76L165.605 197.098C162.143 194.183 156.921 194.366 153.702 197.645C151.455 199.891 150.666 202.988 151.334 205.842L126.435 213.857ZM200.523 159.026C195.543 155.99 188.924 156.658 184.612 160.969C182.183 163.398 180.908 166.556 180.847 169.713L147.872 170.624C147.69 169.167 147.022 167.77 145.868 166.677C145.565 166.374 145.2 166.131 144.896 165.888L152.609 151.193C157.406 153.319 163.176 152.469 167.123 148.522C169.977 145.668 171.252 141.843 170.888 138.139L211.272 131.763L213.276 131.459L215.523 131.095C215.827 132.188 216.434 133.281 217.284 134.131C217.405 134.253 217.466 134.313 217.588 134.435L200.523 159.026ZM223.235 122.169C221.414 121.926 219.47 122.412 217.891 123.626L217.223 122.959L215.948 121.683L203.256 108.993C204.774 107.111 205.138 104.621 204.41 102.374L221.778 94.0557C222.324 95.088 223.053 96.0595 223.903 96.9096C225.361 98.3669 227.122 99.3991 229.004 100.067L223.235 122.169ZM235.745 74.9895C231.616 74.2002 227.183 75.3539 224.025 78.572C220.199 82.3974 219.288 87.923 221.171 92.6592L203.802 100.978C203.56 100.553 203.195 100.128 202.831 99.7634C201.981 98.9133 201.009 98.3669 199.977 98.0633L202.527 84.7655L202.831 83.1261L208.114 55.5591C210.057 55.6805 212.061 55.0126 213.58 53.4946C214.855 52.2194 215.584 50.5193 215.644 48.8191L235.685 47.2404C235.988 49.0013 236.778 50.6407 238.174 51.9766C239.085 52.8874 240.239 53.616 241.393 54.0411L235.745 74.9895ZM248.134 13.7835L244.794 36.7965C242.365 36.6751 239.935 37.5251 238.053 39.3468C236.353 41.0469 235.502 43.2328 235.442 45.4795L215.401 47.0582C215.219 46.026 214.733 44.9937 214.005 44.0829L245.583 12.5084C246.373 13.1156 247.223 13.5406 248.134 13.7835Z" fill="#153343"/>
</svg>
