<svg xmlns="http://www.w3.org/2000/svg" width="370" height="282" viewBox="0 0 370 282"><g><g><g/><g><g><path fill="#153344" d="M149.429 88.915l-17.107 2.426.089.625 17.107-2.425z"/></g></g><g><path fill="#153344" d="M149.426 90.697a1.455 1.455 0 1 0 .002-2.91 1.455 1.455 0 0 0-.002 2.91z"/></g><g><g><path fill="#153344" d="M149.053 12.25l-17.108 2.426.09.625 17.107-2.425z"/></g></g><g><path fill="#153344" d="M149.046 14.027a1.455 1.455 0 1 0 .002-2.91 1.455 1.455 0 0 0-.002 2.91z"/></g><g><g><g><g><g><path fill="#f8f8f8" d="M80.63 281.305l-25.95-14.093 50.886-7.142 25.95 14.094z"/></g></g><g><g><path fill="#f3f3f3" d="M131.52 274.159l-25.95-14.094.443-246.355 26.013 14.157z"/></g></g><g><g><path fill="#f8f8f8" d="M81.143 35.008L55.13 20.852l50.886-7.142 26.013 14.157z"/></g></g><g><g><path fill="#fcfcfc" d="M132.022 27.87l-.506 246.292-50.886 7.141.506-246.291z"/></g></g><g><g><path fill="#f3f3f3" d="M80.63 281.309l-25.95-14.094.443-246.355 26.013 14.157z"/></g></g><g><g><path fill="#f3f3f3" d="M80.123 282L54.11 267.906l.506-247.556 25.95 14.094z"/></g></g><g><g><path fill="#f8f8f8" d="M80.57 34.442L54.62 20.348l51.962-7.268 25.95 14.094z"/></g></g><g><g><path fill="#fcfcfc" d="M80.566 34.448l51.962-7.268-.443 247.556-52.025 7.268zm50.95 239.719l.443-246.355-50.886 7.142-.443 246.355z"/></g></g></g></g></g><g><g><g><g><g><path fill="#c0eeed" d="M132.532 48.41l-.063 43.545-51.899 7.268.127-43.545z"/></g></g><g><g><path fill="#b7dede" d="M80.57 99.229L54.62 85.135l.063-43.545 26.013 14.094z"/></g></g><g><g><path fill="#bce7e6" d="M80.693 55.682L54.68 41.588l51.899-7.268 25.95 14.094z"/></g></g></g></g></g><g><g><g><g><g><path fill="#54babc" d="M132.529 14.6l-.064 34.95L80.63 56.88l.063-34.95z"/></g></g><g><g><path fill="#489e9f" d="M80.633 56.877L54.62 42.72l.063-34.95 26.013 14.157z"/></g></g><g><g><path fill="#4fadaf" d="M80.693 21.935L54.68 7.778 106.579.51l25.95 14.094z"/></g></g></g></g></g><g><g><g><g><g><path fill="#f8f8f8" d="M266.773 280.235l-26.013-14.093L291.646 259l25.95 14.094z"/></g></g><g><g><path fill="#f3f3f3" d="M317.6 273.093l-25.95-14.094.443-246.039 26.013 14.094z"/></g></g><g><g><path fill="#f8f8f8" d="M267.22 34.195l-25.95-14.093 50.823-7.142 26.012 14.094z"/></g></g><g><g><path fill="#fcfcfc" d="M318.1 27.05l-.507 246.039-50.823 7.142.443-246.04z"/></g></g><g><g><path fill="#f3f3f3" d="M266.773 280.233l-26.013-14.094.506-246.039 25.95 14.094z"/></g></g><g><g><path fill="#f3f3f3" d="M266.203 280.927L240.19 266.77l.506-247.24 25.95 14.094z"/></g></g><g><g><path fill="#f8f8f8" d="M266.65 33.622L240.7 19.528l51.962-7.268 26.013 14.094z"/></g></g><g><g><path fill="#fcfcfc" d="M266.643 33.618l52.025-7.268-.443 247.24-52.025 7.268zm50.95 239.466l.442-246.039-50.886 7.142-.443 246.039z"/></g></g></g></g></g><g><g><path fill="#153344" d="M41.77 42.6V8.977l8.101-1.327.064.632-7.532 1.264v32.295l7.468-1.2.064.632z"/></g></g><g/><g><g><path d="M158.097 83.488c-.38-.379-.886-.568-1.519-.505-.759.126-1.202.505-1.202.948 0 .569.506.632 1.392.695 1.013.126 1.962.316 1.962 1.39 0 .885-.633 1.644-1.772 1.896v1.012l-.76.063v-1.011a2.488 2.488 0 0 1-1.898-.632l.57-.632c.443.379 1.012.568 1.645.505.886-.126 1.33-.505 1.33-1.011 0-.569-.57-.632-1.456-.758-1.013-.127-1.9-.316-1.9-1.39 0-.886.634-1.58 1.71-1.834v-1.01l.76-.064v1.011c.695 0 1.202.19 1.645.569z"/></g><g><path d="M160.06 87.345l2.278-2.528c.633-.695 1.076-1.327 1.076-1.96 0-.631-.443-1.074-1.265-.947-.697.063-1.076.442-1.456.948l-.633-.38c.506-.695 1.14-1.2 2.152-1.327 1.329-.19 2.089.506 2.089 1.58 0 .695-.317 1.454-1.013 2.212l-1.899 2.149 3.101-.38v.76l-4.303.505v-.632z"/></g><g><path d="M165.76 86.336l.95-.126v.948l-.95.126z"/></g><g><path d="M167.97 85.253c0-.759.443-1.327 1.203-1.707-.697-.19-1.076-.695-1.076-1.39 0-1.011.886-1.833 2.215-2.022 1.329-.19 2.215.442 2.215 1.453 0 .695-.38 1.264-1.076 1.58.76.19 1.203.695 1.203 1.454 0 1.074-.95 1.959-2.342 2.149-1.456.252-2.342-.38-2.342-1.517zm.886-.127c0 .632.506 1.075 1.456.948.95-.126 1.455-.632 1.455-1.327s-.632-1.137-1.455-1.011c-.886.126-1.456.695-1.456 1.39zm2.785-3.35c0-.631-.506-1.01-1.33-.884-.822.126-1.328.632-1.328 1.2 0 .633.57 1.012 1.329.949.76-.063 1.329-.632 1.329-1.264z"/></g><g><path d="M173.73 85.695l2.278-2.528c.633-.695 1.076-1.327 1.076-1.96 0-.631-.443-1.074-1.265-.947-.697.063-1.076.442-1.456.948l-.633-.38c.506-.695 1.14-1.2 2.152-1.327 1.329-.19 2.089.506 2.089 1.58 0 .695-.317 1.454-1.013 2.212l-1.899 2.149 3.101-.38v.76l-4.303.505v-.632z"/></g><g><path d="M159.053 92.34l-1.076 3.54-.633.062-.822-2.464-.823 2.654-.633.063-1.076-3.286.633-.063.76 2.528.759-2.718.633-.063.76 2.528.759-2.718z"/></g><g><path d="M159.62 90.753l.57-.063v1.96c.253-.38.633-.633 1.076-.696.76-.063 1.202.316 1.202 1.011v2.275l-.57.064v-2.15c0-.442-.253-.758-.759-.694-.57.063-.95.505-.95 1.01v2.023l-.569.063z"/></g><g><path d="M163.29 93.474c0-1.011.633-1.833 1.646-1.96 1.076-.126 1.645.57 1.645 1.58 0 .949-.57 1.834-1.645 1.96-1.013.126-1.646-.569-1.646-1.58zm.633-.063c0 .695.38 1.2 1.076 1.137.696-.063 1.076-.695 1.076-1.39s-.38-1.2-1.076-1.138c-.696.064-1.076.696-1.076 1.39z"/></g><g><path d="M167.41 94.67v-4.867l.57-.063v4.866z"/></g><g><path d="M171.771 93.659c-.316.38-.76.632-1.265.695-1.076.127-1.646-.505-1.646-1.58 0-1.011.633-1.833 1.582-1.96.95-.126 1.52.57 1.52 1.455v.379l-2.47.316c.064.632.444.948 1.077.885.38-.064.633-.19.886-.506zm-.506-1.39c-.063-.57-.316-.949-.886-.885-.57.063-.886.568-.95 1.137z"/></g><g><path d="M172.34 93.663l.38-.442c.316.252.696.316 1.076.316.506-.064.822-.316.822-.57 0-.315-.316-.378-.886-.378-.632-.064-1.202-.19-1.202-.822 0-.569.443-1.074 1.329-1.2.57-.064.95.062 1.33.315l-.38.443c-.317-.253-.634-.316-.95-.253-.443.063-.696.316-.696.569 0 .316.316.379.886.379.633.063 1.202.19 1.202.821 0 .632-.506 1.138-1.392 1.264-.696-.063-1.203-.19-1.519-.442z"/></g><g><path d="M177.849 93.414v-.506c-.19.38-.507.632-1.013.695-.633.063-1.076-.316-1.076-.885 0-.442.253-.758.633-.948.38-.19.95-.252 1.456-.316v-.316c0-.316-.254-.632-.76-.568-.443.063-.696.316-.76.632l-.506-.19c.19-.506.696-.885 1.33-.948.822-.126 1.329.253 1.329 1.011v2.275zm0-1.517c-.254.063-.57.126-.886.19-.38.126-.697.252-.697.568 0 .316.253.506.633.443.57-.064.95-.57.95-1.012z"/></g><g><path d="M179.43 93.22v-4.867l.57-.063v4.866z"/></g><g><path d="M183.801 92.209c-.316.38-.76.632-1.265.695-1.076.127-1.646-.505-1.646-1.58 0-1.011.633-1.833 1.582-1.96.95-.126 1.52.57 1.52 1.454v.38l-2.47.316c.064.632.444.948 1.077.885.38-.064.633-.19.886-.506zm-.506-1.454c-.063-.568-.316-.948-.886-.885-.57.064-.886.57-.95 1.138z"/></g></g><g><g><path d="M344.177 55.998c-.38-.379-.886-.568-1.518-.505-.76.126-1.203.505-1.203.948 0 .569.506.632 1.392.695 1.013.126 1.962.316 1.962 1.39 0 .885-.633 1.644-1.772 1.896v1.012l-.76.063v-1.011a2.488 2.488 0 0 1-1.898-.632l.57-.632c.443.379 1.012.568 1.645.505.886-.126 1.33-.505 1.33-1.011 0-.569-.57-.632-1.456-.758-1.013-.127-1.9-.316-1.9-1.39 0-.886.634-1.58 1.71-1.834v-1.01l.76-.064v1.011c.695 0 1.202.19 1.645.569z"/></g><g><path d="M345.95 59.602l.696-.569c.317.443.76.632 1.52.569.949-.126 1.455-.632 1.455-1.327s-.57-1.075-1.456-.948l-.633.063v-.758l.633-.064c.823-.126 1.33-.632 1.33-1.264s-.507-1.01-1.33-.884c-.696.063-1.076.379-1.392.884l-.633-.379c.316-.569 1.076-1.137 2.025-1.264 1.33-.19 2.215.506 2.215 1.517 0 .695-.38 1.264-1.076 1.58.76.19 1.203.695 1.203 1.454 0 1.074-.886 1.959-2.342 2.148-1.076.127-1.899-.252-2.215-.758z"/></g><g><path d="M351.9 58.836l.95-.126v.948l-.95.126z"/></g><g><path d="M354.05 58.582l.696-.569c.317.443.76.632 1.52.569.949-.126 1.455-.632 1.455-1.327s-.57-1.075-1.456-.948l-.633.063v-.758l.633-.064c.823-.126 1.33-.632 1.33-1.264s-.507-1.01-1.33-.884c-.696.063-1.076.379-1.392.884l-.633-.379c.316-.569 1.076-1.137 2.025-1.264 1.33-.19 2.215.506 2.215 1.517 0 .695-.38 1.264-1.076 1.58.76.19 1.203.695 1.203 1.454 0 1.074-.886 1.959-2.342 2.148-1.076.127-1.835-.19-2.215-.758z"/></g><g><path d="M359.62 57.073c0-.759.443-1.327 1.203-1.707-.697-.19-1.076-.695-1.076-1.39 0-1.011.886-1.833 2.215-2.022 1.329-.19 2.215.442 2.215 1.453 0 .695-.38 1.264-1.076 1.58.76.19 1.203.695 1.203 1.454 0 1.074-.95 1.959-2.342 2.149-1.456.252-2.342-.38-2.342-1.517zm.886-.127c0 .632.506 1.075 1.456.948.95-.126 1.455-.632 1.455-1.327s-.632-1.137-1.455-1.011c-.886.126-1.456.695-1.456 1.39zm2.785-3.35c0-.631-.506-1.01-1.33-.884-.822.126-1.328.632-1.328 1.2 0 .633.57 1.012 1.329.949.76-.127 1.329-.632 1.329-1.264z"/></g><g><path d="M345.123 64.78l-1.076 3.54-.633.062-.822-2.464-.823 2.654-.633.063-1.076-3.286.633-.063.76 2.528.759-2.718.633-.063.76 2.528.759-2.718z"/></g><g><path d="M345.7 63.263l.57-.063v1.96c.253-.38.633-.633 1.076-.696.759-.063 1.202.316 1.202 1.011v2.275l-.57.064v-2.15c0-.442-.253-.758-.76-.694-.569.063-.948.505-.948 1.01v2.023l-.57.063z"/></g><g><path d="M349.37 65.984c0-1.011.633-1.833 1.646-1.96 1.076-.126 1.645.57 1.645 1.58 0 .949-.57 1.834-1.645 1.96-1.013.126-1.646-.632-1.646-1.58zm.633-.063c0 .695.38 1.2 1.076 1.137.696-.063 1.076-.695 1.076-1.39s-.38-1.2-1.076-1.138c-.696.064-1.076.696-1.076 1.39z"/></g><g><path d="M353.48 67.18v-4.867l.57-.063v4.866z"/></g><g><path d="M357.851 66.169c-.316.38-.76.632-1.265.695-1.076.127-1.646-.505-1.646-1.58 0-1.011.633-1.833 1.582-1.96.95-.126 1.52.57 1.52 1.454v.38l-2.47.316c.064.632.444.948 1.077.885.38-.064.633-.19.886-.506zm-.443-1.454c-.063-.569-.316-.948-.886-.885-.57.064-.886.57-.95 1.138z"/></g><g><path d="M358.42 66.103l.38-.442c.316.252.696.316 1.076.316.506-.064.823-.316.823-.57 0-.315-.317-.378-.887-.378-.632-.064-1.202-.19-1.202-.822 0-.569.443-1.074 1.329-1.2.57-.064.95.062 1.33.315l-.38.443c-.317-.253-.634-.316-.95-.253-.443.063-.696.316-.696.569 0 .316.316.379.886.379.633.063 1.202.19 1.202.821 0 .632-.506 1.138-1.392 1.264-.696 0-1.203-.126-1.519-.442z"/></g><g><path d="M363.929 65.854v-.506c-.19.38-.507.632-1.013.695-.633.063-1.076-.316-1.076-.885 0-.442.253-.758.633-.948.38-.19.95-.252 1.456-.316v-.316c0-.316-.254-.632-.76-.568-.443.063-.696.316-.76.632l-.506-.19c.19-.506.697-.885 1.33-.948.822-.126 1.329.253 1.329 1.011v2.275zm0-1.517c-.254.063-.57.126-.886.19-.38.126-.697.252-.697.568 0 .316.253.506.633.443.633-.064.95-.506.95-1.012z"/></g><g><path d="M365.51 65.67v-4.867l.57-.063v4.866z"/></g><g><path d="M369.871 64.659c-.316.38-.76.632-1.265.695-1.076.127-1.646-.505-1.646-1.58 0-1.011.633-1.833 1.582-1.96.95-.126 1.52.57 1.52 1.454v.38l-2.47.316c.064.632.444.948 1.077.885.38-.064.633-.19.886-.506zm-.506-1.39c-.063-.57-.316-.949-.886-.885-.57.063-.886.568-.95 1.137z"/></g></g><g><g><path d="M157.847 7.392c-.38-.38-.886-.569-1.519-.506-.759.127-1.202.506-1.202.948 0 .57.506.632 1.392.696 1.013.126 1.962.316 1.962 1.39 0 .885-.633 1.643-1.772 1.896v1.011l-.76.063v-1.01a2.488 2.488 0 0 1-1.898-.633l.57-.632c.443.38 1.012.569 1.645.506.886-.127 1.33-.506 1.33-1.011 0-.57-.57-.632-1.456-.759-1.013-.126-1.9-.316-1.9-1.39 0-.885.634-1.58 1.71-1.833v-.885l.76-.063v1.011c.695 0 1.202.19 1.645.569z"/></g><g><path d="M159.62 10.992l.696-.569c.317.443.76.632 1.52.569.949-.126 1.455-.632 1.455-1.327s-.57-1.075-1.456-.948l-.633.063v-.758l.633-.064c.823-.126 1.33-.632 1.33-1.264s-.507-1.01-1.33-.884c-.696.063-1.076.379-1.392.884l-.633-.379c.316-.569 1.076-1.137 2.025-1.264 1.33-.19 2.215.506 2.215 1.517 0 .695-.38 1.264-1.076 1.58.76.19 1.203.695 1.203 1.454 0 1.074-.886 1.959-2.342 2.148-1.14.127-1.899-.252-2.215-.758z"/></g><g><path d="M165.51 10.236l.95-.126v.948l-.95.126z"/></g><g><path d="M168.293 9.925c.316.127.633.19 1.076.127 1.392-.19 1.962-1.39 2.088-2.907-.38.568-1.012.948-1.772 1.01-1.202.127-2.025-.568-2.025-1.769 0-1.2.886-2.212 2.278-2.338 1.836-.253 2.406 1.264 2.406 2.78 0 1.707-.697 3.73-2.912 3.982-.57.063-1.012 0-1.392-.126zm2.975-3.855c0-.632-.443-1.39-1.456-1.264-.823.127-1.33.695-1.33 1.454 0 .758.507 1.264 1.33 1.137.633-.063 1.456-.442 1.456-1.327z"/></g><g><path d="M173.863 9.225c.316.127.633.19 1.076.127 1.392-.19 1.962-1.39 2.088-2.907-.38.568-1.012.948-1.772 1.01-1.202.127-2.025-.568-2.025-1.769 0-1.2.886-2.212 2.278-2.338 1.836-.253 2.406 1.264 2.406 2.78 0 1.707-.697 3.73-2.912 3.982-.57.063-1.013 0-1.392-.126zm2.975-3.855c0-.632-.443-1.39-1.456-1.264-.823.127-1.33.695-1.33 1.454 0 .758.507 1.264 1.33 1.137.633-.063 1.456-.442 1.456-1.327z"/></g><g><path d="M154.11 16.813l.57-.063v.505c.253-.442.57-.632.886-.695h.316v.569h-.316c-.57.063-.823.505-.823.948v2.085l-.57.064v-3.413z"/></g><g><path d="M159.181 19.089c-.316.38-.76.632-1.265.695-1.076.127-1.646-.506-1.646-1.58 0-1.011.633-1.833 1.582-1.96.95-.126 1.52.57 1.52 1.454v.38l-2.47.316c.064.632.444.948 1.077.885.38-.064.633-.19.886-.506zm-.443-1.454c-.063-.569-.316-.948-.886-.885-.57.064-.886.57-.95 1.138z"/></g><g><path d="M159.56 16.12l.696-.062v-1.075l.633-.063v1.074l.823-.126v.506l-.823.126v1.833c0 .379.127.569.57.505.126 0 .19-.063.253-.063v.506c-.127.063-.317.063-.506.126-.633.063-.95-.253-.95-.821v-2.023l-.696.063z"/></g><g><path d="M164.299 18.894v-.506c-.19.38-.507.632-1.013.695-.633.063-1.076-.316-1.076-.885 0-.442.253-.758.633-.948.38-.19.95-.252 1.456-.316v-.316c0-.316-.254-.632-.76-.568-.443.063-.696.316-.76.632l-.506-.19c.19-.506.697-.885 1.33-.948.822-.126 1.329.253 1.329 1.011v2.275zm0-1.517c-.254.063-.57.126-.886.19-.38.126-.697.252-.697.568 0 .316.254.506.633.443.57-.064.95-.506.95-1.012z"/></g><g><path d="M165.82 14.535l.633-.063v-.632l-.633.063zm.633 4.108V15.23l-.57.064v3.412z"/></g><g><path d="M167.47 18.52v-4.867l.57-.063v4.866z"/></g></g><g><g><path fill="#153344" d="M228.16 57.136V8.977l8.101-1.327.127.632-7.595 1.264v46.832l7.468-1.201.127.632z"/></g></g><g><g><path d="M4.24 28.313v2.528l-.632.127v-.696c-.254.443-.76.822-1.456.948C.822 31.347 0 30.4 0 29.008c0-1.39.823-2.654 2.278-2.78.823-.127 1.52.19 1.9.758l-.507.38c-.253-.443-.76-.696-1.393-.633-1.012.127-1.645 1.011-1.645 2.15 0 1.137.57 1.832 1.582 1.705.823-.126 1.33-.632 1.33-1.453v-.19l-1.14.127v-.506z"/></g><g><path d="M5.19 27.363l.57-.063v.505c.253-.442.57-.632.886-.695h.316v.569h-.316c-.57.063-.823.505-.823.948v2.085l-.57.064v-3.413z"/></g><g><path d="M7.34 28.824c0-1.011.633-1.833 1.646-1.96 1.076-.126 1.645.57 1.645 1.58 0 .949-.57 1.834-1.645 1.96-1.013.063-1.646-.632-1.646-1.58zm.633-.126c0 .695.38 1.2 1.076 1.137.696-.063 1.076-.695 1.076-1.39s-.38-1.201-1.076-1.138c-.76.127-1.076.759-1.076 1.39z"/></g><g><path d="M11.14 29.573l.38-.442c.316.252.696.316 1.076.316.506-.064.822-.316.822-.57 0-.315-.316-.378-.886-.378-.633-.064-1.202-.19-1.202-.822 0-.569.443-1.074 1.329-1.2.57-.064.95.062 1.33.315l-.444.38c-.316-.253-.633-.317-.95-.253-.442.063-.696.316-.696.568 0 .316.317.38.887.38.632.063 1.202.19 1.202.821 0 .632-.506 1.138-1.392 1.264-.633.063-1.076-.063-1.456-.38z"/></g><g><path d="M14.43 29.203l.38-.442c.316.252.696.316 1.076.316.506-.064.822-.316.822-.57 0-.315-.316-.378-.886-.378-.633-.064-1.202-.19-1.202-.822 0-.569.443-1.074 1.329-1.2.57-.064.95.062 1.33.315l-.38.443c-.317-.253-.634-.316-.95-.253-.443.063-.696.316-.696.569 0 .316.316.379.886.379.633.063 1.202.19 1.202.821 0 .632-.506 1.138-1.392 1.264-.76-.063-1.203-.19-1.519-.442z"/></g><g><path d="M21.519 23.89c1.012-.127 1.772.378 1.772 1.326 0 .948-.76 1.644-1.772 1.77l-1.266.126v1.707l-.633.063v-4.866zm0 2.59c.633-.063 1.076-.442 1.076-1.137 0-.695-.443-.948-1.076-.885l-1.33.19v2.022z"/></g><g><path d="M23.92 25.093l.57-.063v.505c.253-.442.57-.632.886-.695h.316v.569h-.316c-.57.063-.823.505-.823.948v2.085h-.633z"/></g><g><path d="M26.01 26.484c0-1.011.633-1.833 1.646-1.96 1.076-.126 1.645.57 1.645 1.58 0 .949-.57 1.834-1.645 1.96-1.013.126-1.646-.569-1.646-1.58zm.633-.063c0 .695.38 1.2 1.076 1.137.696-.063 1.076-.695 1.076-1.39s-.38-1.2-1.076-1.138c-.76.127-1.076.696-1.076 1.39z"/></g><g><path d="M30.376 24.775l-.696.063v-.505l.696-.063v-.57c0-.568.317-.947.95-1.074h.38v.506h-.254c-.38.063-.506.19-.506.569v.505l1.962-.252v3.412l-.633.064v-2.908l-1.266.19v2.907l-.633.063zm1.962-2.212l.633-.063v.632l-.633.063z"/></g><g><path d="M33.48 23.89l.696-.062v-1.075l.633-.063v1.074l.823-.126v.506l-.823.063v1.833c0 .379.127.568.57.505.126 0 .19-.063.253-.063v.506c-.127.063-.317.063-.506.126-.633.063-.95-.253-.95-.822V24.27l-.696.063z"/></g></g><g><g><path d="M191.327 35.896v2.528l-.57.064v-.696c-.253.443-.759.822-1.455.948-1.33.19-2.152-.821-2.152-2.212 0-1.39.823-2.654 2.278-2.78.823-.127 1.52.19 1.9.758l-.507.38c-.253-.443-.76-.696-1.393-.633-1.012.127-1.645 1.011-1.645 2.15 0 1.137.57 1.832 1.582 1.705.823-.126 1.33-.632 1.33-1.453v-.19l-1.203.127v-.506z"/></g><g><path d="M192.28 34.953l.57-.063v.505c.253-.442.57-.632.886-.695h.316v.569h-.316c-.57.063-.823.505-.823.948v2.085l-.57.064v-3.413z"/></g><g><path d="M194.43 36.404c0-1.011.633-1.833 1.646-1.96 1.076-.126 1.645.57 1.645 1.58 0 .949-.57 1.834-1.645 1.96-1.013.063-1.646-.632-1.646-1.58zm.633-.126c0 .695.38 1.2 1.076 1.137.696-.063 1.076-.695 1.076-1.39s-.38-1.201-1.076-1.138c-.76.127-1.076.759-1.076 1.39z"/></g><g><path d="M198.23 37.163l.38-.442c.316.252.696.316 1.076.316.506-.064.822-.316.822-.57 0-.315-.316-.378-.886-.378-.633-.064-1.202-.19-1.202-.822 0-.569.443-1.074 1.329-1.2.57-.064.95.062 1.33.315l-.444.38c-.316-.253-.633-.317-.95-.253-.442.063-.696.316-.696.568 0 .316.317.38.887.38.632.063 1.202.19 1.202.821 0 .632-.506 1.138-1.392 1.264-.633.063-1.076-.063-1.456-.38z"/></g><g><path d="M201.52 36.783l.38-.442c.316.252.696.316 1.076.316.506-.064.822-.316.822-.57 0-.315-.316-.378-.886-.378-.633-.064-1.202-.19-1.202-.822 0-.569.443-1.074 1.329-1.2.57-.064.95.062 1.33.315l-.38.443c-.317-.253-.634-.316-.95-.253-.443.063-.696.316-.696.569 0 .316.316.379.886.379.633.063 1.202.19 1.202.821 0 .632-.506 1.138-1.392 1.264-.696-.063-1.203-.19-1.519-.442z"/></g><g><path d="M208.609 31.47c1.012-.127 1.772.378 1.772 1.326 0 .948-.76 1.644-1.772 1.77l-1.266.126V36.4l-.633.063v-4.866zm0 2.59c.633-.063 1.076-.442 1.076-1.137 0-.695-.443-.948-1.076-.885l-1.33.19v2.022z"/></g><g><path d="M211.01 32.673l.57-.063v.505c.253-.442.57-.632.886-.695h.316v.569h-.316c-.57.063-.823.505-.823.948v2.085l-.57.064v-3.413z"/></g><g><path d="M213.1 34.064c0-1.011.633-1.833 1.646-1.96 1.075-.126 1.645.57 1.645 1.58 0 .949-.57 1.834-1.645 1.96-1.013.126-1.646-.569-1.646-1.58zm.633-.063c0 .695.38 1.2 1.076 1.137.696-.063 1.076-.695 1.076-1.39s-.38-1.2-1.076-1.138c-.76.127-1.076.696-1.076 1.39z"/></g><g><path d="M216.77 32.418v-.505l.696-.063v-.57c0-.568.317-.947.95-1.074h.38v.506h-.254c-.38.063-.506.19-.506.569v.505l1.962-.252v3.412l-.633.064v-2.908l-1.33.19v2.907l-.569.063v-2.907zm2.658-2.275l.633-.063v.632l-.633.063z"/></g><g><path d="M220.63 31.47l.696-.062v-1.075l.633-.063v1.074l.823-.126v.506l-.823.126v1.833c0 .379.127.569.57.505.126 0 .19-.063.253-.063v.506c-.127.063-.317.063-.506.126-.633.063-.95-.253-.95-.821v-2.023l-.696.063v-.505z"/></g></g><g><g><path d="M9.62 69.079l.506-.442c.317.379.823.505 1.33.442.822-.126 1.139-.442 1.139-.948s-.443-.632-1.203-.695c-.823-.127-1.582-.253-1.582-1.201 0-.822.633-1.454 1.709-1.58.696-.063 1.266.063 1.645.569l-.506.442c-.253-.316-.633-.505-1.203-.442-.696.063-1.076.442-1.076.885 0 .505.444.568 1.203.695.823.126 1.582.253 1.582 1.2 0 .885-.633 1.517-1.772 1.644-.696.063-1.329-.063-1.772-.569z"/></g><g><path d="M14.62 70.338l-.57.063v-4.55l.57-.063v.505a1.561 1.561 0 0 1 1.139-.758c.95-.127 1.519.569 1.519 1.58 0 .948-.57 1.833-1.52 1.959-.505.126-.885-.063-1.138-.38zm2.025-3.097c0-.632-.317-1.2-1.013-1.137-.696.063-1.012.695-1.012 1.39s.38 1.2 1.012 1.074c.633-.063 1.013-.632 1.013-1.327z"/></g><g><path d="M17.85 67.114c0-1.011.633-1.833 1.646-1.96 1.076-.126 1.645.57 1.645 1.58 0 .949-.57 1.834-1.645 1.96-1.076.063-1.646-.632-1.646-1.58zm.57-.063c0 .695.38 1.2 1.076 1.137.696-.063 1.076-.695 1.076-1.39s-.38-1.2-1.076-1.138c-.697.064-1.076.696-1.076 1.39z"/></g><g><path d="M21.9 64.085l.633-.063v-.632l-.633.063zm.633 4.171v-3.412l-.57.063v3.413z"/></g><g><path d="M23.54 68.07v-4.867l.57-.063v4.866z"/></g><g><path d="M27.089 67.624v-.506c-.19.38-.507.632-1.013.695-.633.063-1.076-.316-1.076-.885 0-.442.253-.758.633-.948.38-.19.95-.252 1.456-.316v-.316c0-.316-.254-.632-.76-.568-.443.063-.696.316-.76.632l-.506-.19c.19-.506.696-.885 1.33-.948.822-.126 1.329.253 1.329 1.011v2.275zm0-1.517c-.254.063-.57.126-.886.19-.38.126-.697.252-.697.568 0 .316.253.506.633.443.57-.064.95-.506.95-1.012z"/></g><g><path d="M31.645 66.74c0 1.075-.697 1.707-1.71 1.833-.506.063-.949-.063-1.265-.19l.253-.505c.253.126.57.253 1.013.19.633-.064 1.139-.443 1.139-1.201v-.316a1.561 1.561 0 0 1-1.14.758c-.885.127-1.455-.569-1.455-1.517s.57-1.77 1.519-1.896c.506-.063.886.127 1.076.443v-.506l.57-.063zm-.57-1.327c0-.632-.38-1.137-1.013-1.074-.633.063-1.012.695-1.012 1.327s.316 1.138 1.012 1.074c.633-.126 1.013-.695 1.013-1.327z"/></g><g><path d="M35.381 66.169c-.316.38-.76.632-1.265.695-1.076.127-1.646-.505-1.646-1.58 0-1.011.633-1.833 1.582-1.96.95-.126 1.52.57 1.52 1.454v.38l-2.47.316c.064.632.444.948 1.077.885.38-.064.633-.19.886-.506zm-.443-1.454c-.063-.569-.316-.948-.886-.885-.57.064-.886.57-.95 1.138z"/></g></g><g><g><path fill="#153344" d="M334.946 12.257l-17.108 2.425.09.626 17.107-2.426z"/></g></g><g><path fill="#153344" d="M334.996 14.027a1.455 1.455 0 1 0 .002-2.91 1.455 1.455 0 0 0-.002 2.91z"/></g><g><g><path fill="#153344" d="M334.942 59.975L317.834 62.4l.09.625L335.03 60.6z"/></g></g><g><path fill="#153344" d="M334.996 61.747a1.455 1.455 0 1 0 .002-2.91 1.455 1.455 0 0 0-.002 2.91z"/></g><g><g><path d="M343.797 7.392c-.38-.38-.886-.569-1.519-.506-.759.127-1.202.506-1.202.948 0 .57.506.632 1.392.696 1.013.126 1.962.316 1.962 1.39 0 .885-.633 1.643-1.772 1.896v1.011l-.76.063v-1.01a2.488 2.488 0 0 1-1.898-.633l.57-.632c.443.38 1.012.569 1.645.506.886-.127 1.33-.506 1.33-1.011 0-.57-.57-.632-1.456-.759-1.013-.126-1.9-.316-1.9-1.39 0-.885.634-1.58 1.71-1.833v-.885l.76-.063v1.011c.695 0 1.202.19 1.645.569z"/></g><g><path d="M345.51 10.992l.696-.569c.317.443.76.632 1.52.569.949-.126 1.455-.632 1.455-1.327s-.57-1.075-1.456-.948l-.633.063v-.758l.633-.064c.823-.126 1.33-.632 1.33-1.264s-.507-1.01-1.33-.884c-.696.063-1.076.379-1.392.884l-.633-.379c.316-.569 1.076-1.137 2.025-1.264 1.33-.19 2.215.506 2.215 1.517 0 .695-.38 1.264-1.076 1.58.76.19 1.203.695 1.203 1.454 0 1.074-.886 1.959-2.342 2.148-1.076.127-1.835-.252-2.215-.758z"/></g><g><path d="M351.46 10.236l.95-.126v.948l-.95.126z"/></g><g><path d="M354.243 9.925c.316.127.633.19 1.076.127 1.392-.19 1.962-1.39 2.088-2.907-.38.568-1.012.948-1.772 1.01-1.202.127-2.025-.568-2.025-1.769 0-1.2.886-2.212 2.278-2.338 1.836-.253 2.406 1.264 2.406 2.78 0 1.707-.697 3.73-2.912 3.982-.57.063-1.013 0-1.392-.126zm2.911-3.855c0-.632-.443-1.39-1.455-1.264-.823.127-1.33.695-1.33 1.454 0 .758.507 1.264 1.33 1.137.696-.063 1.455-.442 1.455-1.327z"/></g><g><path d="M359.813 9.225c.316.127.633.19 1.076.127 1.392-.19 1.962-1.39 2.089-2.907-.38.568-1.013.948-1.773 1.01-1.202.127-2.025-.568-2.025-1.769 0-1.2.886-2.212 2.278-2.338 1.836-.253 2.406 1.264 2.406 2.78 0 1.707-.697 3.73-2.912 3.982-.57.063-1.013 0-1.392-.126zm2.911-3.855c0-.632-.443-1.39-1.455-1.264-.823.127-1.33.695-1.33 1.454 0 .758.507 1.264 1.33 1.137.696-.063 1.455-.442 1.455-1.327z"/></g><g><path d="M340 16.813l.57-.063v.505c.253-.442.57-.632.886-.695h.316v.569h-.316c-.57.063-.823.505-.823.948v2.085l-.57.064v-3.413z"/></g><g><path d="M345.131 19.089c-.316.38-.76.632-1.265.695-1.076.127-1.646-.506-1.646-1.58 0-1.011.633-1.833 1.582-1.96.95-.126 1.52.57 1.52 1.454v.38l-2.47.316c.064.632.444.948 1.077.885.38-.064.633-.19.886-.506zm-.506-1.454c-.063-.569-.316-.948-.886-.885-.57.064-.886.57-.95 1.138z"/></g><g><path d="M345.51 16.12l.696-.062v-1.075l.633-.063v1.074l.823-.126v.506l-.823.126v1.833c0 .379.127.569.57.505.126 0 .19-.063.253-.063v.506c-.127.063-.317.063-.506.126-.633.063-.95-.253-.95-.821v-2.023l-.696.063z"/></g><g><path d="M350.249 18.894v-.506c-.19.38-.507.632-1.013.695-.633.063-1.076-.316-1.076-.885 0-.442.253-.758.633-.948.38-.19.95-.252 1.456-.316v-.316c0-.316-.254-.632-.76-.568-.443.063-.696.316-.76.632l-.506-.19c.19-.506.696-.885 1.33-.948.822-.126 1.329.253 1.329 1.011v2.275zm-.064-1.517c-.253.063-.57.126-.886.19-.38.126-.696.252-.696.568 0 .316.253.506.633.443.633-.064.95-.506.95-1.012z"/></g><g><path d="M351.77 14.535l.633-.063v-.632l-.633.063zm.57 4.108V15.23l-.57.064v3.412z"/></g><g><path d="M353.42 18.52v-4.867l.57-.063v4.866z"/></g></g><g><g><g><g><g><path fill="#54babc" d="M318.422 14.09l-.063 49.296-51.709 7.268.127-49.296z"/></g></g><g><g><path fill="#489e9f" d="M266.65 70.66L240.7 56.503l.063-49.233 26.013 14.094z"/></g></g><g><g><path fill="#4fadaf" d="M266.773 21.362L240.76 7.268 292.469 0l25.95 14.094z"/></g></g></g></g></g><g><g><path fill="#143343" d="M92.976 35.455c-.697-.632-1.52-.948-2.595-.821-1.33.19-2.026.884-2.026 1.706 0 .948.887 1.074 2.406 1.264 1.708.19 3.29.506 3.29 2.402 0 1.516-1.075 2.78-3.037 3.223v1.706l-1.266.19v-1.706c-1.33.063-2.405-.316-3.228-1.075l1.013-1.138a3.298 3.298 0 0 0 2.848.822c1.519-.19 2.278-.885 2.278-1.77 0-.948-.95-1.074-2.468-1.264-1.709-.19-3.291-.505-3.291-2.338 0-1.517 1.012-2.718 2.911-3.16V31.79l1.266-.19v1.706c1.14 0 2.089.316 2.848 1.012z"/></g><g><path fill="#143343" d="M95.95 37.663c0-2.907.76-5.814 4.05-6.257 3.292-.379 4.051 2.275 4.051 5.246 0 2.907-.76 5.814-4.05 6.257-3.292.379-4.051-2.339-4.051-5.246zm6.582-.822c0-2.148-.253-4.424-2.531-4.108-2.279.253-2.532 2.592-2.532 4.74 0 2.15.253 4.425 2.532 4.109 2.278-.253 2.531-2.592 2.531-4.74z"/></g><g><path fill="#143343" d="M105.82 40.32l1.646-.19v1.643l-1.646.19z"/></g><g><path fill="#143343" d="M118.227 37.922l-2.025.253v2.528l-1.52.19v-2.528l-5.632.695v-1.138l5.253-8.09 1.899-.252v7.331l2.025-.253zm-3.544-.821v-5.688l-3.987 6.13z"/></g><g><path fill="#143343" d="M119.94 38.932l2.722-.316v-7.964c-.823.632-1.773 1.012-2.722 1.39v-1.326c1.266-.506 2.342-1.138 3.165-1.96l1.012-.126v9.796l2.722-.316v1.327l-6.899.822z"/></g></g><g><g><path fill="#143343" d="M279.176 40.635c-.696-.632-1.52-.948-2.595-.821-1.33.19-2.026.884-2.026 1.706 0 .948.887 1.074 2.406 1.264 1.708.19 3.29.506 3.29 2.402 0 1.516-1.075 2.78-3.037 3.223v1.706l-1.266.19v-1.706c-1.33.063-2.405-.316-3.228-1.075l1.013-1.138a3.298 3.298 0 0 0 2.848.822c1.519-.19 2.278-.885 2.278-1.77 0-.948-.95-1.074-2.468-1.264-1.709-.19-3.291-.505-3.291-2.338 0-1.517 1.012-2.718 2.911-3.16V36.97l1.266-.19v1.706c1.14 0 2.089.316 2.848 1.012z"/></g><g><path fill="#143343" d="M282.22 42.853c0-2.907.76-5.814 4.05-6.257 3.292-.379 4.051 2.275 4.051 5.246 0 2.907-.76 5.814-4.05 6.257-3.355.379-4.051-2.339-4.051-5.246zm6.519-.822c0-2.148-.253-4.424-2.532-4.108-2.278.253-2.531 2.592-2.531 4.74 0 2.15.253 4.425 2.531 4.109 2.279-.316 2.532-2.592 2.532-4.74z"/></g><g><path fill="#143343" d="M292.09 45.5l1.646-.19v1.643l-1.646.19z"/></g><g><path fill="#143343" d="M302.592 36.336c-.57-.252-1.266-.316-1.899-.252-2.341.316-3.354 2.275-3.544 4.803.696-.948 1.835-1.58 3.038-1.707 2.215-.252 3.608 1.075 3.608 3.097 0 2.149-1.52 3.792-3.988 4.108-3.164.38-4.177-2.022-4.177-4.74 0-3.097 1.266-6.383 5.063-6.825.95-.127 1.772 0 2.469.252zm-.316 6.194c0-1.264-.823-2.212-2.406-2.022-1.329.19-2.531 1.01-2.531 2.401 0 1.075.696 2.465 2.531 2.212 1.52-.19 2.406-1.264 2.406-2.591z"/></g><g><path fill="#143343" d="M305.89 44.175l2.722-.316v-8.027c-.823.632-1.773 1.012-2.722 1.39v-1.326c1.266-.506 2.342-1.138 3.165-1.96l1.012-.126v9.796l2.722-.316v1.327l-6.899.822v-1.264z"/></g></g><g><g><path fill="#153343" d="M306.57 135.578l-.367 2.384c.443.063.76.442.696.948-.127.506-.57.885-1.076.885l-.57 2.275c.633.126 1.013.758.887 1.454-.127.758-.823 1.327-1.583 1.264l-.633 2.401h.064c.316.127.506.57.316.948-.126.38-.57.57-.95.443l-1.771 2.78c.063 0 .063 0 .126.064.507.442.507 1.264.063 1.833-.506.632-1.329.821-1.898.379l-1.899 2.149c.316.316.253.884-.063 1.264-.38.379-.95.442-1.33.126-.063-.063-.126-.127-.19-.253l-2.594 1.138c.063.126.063.19.063.252.063.696-.506 1.454-1.266 1.58-.76.127-1.392-.315-1.455-1.074l-.253.032c.008-.31.134-.672.38-.917.442-.442 1.012-.632 1.518-.442l1.772-3.286-.063-.064c-.063-.126-.19-.252-.19-.379l-2.342.38c0 .315-.126.695-.38.947-.38.443-.949.632-1.455.506l-1.203 2.844c.064 0 .127.063.19.126.127.127.253.316.253.506l.253-.032c-.01.238-.131.42-.253.6-.38.443-.949.506-1.329.19-.063 0-.063-.063-.126-.126l-3.545 2.149c.064.19.064.442 0 .632-.19.505-.696.821-1.202.695l-.633 1.517c.57.253.886.948.633 1.58a1.516 1.516 0 0 1-1.709 1.011c-.696-.126-1.013-.885-.76-1.58.254-.758 1.013-1.2 1.71-1.011l.632-1.517c-.063-.063-.126-.063-.19-.126-.253-.253-.316-.632-.19-1.012.186-.494.734-.746 1.172-.64l-.095.198c.126.063.253.126.316.253l3.481-2.212c-.063-.127-.063-.253-.063-.38l-1.899-.126v.063c-.123.43-.546.682-.919.578l.096-.198c-.063 0-.063-.064-.126-.064a.573.573 0 0 1-.19-.442c0-.339.252-.678.577-.791l-.008.096c.127 0 .254.063.38.126l3.987-3.35a1.273 1.273 0 0 1-.19-.695l-2.594.127c-.064.316-.19.569-.38.821a1.621 1.621 0 0 1-.894.545l.008-.102h-.19c-.696-.063-1.14-.759-.95-1.517.19-.695.95-1.264 1.646-1.138l.823-2.59c-.063-.064-.127-.064-.19-.127-.316-.253-.316-.695 0-1.011.253-.316.76-.38 1.013-.127l.063.063 2.532-1.77c-.253-.505-.127-1.137.253-1.58.506-.631 1.392-.694 1.899-.252.126.063.19.19.253.316l3.544-1.96c-.19-.442-.063-1.01.317-1.453.506-.569 1.392-.632 1.898-.19l.127.127 3.101-2.402c-.127-.19-.127-.505.063-.758.254-.38.697-.443 1.013-.253l3.291-3.666c-.253-.252-.19-.632.064-.948a.714.714 0 0 1 1.012-.126c.317.253.317.695 0 1.011-.165.11-.33.22-.329.08zM283.83 161.4l.79-1.635.031.01-.79 1.633a.8.8 0 0 0-.03-.008zm1.178-3.121l.182-2.306c.04-.006.08-.014.119-.024l-.182 2.3a.718.718 0 0 0-.119.03zm5.879.57v.031l-1.267.158v-.031zm7.468-16.085c.126.19.19.443.19.632 0 .759-.57 1.454-1.33 1.517l-.253 3.603c.254 0 .57.126.76.316l2.595-2.528c-.063-.127-.127-.253-.127-.443 0-.38.38-.758.76-.758l.253-1.39.063-.19.57-2.97a.484.484 0 0 1-.317-.127l-.063-.063zm4.43 4.867l-1.392-1.201c-.317.253-.696.253-.95.063l-2.595 2.528c.127.127.19.316.254.506l4.303-1.201.19-.063.127-.064c0-.19.063-.315.126-.505zm-17.215 10.996c.063.127.063.253.127.38l1.898.126v-.063a.944.944 0 0 1 1.14-.695l1.202-2.844c-.126-.064-.19-.127-.316-.19l-.064-.063zm5.76-10.301l-.507 4.613c.127 0 .253 0 .38.064.063 0 .063.063.127.063.063 0 .126.063.19.126l.19.19 3.86-2.655c-.063-.19-.127-.379-.127-.568v-.19c0-.253.064-.442.19-.632l-3.29-2.022c-.064.19-.127.316-.254.442-.19.253-.506.442-.76.569zm3.987 4.55l.823-1.643c-.064-.063-.19-.126-.254-.19l-.19-.19-3.86 2.655c.063.127.126.316.126.443l2.342-.38c0-.19.063-.379.19-.505.19-.19.506-.316.823-.19zm.633-8.532l-3.545 1.96c.064.252.064.505 0 .821l3.292 2.023.063-.064c.253-.252.57-.442.95-.505l.252-3.603c-.253 0-.57-.126-.76-.316a1.379 1.379 0 0 1-.252-.316zm-10.127 8.848c.507.127.823.57.823 1.138l2.595-.127c.063-.695.696-1.264 1.392-1.327l.507-4.613c-.38.063-.697 0-.95-.253l-.19-.19-2.531 1.707c.063.126.063.316.063.442-.127.442-.506.758-.886.695zm10.19 3.792c-.063-.253 0-.569.19-.821.38-.38.95-.506 1.329-.253l1.899-2.149a1.165 1.165 0 0 1-.317-.758l-3.417.505c0 .127-.064.19-.064.253-.126.38-.57.632-.95.506l-1.708 3.286c.19.126.38.316.506.569zm7.025-8.279h-.063c-.063-.126-.127-.19-.19-.316l-.253.063-.19.063-4.177 1.201c0 .253 0 .443-.127.695-.316.696-1.076 1.138-1.772.885l-.823 1.643c.064 0 .127.064.127.064.127.063.19.252.19.379l3.418-.506c0-.253.063-.505.19-.695.38-.695 1.202-1.011 1.835-.695zm1.203-3.792c-.317-.063-.57-.253-.76-.506l-1.835 1.075c.063.19 0 .505-.127.695l1.33 1.138.19.19c.19-.127.38-.19.569-.19zm1.076-4.93c-.317-.063-.507-.316-.57-.632l-2.088.443c0 .379-.38.758-.76.758l-.57 2.97v.19l-.253 1.39c.127 0 .254.064.317.127s.126.063.126.126l1.836-1.074c-.063-.253-.127-.506-.063-.758.126-.759.822-1.328 1.582-1.264zm.886-4.234c-.127 0-.19-.063-.253 0l-3.291 3.666c.063.126.126.19.126.316l2.089-.443v-.063c0-.506.443-.948.95-1.011z"/></g></g><g><g><path fill="#153343" d="M277.786 176.27l-1.139 4.045-.57.063-.949-3.034-.95 3.287-.569.063-1.139-3.729.57-.063.949 3.097.95-3.35.569-.063.95 3.097.885-3.35z"/></g><g><path fill="#153343" d="M278.23 176.709l.506-.063v-.506l-.506.063zm.506 3.286v-2.717l-.506.063v2.717z"/></g><g><path fill="#153343" d="M279.18 177.218l.57-.063v-.822l.506-.063v.885l.633-.063v.379l-.633.063v1.517c0 .316.063.442.443.379.063 0 .127-.063.19-.063v.379c-.127.063-.253.063-.38.126-.506.064-.76-.19-.76-.632v-1.643l-.569.063z"/></g><g><path fill="#153343" d="M281.333 175.763l.507-.063v1.58c.19-.316.506-.506.886-.569.57-.063.95.253.95.822v1.833l-.507.063v-1.707c0-.379-.19-.632-.633-.568-.443.063-.76.442-.76.821v1.643l-.506.064v-3.919z"/></g><g><path fill="#153343" d="M285.44 178.538l.38-.38c.253.254.633.38 1.076.38.633-.063.886-.38.886-.758 0-.443-.38-.506-.95-.57-.632-.062-1.265-.189-1.265-.947 0-.695.506-1.201 1.392-1.327.57-.064 1.013.063 1.33.442l-.38.38c-.19-.254-.507-.38-.95-.317-.57.063-.823.38-.823.759 0 .442.38.442.95.505.696.063 1.265.19 1.265.948 0 .695-.506 1.201-1.455 1.327-.57 0-1.076-.126-1.456-.442z"/></g><g><path fill="#153343" d="M288.983 174.683l.507-.063v1.58c.19-.316.506-.506.886-.569.57-.063.949.253.949.822v1.833l-.506.063v-1.707c0-.379-.19-.632-.633-.568-.443.063-.76.442-.76.821v1.643l-.506.064v-3.919z"/></g><g><path fill="#153343" d="M294.242 177.47c-.253.316-.57.505-1.013.569-.886.126-1.329-.38-1.329-1.201 0-.822.506-1.454 1.266-1.58.76-.127 1.202.442 1.202 1.137v.253l-1.962.316c.064.506.38.759.886.695.317-.063.507-.19.697-.442zm-.317-1.138c0-.442-.253-.758-.76-.695-.506.063-.759.442-.759.885z"/></g><g><path fill="#153343" d="M295 177.718v-3.855l.506-.063v3.855z"/></g><g><path fill="#153343" d="M296.46 175.186l-.57.064v-.38l.57-.063v-.442c0-.506.316-.822.822-.885h.317v.38h-.253c-.317.062-.443.189-.443.505v.379l.633-.063v.379l-.633.063v2.339l-.507.063v-2.339z"/></g><g><path fill="#153343" d="M299.37 177.154V173.3l2.468-.379v.442l-1.962.253v1.264l1.772-.253v.443l-1.772.253v1.264l2.026-.253v.442z"/></g><g><path fill="#153343" d="M302.467 173.99l.443-.062v.379c.19-.316.506-.506.886-.569.57-.063.95.253.95.822v1.832l-.507.064v-1.707c0-.379-.19-.632-.633-.569-.443.064-.76.443-.76.822v1.643l-.506.063v-2.717z"/></g><g><path fill="#153343" d="M306.58 177.085c-.444.063-.76 0-1.013-.126l.19-.38c.19.127.442.19.822.127.507-.063.886-.38.886-1.011v-.253c-.19.38-.506.569-.886.632-.696.126-1.139-.442-1.139-1.2 0-.76.443-1.454 1.203-1.518.38-.063.696.064.886.316v-.379l.443-.063v2.402c0 .884-.57 1.327-1.393 1.453zm.949-2.528c0-.505-.317-.885-.823-.821-.507.063-.823.568-.823 1.074 0 .506.253.885.823.822.506-.064.823-.57.823-1.075z"/></g><g><path fill="#153343" d="M308.8 172.409l.506-.063v-.506l-.506.063zm.506 3.35v-2.718l-.506.063v2.718z"/></g><g><path fill="#153343" d="M310.067 172.92l.443-.062v.379c.19-.316.506-.506.886-.569.57-.063.949.253.949.822v1.832l-.506.064v-1.707c0-.379-.19-.632-.633-.569-.443.064-.76.443-.76.822v1.643l-.506.063v-2.717z"/></g><g><path fill="#153343" d="M315.382 174.5c-.253.316-.57.505-1.013.569-.886.126-1.329-.38-1.329-1.201 0-.822.506-1.454 1.266-1.58.76-.127 1.202.442 1.202 1.137v.253l-1.962.253c.064.506.38.758.886.695.317-.063.507-.19.697-.442zm-.38-1.138c0-.442-.253-.758-.76-.695-.506.063-.759.442-.759.885z"/></g></g></g></g></svg>