<svg xmlns="http://www.w3.org/2000/svg" viewBox="0 0 355.5 355.4"><title>dotted</title><path d="M179.3,355.4v-1h1v1Zm-11.1-.2-1-.1.1-1,1,.1Zm23.1-.3-.1-1,1-.1.1,1Zm-35.1-.7-1-.1.1-1,1,.1Zm47-.6-.1-1,1-.1.1,1Zm-58.8-1.3-1-.2.2-1,1,.2Zm70.7-.8-.2-1,1-.2.2,1Zm-82.5-1.8-1-.3.3-1,1,.3Zm94.1-1.1-.3-1,1-.3.3,1Zm-105.6-2.4-1-.3.3-.9.9.3Zm117.1-1.3-.3-.9.9-.3.3.9ZM109.8,342l-.9-.4.4-.9.9.4Zm139.5-1.6-.4-.9.9-.4.4.9ZM98.8,337l-.9-.5.4-.9.9.4Zm161.3-1.8-.5-.9.9-.5.5.9ZM88.2,331.3l-.9-.5.5-.9.9.5Zm182.4-2-.5-.9.8-.5.5.8ZM78.1,324.9l-.8-.6.6-.8.8.6Zm202.5-2.3-.6-.8.8-.6.6.8ZM68.3,317.8l-.8-.6.6-.8.8.6Zm221.9-2.4-.6-.8.8-.6.6.8ZM59.1,310.1l-.7-.7.7-.7.7.7Zm240.1-2.7-.7-.7.7-.7.7.7ZM50.4,301.8l-.7-.7.7-.7.7.7Zm257.3-2.9-.7-.7.7-.7.7.7Zm-265.4-6-.6-.8.8-.6.6.8Zm273.3-3.1-.8-.6.6-.8.8.6ZM34.8,283.5l-.6-.8.8-.6.6.8Zm288.1-3.2-.8-.6.6-.8.8.6ZM28,273.6l-.5-.8.8-.5.5.8Zm301.5-3.4-.9-.5.5-.9.9.5ZM21.9,263.3l-.5-.9.9-.5.5.9Zm313.5-3.6-.9-.5.5-.9.9.5Zm-319-7.2-.4-.9.9-.4.4.9Zm324.2-3.6-.9-.4.4-.9.9.4ZM11.7,241.5l-.4-.9.9-.4.4.9Zm333.4-3.8-.9-.3.3-.9.9.3ZM7.8,230.1l-.3-1,1-.3.3,1Zm341-3.9-1-.3.3-1,1,.3ZM4.7,218.5l-.2-1,1-.2.2,1Zm346.9-4-1-.2.2-1,1,.2ZM2.3,206.7l-.2-1,1-.2.2,1Zm351.4-4-1-.1.1-1,1,.1ZM.8,194.8l-.1-1,1-.1.1,1ZM355,190.7l-1-.1.1-1,1,.1ZM0,182.8v-1H1v1Zm355.5-4.1h-1v-1h1ZM1.1,170.8H.1v-1h1Zm353.1-2.2-.1-1,1-.1.1,1ZM1.9,158.9l-1-.1.1-1,1,.1Zm351.3-2.2-.1-1,1-.1.1,1ZM3.6,147l-1-.2.2-1,1,.2Zm347.8-2.1-.2-1,1-.2.2,1ZM6.1,135.3l-1-.2.2-1,1,.2Zm342.7-2.1-.3-1,1-.3.3,1ZM9.3,123.8l-1-.3.3-1,1,.3Zm336.1-2.1-.3-.9.9-.3.3,1Zm-332-9.2-.9-.4.4-.9.9.4Zm327.8-2-.4-.9.9-.4.4.9ZM18.1,101.6l-.9-.4.4-.9.9.4Zm318.2-2-.4-.9.9-.4.4.9ZM23.7,90.9l-.9-.5.5-.9.9.5Zm307-1.8-.5-.9.9-.5.5.9ZM29.9,80.7l-.8-.5.6-.8.8.6ZM324.3,79l-.6-.8.8-.6.6.8ZM36.8,70.9l-.8-.6.6-.8.8.6Zm280.5-1.6-.6-.8.8-.6.6.8ZM44.4,61.7l-.8-.7.7-.8.8.7Zm265.3-1.6-.7-.7.7-.7.7.7ZM52.5,52.9l-.7-.7.7-.7.7.7Zm248.9-1.4-.7-.7.7-.7.7.7ZM61.3,44.7l-.7-.7.8-.7.7.8Zm231.3-1.3-.8-.6.6-.8.8.6ZM70.5,37.2l-.6-.8.8-.6.6.8Zm212.7-1.3-.8-.6.6-.8.8.6Zm-203-5.7-.6-.8.8-.5.5.8Zm193.2-1.1-.8-.5.5-.8.8.5ZM90.4,24l-.5-.9.9-.5.5.9Zm172.7-1.1-.9-.5.5-.9.9.5ZM101,18.4l-.4-.9.9-.4.4.9Zm151.5-.9-.9-.4.4-.9.9.4ZM111.9,13.6l-.4-.9.9-.4.4.9Zm129.6-.8-.9-.4.4-.9.9.4ZM123.2,9.5l-.3-1,1-.3.3,1Zm106.9-.6-1-.3.3-1,1,.3ZM134.7,6.2l-.2-1,1-.2.2,1Zm83.9-.5-1-.2.2-1,1,.2Zm-72.2-2-.2-1,1-.2.2,1Zm60.5-.4-1-.2.2-1,1,.2ZM158.2,2l-.1-1,1-.1.1,1ZM195,1.8l-1-.1.1-1,1,.1Zm-24.9-.7V.1h1v1Zm13-.1h-1V0h1Z" transform="translate(0 0)" fill="#153344"/></svg>