<svg width="468" height="448" viewBox="0 0 468 448" fill="none" xmlns="http://www.w3.org/2000/svg">
<g clip-path="url(#clip0)">
<path d="M252.2 84.6002L238.5 77.2002C243 76.6002 247.5 76.3002 251.9 76.5002L265.6 83.9002C261.2 83.8002 256.7 84.0002 252.2 84.6002Z" fill="#349C9B"/>
<path d="M265.6 83.9L251.9 76.5C253.9 76.6 255.9 76.7 257.9 77L271.6 84.4C269.6 84.2 267.6 84 265.6 83.9Z" fill="#349B9B"/>
<path d="M271.6 84.4L257.9 77C259.8 77.2 261.8 77.6 263.7 77.9L277.4 85.3C275.5 85 273.6 84.6 271.6 84.4Z" fill="#339B9A"/>
<path d="M277.399 85.4L263.699 78C264.999 78.3 266.299 78.6 267.599 78.9L281.299 86.3C279.999 85.9 278.699 85.6 277.399 85.4Z" fill="#339A99"/>
<path d="M281.3 86.3004L267.6 78.9004C268.9 79.2004 270.2 79.6004 271.5 80.0004L285.2 87.4004C283.9 87.0004 282.6 86.6004 281.3 86.3004Z" fill="#339998"/>
<path d="M285.2 87.4L271.5 80C272.8 80.4 274.1 80.8 275.3 81.3L289 88.7C287.7 88.2 286.4 87.8 285.2 87.4Z" fill="#329897"/>
<path d="M289.001 88.7003L275.301 81.3003C276.401 81.7003 277.501 82.2003 278.601 82.6003L292.301 90.0003C291.201 89.6003 290.101 89.1003 289.001 88.7003Z" fill="#329797"/>
<path d="M292.3 90.0001L278.6 82.6001C279.7 83.1001 280.8 83.6001 281.9 84.1001L295.6 91.5001C294.5 91.0001 293.4 90.5001 292.3 90.0001Z" fill="#329796"/>
<path d="M295.6 91.5001L281.9 84.1001C283 84.6001 284.1 85.2001 285.2 85.7001L298.9 93.1001C297.8 92.6001 296.7 92.0001 295.6 91.5001Z" fill="#319695"/>
<path d="M298.899 93.1002L285.199 85.7002C285.599 85.9002 285.999 86.1002 286.399 86.4002L300.099 93.8002C299.699 93.6002 299.299 93.4002 298.899 93.1002Z" fill="#319594"/>
<path d="M252.2 84.6002C337.9 72.6002 397 207.8 452.8 367L50.4004 423.6C104.1 243.5 170.3 96.1002 252.2 84.6002Z" fill="#46C2C2"/>
<path d="M50.4002 423.6L36.7002 416.2C37.7002 413 38.6002 409.8 39.6002 406.6L53.3002 414C52.3002 417.2 51.4002 420.4 50.4002 423.6Z" fill="#298382"/>
<path d="M53.3006 414L39.6006 406.6C47.6006 380 56.0006 354.2 64.6006 329.4L78.3006 336.8C69.7006 361.5 61.4006 387.4 53.3006 414Z" fill="#298483"/>
<path d="M78.3006 336.8L64.6006 329.4C70.4006 312.7 76.4006 296.5 82.5006 280.9L96.2006 288.3C90.1006 303.9 84.1006 320.1 78.3006 336.8Z" fill="#298584"/>
<path d="M96.2 288.3L82.5 280.9C87.1 269.2 91.7 257.9 96.4 247L110.1 254.4C105.4 265.3 100.7 276.6 96.2 288.3Z" fill="#2A8584"/>
<path d="M110.1 254.4L96.4004 247C100.1 238.4 103.9 230 107.7 221.8L121.4 229.2C117.5 237.3 113.8 245.7 110.1 254.4Z" fill="#2A8685"/>
<path d="M121.4 229.2L107.7 221.8C110.8 215.1 114 208.7 117.1 202.4L130.8 209.8C127.6 216 124.5 222.5 121.4 229.2Z" fill="#2A8786"/>
<path d="M130.801 209.7L117.101 202.3C119.701 197.1 122.401 192 125.101 187.1L138.801 194.5C136.101 199.5 133.401 204.5 130.801 209.7Z" fill="#2B8887"/>
<path d="M138.801 194.5L125.101 187.1C127.401 182.8 129.801 178.6 132.101 174.5L145.801 181.9C143.401 186 141.101 190.2 138.801 194.5Z" fill="#2B8988"/>
<path d="M145.801 182L132.101 174.6C134.201 170.9 136.401 167.3 138.601 163.7L152.301 171.1C150.101 174.6 147.901 178.2 145.801 182Z" fill="#2B8988"/>
<path d="M152.301 171.1L138.601 163.7C140.501 160.7 142.401 157.7 144.201 154.8L157.901 162.2C156.001 165.1 154.101 168 152.301 171.1Z" fill="#2C8A89"/>
<path d="M157.9 162.1L144.2 154.7C146 152 147.7 149.3 149.5 146.8L163.2 154.2C161.4 156.8 159.7 159.4 157.9 162.1Z" fill="#2C8B8A"/>
<path d="M163.2 154.2L149.5 146.8C151.1 144.5 152.7 142.2 154.3 140L168 147.4C166.4 149.7 164.8 151.9 163.2 154.2Z" fill="#2D8C8B"/>
<path d="M168 147.5L154.3 140.1C155.8 138 157.4 135.9 159 133.8L172.7 141.2C171.1 143.2 169.5 145.3 168 147.5Z" fill="#2D8C8C"/>
<path d="M172.6 141.2L158.9 133.8C160.2 132 161.6 130.3 163 128.6L176.7 136C175.3 137.7 174 139.4 172.6 141.2Z" fill="#2D8D8C"/>
<path d="M176.7 136L163 128.6C164.4 126.9 165.7 125.3 167.1 123.6L180.8 131C179.4 132.7 178 134.3 176.7 136Z" fill="#2E8E8D"/>
<path d="M180.8 131.1L167.1 123.7C168.4 122.2 169.6 120.8 170.9 119.3L184.6 126.7C183.3 128.1 182 129.6 180.8 131.1Z" fill="#2E8F8E"/>
<path d="M184.6 126.7L170.9 119.3C172.1 118 173.3 116.7 174.5 115.4L188.2 122.8C186.9 124.1 185.8 125.4 184.6 126.7Z" fill="#2E908F"/>
<path d="M188.1 122.8L174.4 115.4C175.6 114.1 176.8 112.9 178 111.7L191.7 119.1C190.5 120.3 189.3 121.5 188.1 122.8Z" fill="#2F9090"/>
<path d="M191.7 119.1L178 111.7C179.1 110.5 180.3 109.4 181.4 108.3L195.1 115.7C194 116.8 192.9 117.9 191.7 119.1Z" fill="#2F9190"/>
<path d="M195.1 115.7L181.4 108.3C182.5 107.3 183.6 106.3 184.6 105.3L198.3 112.7C197.3 113.7 196.2 114.7 195.1 115.7Z" fill="#2F9291"/>
<path d="M198.399 112.7L184.699 105.3C185.799 104.3 186.899 103.4 187.899 102.4L201.599 109.8C200.499 110.7 199.399 111.7 198.399 112.7Z" fill="#309392"/>
<path d="M201.6 109.8L187.9 102.4C189 101.5 190.1 100.5 191.2 99.7002L204.9 107.1C203.8 107.9 202.7 108.8 201.6 109.8Z" fill="#309493"/>
<path d="M204.899 107L191.199 99.6001C192.199 98.7001 193.299 97.9001 194.299 97.1001L207.999 104.5C206.999 105.4 205.899 106.2 204.899 107Z" fill="#319493"/>
<path d="M208.001 104.5L194.301 97.1002C195.401 96.3002 196.401 95.5002 197.501 94.7002L211.201 102.1C210.101 103 209.101 103.7 208.001 104.5Z" fill="#319594"/>
<path d="M211.2 102.2L197.5 94.8001C198.6 94.0001 199.6 93.3001 200.7 92.6001L214.4 100C213.3 100.7 212.3 101.4 211.2 102.2Z" fill="#319695"/>
<path d="M214.399 100L200.699 92.6C201.799 91.9 202.899 91.1 203.999 90.5L217.699 97.9C216.599 98.5 215.499 99.2 214.399 100Z" fill="#329796"/>
<path d="M217.7 97.8003L204 90.4003C205.2 89.7003 206.3 89.0003 207.5 88.3003L221.2 95.7003C220 96.4003 218.8 97.1003 217.7 97.8003Z" fill="#329797"/>
<path d="M221.1 95.7004L207.4 88.3004C208.6 87.6004 209.7 87.0004 210.9 86.4004L224.6 93.8004C223.5 94.4004 222.3 95.1004 221.1 95.7004Z" fill="#329897"/>
<path d="M224.6 93.8001L210.9 86.4001C212.1 85.8001 213.2 85.2001 214.4 84.6001L228.1 92.0001C227 92.6001 225.8 93.2001 224.6 93.8001Z" fill="#339998"/>
<path d="M228.1 92L214.4 84.6C216 83.9 217.5 83.2 219.1 82.5L232.8 89.9C231.3 90.6 229.7 91.3 228.1 92Z" fill="#339A99"/>
<path d="M232.8 89.9002L219.1 82.5002C220.7 81.9002 222.3 81.3002 223.8 80.7002L237.5 88.1002C236 88.7002 234.4 89.3002 232.8 89.9002Z" fill="#339B9A"/>
<path d="M237.6 88.2001L223.9 80.8001C226.4 79.9001 229 79.2001 231.5 78.6001L245.2 86.0001C242.6 86.5001 240.1 87.3001 237.6 88.2001Z" fill="#349B9B"/>
<path d="M245.2 85.9002L231.5 78.5002C233.8 77.9002 236.2 77.5002 238.5 77.2002L252.2 84.6002C249.9 84.9002 247.5 85.4002 245.2 85.9002Z" fill="#349C9B"/>
<path d="M467.3 382.4C308.8 406.7 180.6 422.3 22.0996 446.5V84.5" stroke="#143343" stroke-miterlimit="10"/>
<path d="M255.799 83.3002L242.699 77.1002V44.7002L255.799 50.9002V83.3002Z" fill="#143343"/>
<path d="M259.701 394.2L255.801 394.7V51.2998L260.101 50.7998L259.701 394.2Z" fill="#1B4454"/>
<path d="M255.799 51.2998L242.699 44.6998L246.999 44.2998L260.099 50.7998L255.799 51.2998Z" fill="#1B4454"/>
<path d="M296.1 321.1L297.9 320.9V330C297.9 333 295.8 335.3 292.4 335.7C289.2 336.1 286.9 334.6 286.9 331.5V322.4L288.7 322.1V331.1C288.7 333.2 290.1 334.4 292.4 334.1C294.7 333.8 296.1 332.3 296.1 330.1V321.1Z" fill="#143343"/>
<path d="M300.801 324.6L302.501 324.4V325.8C303.101 324.7 304.201 323.9 305.601 323.7C307.701 323.4 309.001 324.6 309.001 326.6V333.1L307.301 333.3V327.2C307.301 325.9 306.601 325.1 305.101 325.3C303.501 325.5 302.501 326.8 302.501 328.3V334.1L300.801 334.3V324.6Z" fill="#143343"/>
<path d="M311.301 328C311.301 325.2 313.001 322.7 315.701 322.3C317.001 322.1 318.101 322.5 318.901 323.5V317.9L320.601 317.7V331.5L318.901 331.7V330.1C318.101 331.4 316.901 332.1 315.601 332.3C312.901 332.7 311.301 330.7 311.301 328ZM318.901 326.9C318.901 324.8 317.801 323.5 315.901 323.8C313.901 324.1 313.001 325.9 313.001 327.8C313.001 329.6 313.901 331.2 315.901 330.9C317.801 330.6 318.901 328.9 318.901 326.9Z" fill="#143343"/>
<path d="M331.201 328.6C330.301 329.7 329.101 330.5 327.501 330.7C324.501 331.1 322.701 329.4 322.701 326.3C322.701 323.4 324.401 321 327.201 320.6C330.001 320.2 331.501 322.1 331.501 324.7C331.501 325 331.501 325.4 331.401 325.7L324.401 326.7C324.601 328.5 325.601 329.4 327.401 329.2C328.501 329.1 329.301 328.5 329.801 327.7L331.201 328.6ZM329.901 324.6C329.801 323 329.001 321.9 327.301 322.1C325.601 322.3 324.701 323.7 324.501 325.3L329.901 324.6Z" fill="#143343"/>
<path d="M333.701 320L335.401 319.8V321.3C336.001 320 336.901 319.4 337.901 319.3C338.201 319.3 338.501 319.3 338.701 319.3V321C338.501 321 338.201 320.9 337.801 321C336.201 321.2 335.401 322.5 335.401 323.7V329.6L333.701 329.8V320Z" fill="#143343"/>
<path d="M339.5 327.6L340.5 326.3C341.3 327 342.4 327.2 343.6 327.1C345.1 326.9 345.9 326.2 345.9 325.4C345.9 324.5 344.9 324.4 343.3 324.3C341.5 324.2 339.9 323.8 339.9 322C339.9 320.3 341.2 318.9 343.7 318.5C345.2 318.3 346.5 318.6 347.5 319.4L346.5 320.7C345.7 320.1 344.8 319.8 343.7 320C342.4 320.2 341.7 320.9 341.7 321.6C341.7 322.5 342.6 322.6 344.2 322.7C346 322.8 347.7 323.1 347.7 325C347.7 326.8 346.3 328.2 343.6 328.6C341.9 328.7 340.5 328.4 339.5 327.6Z" fill="#143343"/>
<path d="M348.4 317.9L350.3 317.6V314.5L352 314.3V317.4L354.3 317.1V318.5L352 318.8V324.1C352 325.3 352.3 325.7 353.6 325.6C353.9 325.6 354.2 325.5 354.4 325.4V326.8C354 326.9 353.6 327.1 353 327.2C351.2 327.5 350.3 326.6 350.3 324.9V319L348.4 319.3V317.9Z" fill="#143343"/>
<path d="M355.5 321.7C355.5 318.9 357.2 316.4 360.3 316C363.3 315.6 365 317.6 365 320.4C365 323.2 363.3 325.7 360.3 326.1C357.3 326.5 355.5 324.5 355.5 321.7ZM357.3 321.5C357.3 323.4 358.3 324.9 360.3 324.6C362.3 324.3 363.3 322.5 363.3 320.6C363.3 318.7 362.3 317.2 360.3 317.4C358.3 317.8 357.3 319.6 357.3 321.5Z" fill="#143343"/>
<path d="M366.6 320.2C366.6 317.3 368.3 314.9 371.3 314.5C373.1 314.2 374.4 314.9 375.2 316.2L373.8 317.2C373.3 316.3 372.5 315.8 371.3 315.9C369.4 316.2 368.4 317.9 368.4 319.9C368.4 321.8 369.4 323.3 371.4 323C372.7 322.8 373.5 322.1 373.9 321.1L375.3 321.7C374.6 323.1 373.2 324.2 371.4 324.5C368.3 325 366.6 323.1 366.6 320.2Z" fill="#143343"/>
<path d="M380 318.8L378.6 319V323.3L376.9 323.5V309.7L378.6 309.5V317.6L380.1 317.4L382.8 313.1L384.8 312.8L381.5 317.9L385 322.4L382.9 322.7L380 318.8Z" fill="#143343"/>
<path d="M394.1 319.8C393.2 320.9 392 321.7 390.4 321.9C387.4 322.3 385.6 320.6 385.6 317.5C385.6 314.6 387.3 312.2 390.1 311.8C392.9 311.4 394.4 313.3 394.4 315.9C394.4 316.2 394.4 316.6 394.3 316.9L387.3 317.9C387.5 319.7 388.5 320.6 390.3 320.4C391.4 320.3 392.2 319.7 392.7 318.9L394.1 319.8ZM392.8 315.8C392.7 314.2 391.9 313.1 390.2 313.3C388.5 313.5 387.6 314.9 387.4 316.5L392.8 315.8Z" fill="#143343"/>
<path d="M396 316.1C396 313.3 397.7 310.8 400.4 310.4C401.7 310.2 402.8 310.6 403.6 311.6V306L405.3 305.8V319.6L403.6 319.8V318.2C402.8 319.5 401.6 320.2 400.3 320.4C397.6 320.9 396 318.8 396 316.1ZM403.7 315C403.7 312.9 402.6 311.6 400.7 311.9C398.7 312.2 397.8 314 397.8 315.9C397.8 317.7 398.7 319.3 400.7 319C402.6 318.7 403.7 317 403.7 315Z" fill="#143343"/>
<path d="M120.4 347.2C124.5 346.6 126.9 349.4 126.9 353.4C126.9 357.3 124.7 360.8 120.5 361.4C116.4 362 114 359.2 114 355.2C114 351.4 116.2 347.8 120.4 347.2ZM120.4 359.9C123.5 359.5 125 356.7 125 353.7C125 350.8 123.6 348.4 120.4 348.8C117.3 349.2 115.8 352 115.8 355C115.8 357.9 117.3 360.3 120.4 359.9Z" fill="#143343"/>
<path d="M137.5 349.2L133.7 359.4L131.9 359.7L128.1 350.6L130 350.3L132.8 357.6L135.7 349.5L137.5 349.2Z" fill="#143343"/>
<path d="M146.8 356.2C145.9 357.3 144.7 358.1 143.1 358.3C140.1 358.7 138.3 357 138.3 353.9C138.3 351 140 348.6 142.8 348.2C145.6 347.8 147.1 349.7 147.1 352.3C147.1 352.6 147.1 353 147 353.3L140 354.3C140.2 356.1 141.2 357 143 356.8C144.1 356.7 144.9 356.1 145.4 355.3L146.8 356.2ZM145.5 352.2C145.4 350.6 144.6 349.5 142.9 349.7C141.2 349.9 140.3 351.3 140.1 352.9L145.5 352.2Z" fill="#143343"/>
<path d="M149.3 347.5L151 347.3V348.8C151.6 347.5 152.5 346.9 153.5 346.8C153.8 346.8 154.1 346.8 154.3 346.8V348.5C154.1 348.5 153.8 348.4 153.4 348.5C151.8 348.7 151 350 151 351.2V357.1L149.3 357.3V347.5Z" fill="#143343"/>
<path d="M155.1 355.1L156.1 353.8C156.9 354.5 158 354.7 159.2 354.6C160.7 354.4 161.5 353.7 161.5 352.9C161.5 352 160.5 351.9 158.9 351.8C157.1 351.7 155.5 351.3 155.5 349.5C155.5 347.8 156.8 346.4 159.3 346C160.8 345.8 162.1 346.1 163.1 346.9L162.1 348.2C161.3 347.6 160.4 347.3 159.3 347.5C158 347.7 157.3 348.4 157.3 349.1C157.3 350 158.2 350.1 159.8 350.2C161.6 350.3 163.3 350.6 163.3 352.5C163.3 354.3 161.9 355.7 159.2 356.1C157.4 356.3 156.1 355.9 155.1 355.1Z" fill="#143343"/>
<path d="M164 345.5L165.9 345.2V342.1L167.6 341.9V345L169.9 344.7V346.1L167.6 346.4V351.7C167.6 352.9 167.9 353.3 169.2 353.2C169.5 353.2 169.8 353.1 170 353V354.4C169.6 354.5 169.2 354.7 168.6 354.8C166.8 355.1 165.9 354.2 165.9 352.5V346.8L164 347.1V345.5Z" fill="#143343"/>
<path d="M171.1 349.3C171.1 346.5 172.8 344 175.9 343.6C178.9 343.2 180.6 345.2 180.6 348C180.6 350.8 178.9 353.3 175.9 353.7C172.8 354.1 171.1 352.1 171.1 349.3ZM172.8 349.1C172.8 351 173.8 352.5 175.8 352.2C177.8 351.9 178.8 350.1 178.8 348.2C178.8 346.3 177.8 344.8 175.8 345C173.8 345.4 172.8 347.2 172.8 349.1Z" fill="#143343"/>
<path d="M182.199 347.8C182.199 344.9 183.899 342.5 186.899 342.1C188.699 341.8 189.999 342.5 190.799 343.8L189.399 344.8C188.899 343.9 188.099 343.4 186.899 343.5C184.999 343.8 183.999 345.5 183.999 347.5C183.999 349.4 184.999 350.9 186.999 350.6C188.299 350.4 189.099 349.7 189.499 348.7L190.899 349.3C190.199 350.7 188.799 351.8 186.999 352.1C183.899 352.6 182.199 350.6 182.199 347.8Z" fill="#143343"/>
<path d="M195.6 346.4L194.2 346.6V350.9L192.5 351.1V337.3L194.2 337.1V345.2L195.7 345L198.4 340.7L200.4 340.4L197.1 345.5L200.6 350L198.5 350.3L195.6 346.4Z" fill="#143343"/>
<path d="M209.699 347.4C208.799 348.5 207.599 349.3 205.999 349.5C202.999 349.9 201.199 348.2 201.199 345.1C201.199 342.2 202.899 339.8 205.699 339.4C208.499 339 209.999 340.9 209.999 343.5C209.999 343.8 209.999 344.2 209.899 344.5L202.899 345.5C203.099 347.3 204.099 348.2 205.899 348C206.999 347.9 207.799 347.3 208.299 346.5L209.699 347.4ZM208.399 343.3C208.299 341.7 207.499 340.6 205.799 340.8C204.099 341 203.199 342.4 202.999 344L208.399 343.3Z" fill="#143343"/>
<path d="M211.6 343.7C211.6 340.9 213.3 338.4 216 338C217.3 337.8 218.4 338.2 219.2 339.2V333.6L220.9 333.4V347.2L219.2 347.4V345.8C218.4 347.1 217.2 347.8 215.9 348C213.2 348.4 211.6 346.4 211.6 343.7ZM219.3 342.6C219.3 340.5 218.2 339.2 216.3 339.5C214.3 339.8 213.4 341.6 213.4 343.5C213.4 345.3 214.3 346.9 216.3 346.6C218.1 346.3 219.3 344.6 219.3 342.6Z" fill="#143343"/>
<path d="M185 29.6001V11.9001L187.3 11.6001V29.3001L185 29.6001Z" fill="#143343"/>
<path d="M190.4 22.7998C190.4 19.1998 192.5 15.9998 196 15.5998C197.6 15.3998 199.1 15.8998 200 17.1998V10.0998L202.2 9.7998V27.4998L200.1 27.7998V25.7998C199.1 27.3998 197.6 28.3998 195.9 28.5998C192.4 28.8998 190.4 26.2998 190.4 22.7998ZM200.1 21.4998C200.1 18.7998 198.7 17.1998 196.3 17.4998C193.7 17.7998 192.6 20.0998 192.6 22.4998C192.6 24.7998 193.8 26.7998 196.3 26.4998C198.7 26.1998 200.1 24.0998 200.1 21.4998Z" fill="#143343"/>
<path d="M215.8 23.9999C214.7 25.3999 213.1 26.2999 211.1 26.5999C207.2 27.0999 205 24.7999 205 20.8999C205 17.1999 207.2 14.1999 210.8 13.7999C214.3 13.3999 216.3 15.7999 216.3 19.1999C216.3 19.5999 216.3 20.0999 216.2 20.4999L207.3 21.5999C207.5 23.8999 208.9 25.0999 211.2 24.7999C212.6 24.5999 213.6 23.9999 214.3 22.8999L215.8 23.9999ZM214.1 18.8999C214 16.8999 212.9 15.3999 210.8 15.6999C208.6 15.9999 207.5 17.6999 207.3 19.7999L214.1 18.8999Z" fill="#143343"/>
<path d="M226.1 24.4999V22.6999C225.4 23.9999 224.1 24.9999 222.4 25.1999C220 25.4999 218.4 24.0999 218.4 21.9999C218.4 20.3999 219.2 19.1999 220.8 18.4999C222.2 17.8999 224.2 17.5999 226.2 17.1999V16.0999C226.2 14.7999 225.3 13.7999 223.5 13.9999C221.9 14.1999 221 14.9999 220.6 16.1999L218.8 15.4999C219.5 13.5999 221.3 12.3999 223.5 12.0999C226.4 11.6999 228.3 12.9999 228.3 15.6999V24.0999L226.1 24.4999ZM226.1 19.5999V18.8999C225.3 18.9999 224 19.2999 222.9 19.4999C221.5 19.8999 220.5 20.3999 220.5 21.5999C220.5 22.6999 221.4 23.3999 222.8 23.1999C224.8 23.0999 226.1 21.3999 226.1 19.5999Z" fill="#143343"/>
<path d="M231.9 23.7999V6.1999L234.1 5.8999V23.5999L231.9 23.7999Z" fill="#143343"/>
<path d="M251.001 3.60001C256.301 3.00001 259.301 6.60001 259.301 11.6C259.301 16.6 256.401 21.1 251.101 21.7C245.801 22.3 242.801 18.7 242.801 13.7C242.801 8.70001 245.601 4.20001 251.001 3.60001ZM251.001 19.7C255.001 19.2 256.901 15.7 256.901 11.9C256.901 8.20001 255.101 5.10001 251.001 5.60001C247.001 6.10001 245.101 9.60001 245.101 13.4C245.101 17 247.001 20.2 251.001 19.7Z" fill="#143343"/>
<path d="M262.3 7.69982L264.4 7.39982V9.29982C265.2 7.69982 266.4 6.89982 267.6 6.79982C268 6.69982 268.4 6.79982 268.6 6.79982V8.99982C268.4 8.99982 268 8.89982 267.4 8.99982C265.4 9.29982 264.3 10.7998 264.3 12.2998V19.7998L262.1 20.0998V7.69982H262.3Z" fill="#143343"/>
<path d="M270.1 13C270.1 9.4 272.2 6.2 275.7 5.8C277.3 5.6 278.8 6.1 279.7 7.4V0.3L282 0V17.7L279.9 18V16C278.9 17.6 277.4 18.6 275.7 18.8C272.1 19.1 270.1 16.5 270.1 13ZM279.9 11.7C279.9 9 278.5 7.4 276.1 7.7C273.5 8 272.4 10.3 272.4 12.7C272.4 15 273.6 17 276.1 16.7C278.4 16.4 279.9 14.4 279.9 11.7Z" fill="#143343"/>
<path d="M295.601 14.2001C294.501 15.6001 292.901 16.5001 290.901 16.8001C287.001 17.3001 284.801 15.0001 284.801 11.1001C284.801 7.40008 287.001 4.40008 290.601 4.00008C294.101 3.60008 296.101 6.00008 296.101 9.40008C296.101 9.80008 296.101 10.3001 296.001 10.7001L287.101 11.8001C287.301 14.1001 288.701 15.3001 291.001 15.0001C292.401 14.8001 293.401 14.2001 294.101 13.1001L295.601 14.2001ZM293.901 9.10008C293.801 7.10008 292.701 5.60008 290.601 5.90008C288.401 6.20008 287.301 7.90008 287.101 10.0001L293.901 9.10008Z" fill="#143343"/>
<path d="M298.8 3.29991L300.9 2.99991V4.89991C301.7 3.29991 302.9 2.49991 304.1 2.39991C304.5 2.29991 304.9 2.39991 305.1 2.39991V4.49991C304.9 4.49991 304.5 4.39991 303.9 4.49991C301.9 4.79991 300.8 6.29991 300.8 7.79991V15.2999L298.6 15.5999V3.29991H298.8Z" fill="#143343"/>
<path d="M412.2 338.6L289.1 356" stroke="#143343" stroke-miterlimit="10"/>
<path d="M98.2998 383L221.3 365.6" stroke="#143343" stroke-miterlimit="10"/>
<path d="M402.699 332.2L411.999 338.7L404.699 348" stroke="#143343" stroke-miterlimit="10"/>
<path d="M107.1 389.2L97.7998 382.8L105.1 373.5" stroke="#143343" stroke-miterlimit="10"/>
<path d="M0.200195 282.8C0.200195 280 1.8002 277.6 4.6002 277.3C7.4002 277 9.1002 278.9 9.1002 281.8V285.4L14.0002 284.8V286.6L0.200195 288.3V282.8ZM7.6002 281.8C7.6002 280.1 6.6002 278.9 4.7002 279.1C2.8002 279.3 1.8002 280.8 1.8002 282.5V286.2L7.6002 285.5V281.8Z" fill="black"/>
<path d="M4.4002 275.5V273.8L5.9002 273.6C4.7002 273.1 4.2002 272.3 4.2002 271.3C4.2002 271 4.3002 270.7 4.3002 270.5L6.0002 270.3C5.9002 270.5 5.9002 270.8 5.9002 271.2C5.9002 272.8 7.0002 273.5 8.2002 273.3L14.1002 272.6V274.3L4.4002 275.5Z" fill="black"/>
<path d="M9.2002 268.8C6.4002 269.1 4.2002 267.7 4.2002 264.7C4.2002 261.7 6.5002 259.7 9.2002 259.3C12.0002 259 14.2002 260.4 14.2002 263.4C14.2002 266.5 12.0002 268.5 9.2002 268.8ZM9.2002 267.1C11.1002 266.9 12.8002 265.7 12.8002 263.7C12.8002 261.7 11.1002 260.9 9.2002 261.1C7.3002 261.3 5.6002 262.6 5.6002 264.6C5.6002 266.5 7.3002 267.3 9.2002 267.1Z" fill="black"/>
<path d="M5.8 256.8V258.7L4.4 258.9V257L2.7 257.2C1 257.4 0 256.6 0 254.8C0 254.4 0.1 254 0.1 253.7L1.5 253.5C1.5 253.7 1.4 254 1.4 254.2C1.4 255.2 1.9 255.5 2.8 255.4L4.3 255.2V249.6L14 248.4V250.1L5.8 251.1V255L14 254V255.7L5.8 256.8ZM0.2 252V250.1L2.1 249.9V251.8L0.2 252Z" fill="black"/>
<path d="M4.3998 248.1V246.2L1.2998 246.6V244.9L4.3998 244.5V242.2L5.7998 242V244.3L11.0998 243.6C12.2998 243.5 12.7998 243.1 12.7998 241.8C12.7998 241.5 12.7998 241.2 12.6998 241.1L14.0998 240.9C14.1998 241.3 14.2998 241.7 14.2998 242.2C14.2998 244 13.2998 245 11.5998 245.2L5.7998 246V247.9L4.3998 248.1Z" fill="black"/>
<path d="M208.6 429.7L210.4 429.5V438.6C210.4 441.6 208.3 443.8 204.9 444.2C201.7 444.6 199.4 443 199.4 439.9V430.8L201.2 430.6V439.6C201.2 441.7 202.6 442.9 204.9 442.6C207.2 442.3 208.6 440.8 208.6 438.7V429.7Z" fill="black"/>
<path d="M213.301 433.3L215.001 433.1V434.5C215.601 433.5 216.701 432.7 218.101 432.5C220.201 432.2 221.501 433.4 221.501 435.5V442L219.801 442.2V436C219.801 434.7 219.101 433.8 217.601 434C216.001 434.2 215.001 435.4 215.001 437V442.8L213.301 443V433.3Z" fill="black"/>
<path d="M224.301 427.8L226.201 427.6V429.5L224.301 429.7V427.8ZM224.401 441.6V431.9L226.101 431.7V441.4L224.401 441.6Z" fill="black"/>
<path d="M227.701 431.5L229.601 431.3V428.2L231.301 428V431.1L233.601 430.8V432.2L231.301 432.5V437.8C231.301 439 231.601 439.4 232.901 439.3C233.201 439.3 233.501 439.2 233.701 439.1V440.5C233.301 440.6 232.901 440.8 232.301 440.8C230.501 441 229.601 440.1 229.601 438.4V432.7L227.701 432.9V431.5Z" fill="black"/>
<path d="M234.6 439.1L235.6 437.8C236.4 438.5 237.5 438.8 238.7 438.6C240.2 438.4 241 437.8 241 436.9C241 436 240 435.9 238.4 435.7C236.6 435.5 235 435.2 235 433.3C235 431.6 236.3 430.2 238.8 429.9C240.3 429.7 241.6 430 242.6 430.8L241.6 432.1C240.8 431.4 239.9 431.2 238.8 431.3C237.5 431.5 236.8 432.1 236.8 432.9C236.8 433.8 237.7 433.9 239.3 434C241.1 434.2 242.8 434.5 242.8 436.4C242.8 438.2 241.4 439.6 238.7 439.9C237 440.2 235.7 439.9 234.6 439.1Z" fill="black"/>
<path d="M248.301 436.7L249.701 435.4C250.601 436.4 252.001 436.9 253.501 436.7C255.801 436.4 256.701 435.4 256.701 434C256.701 432.5 255.401 432.3 253.301 432C251.001 431.7 248.801 431.3 248.801 428.6C248.801 426.2 250.701 424.4 253.701 424C255.601 423.8 257.301 424.3 258.501 425.6L257.101 426.9C256.401 426 255.301 425.4 253.701 425.6C251.701 425.8 250.701 426.9 250.701 428.2C250.701 429.7 252.001 429.9 254.101 430.2C256.501 430.6 258.701 431 258.701 433.6C258.701 436 256.801 437.9 253.601 438.3C251.401 438.5 249.601 438 248.301 436.7Z" fill="black"/>
<path d="M259.5 427.6L261.4 427.4V424.3L263.1 424.1V427.2L265.4 426.9V428.3L263.1 428.6V433.9C263.1 435.1 263.4 435.5 264.7 435.4C265 435.4 265.3 435.3 265.5 435.2V436.6C265.1 436.7 264.7 436.9 264.1 436.9C262.3 437.1 261.4 436.2 261.4 434.5V428.8L259.5 429V427.6Z" fill="black"/>
<path d="M266.6 431.6C266.6 428.8 268.3 426.3 271.4 426C274.4 425.6 276.1 427.7 276.1 430.5C276.1 433.3 274.4 435.7 271.4 436.1C268.3 436.4 266.6 434.4 266.6 431.6ZM268.3 431.4C268.3 433.3 269.3 434.8 271.3 434.6C273.3 434.4 274.3 432.6 274.3 430.7C274.3 428.8 273.3 427.2 271.3 427.5C269.3 427.7 268.3 429.4 268.3 431.4Z" fill="black"/>
<path d="M277.701 430.3C277.701 427.4 279.401 425 282.401 424.6C284.201 424.4 285.501 425.1 286.301 426.4L284.901 427.4C284.401 426.5 283.601 425.9 282.401 426.1C280.501 426.3 279.501 428 279.501 430C279.501 431.9 280.501 433.4 282.501 433.2C283.801 433 284.601 432.3 285.001 431.3L286.401 431.9C285.701 433.3 284.301 434.4 282.501 434.6C279.401 435 277.701 433.1 277.701 430.3Z" fill="black"/>
<path d="M291.1 429.1L289.7 429.3V433.6L288 433.8V420L289.7 419.8V427.9L291.2 427.7L293.9 423.4L295.9 423.2L292.6 428.3L296.1 432.9L294 433.2L291.1 429.1Z" fill="black"/>
<path d="M305.201 430.3C304.301 431.4 303.101 432.1 301.501 432.3C298.501 432.7 296.701 430.9 296.701 427.8C296.701 424.9 298.401 422.6 301.201 422.2C304.001 421.9 305.501 423.7 305.501 426.4C305.501 426.7 305.501 427.1 305.401 427.4L298.401 428.3C298.601 430.1 299.601 431 301.401 430.8C302.501 430.7 303.301 430.2 303.801 429.3L305.201 430.3ZM303.901 426.3C303.801 424.7 303.001 423.6 301.301 423.8C299.601 424 298.701 425.3 298.501 427L303.901 426.3Z" fill="black"/>
<path d="M307.1 426.7C307.1 423.9 308.8 421.4 311.5 421C312.8 420.8 313.9 421.3 314.7 422.2V416.6L316.4 416.4V430.2L314.7 430.4V428.8C313.9 430.1 312.7 430.8 311.4 431C308.7 431.4 307.1 429.4 307.1 426.7ZM314.8 425.7C314.8 423.6 313.7 422.3 311.8 422.5C309.8 422.7 308.9 424.6 308.9 426.4C308.9 428.2 309.8 429.8 311.8 429.6C313.6 429.3 314.8 427.7 314.8 425.7Z" fill="black"/>
</g>
<defs>
<clipPath id="clip0">
<rect width="467.3" height="447.1" fill="white"/>
</clipPath>
</defs>
</svg>
