<svg id="chart" xmlns="http://www.w3.org/2000/svg" viewBox="0 0 548 296">
  <title>graph</title>
  <polyline id="arrow-right" points="285.01 213.13 455.01 213.13 448.01 224 455.01 213.13 448.09 202" fill="none" stroke="#153344" stroke-linejoin="round"/>
  <path id="parabola" d="M.91,295S119.08,40,273.63,40,529.32,257.65,529.32,257.65l-19.39-4.33,19.39,4.33,4.54-20.4" transform="translate(0.09 0)" fill="none" stroke="#34bdbf" stroke-linecap="round" stroke-linejoin="round" stroke-width="2"/>
  <path id="axes" d="M.91,3V295h547" transform="translate(0.09 0)" fill="none" stroke="#153344" stroke-miterlimit="10"/>
  <polyline id="arrow-left" points="265 213.13 95 213.13 103 224 95 213.13 102.9 202" fill="none" stroke="#153344" stroke-linejoin="round"/>
  <path id="word-left" d="M179.51,186.23v6.05a3.68,3.68,0,0,0,.52,2.12,2.66,2.66,0,0,0,3.64,0,3.61,3.61,0,0,0,.52-2.12v-6.05h1.18V192a7.58,7.58,0,0,1-.2,1.84,3.14,3.14,0,0,1-.6,1.31,2.54,2.54,0,0,1-1.11.77,5.62,5.62,0,0,1-3.3,0,2.5,2.5,0,0,1-1.07-.77,3.22,3.22,0,0,1-.58-1.31,8.75,8.75,0,0,1-.17-1.84v-5.77Zm8.28,9.77v-7.22h1.12V190H189a2.45,2.45,0,0,1,.74-1,2.19,2.19,0,0,1,1.31-.36,2.22,2.22,0,0,1,1.76.73,2.85,2.85,0,0,1,.66,2V196h-1.12v-4.44c0-1.29-.55-1.94-1.64-1.94a2.48,2.48,0,0,0-.66.08,2.18,2.18,0,0,0-.56.25,1.19,1.19,0,0,0-.54,1v5Zm12.57-1.18h-.05a2.21,2.21,0,0,1-2.12,1.35,2.68,2.68,0,0,1-2.15-1,3.58,3.58,0,0,1-.59-1.19,6.19,6.19,0,0,1,0-3.14,3.58,3.58,0,0,1,.59-1.19,2.73,2.73,0,0,1,.93-.76,2.85,2.85,0,0,1,1.22-.26,2.44,2.44,0,0,1,1.29.33,2.08,2.08,0,0,1,.83,1h.05v-4.31h1.12V196h-1.12Zm-1.86.34a2.44,2.44,0,0,0,.71-.1,1.7,1.7,0,0,0,.61-.28,1.57,1.57,0,0,0,.39-.46,1.36,1.36,0,0,0,.15-.63V191a1,1,0,0,0-.15-.54,1.41,1.41,0,0,0-.39-.45,1.7,1.7,0,0,0-.61-.28,2.24,2.24,0,0,0-2.21.49,2.2,2.2,0,0,0-.54,1.55V193a2.26,2.26,0,0,0,.54,1.57A2,2,0,0,0,198.5,195.16Zm8.08,1a3.09,3.09,0,0,1-1.34-.27,3.06,3.06,0,0,1-1-.75,3.64,3.64,0,0,1-.65-1.19,5.38,5.38,0,0,1,0-3.13,3.64,3.64,0,0,1,.65-1.19,3,3,0,0,1,1-.77,3.24,3.24,0,0,1,1.34-.26,3.05,3.05,0,0,1,1.3.26,2.84,2.84,0,0,1,1,.75,3.07,3.07,0,0,1,.62,1.1,4.3,4.3,0,0,1,.22,1.42v.53h-5.19V193a2.24,2.24,0,0,0,.56,1.56,2.06,2.06,0,0,0,.67.46,2.37,2.37,0,0,0,.91.17,2.09,2.09,0,0,0,2-1.25l.8.58a2.89,2.89,0,0,1-1.1,1.2,3.29,3.29,0,0,1-1.79.45Zm0-6.62a2,2,0,0,0-.84.16,1.92,1.92,0,0,0-1.08,1.15,2.57,2.57,0,0,0-.15.87v.1h4v-.16a2.28,2.28,0,0,0-.53-1.54,1.77,1.77,0,0,0-1.4-.57Zm5,6.45v-7.22h1.12v1.33h.07a2.05,2.05,0,0,1,2.08-1.33h.44v1.12h-.66a2.48,2.48,0,0,0-1.43.35,1,1,0,0,0-.5.85V196Zm7.31.17a3.47,3.47,0,0,1-1.7-.38,4.13,4.13,0,0,1-1.16-1l.8-.64a3.55,3.55,0,0,0,.94.83,2.49,2.49,0,0,0,1.2.28,1.84,1.84,0,0,0,1.11-.31,1,1,0,0,0,.4-.87,1,1,0,0,0-.28-.71,1.51,1.51,0,0,0-1-.42l-.57-.09a4.9,4.9,0,0,1-.92-.21,3,3,0,0,1-.75-.39,1.85,1.85,0,0,1-.49-.62,2.41,2.41,0,0,1,0-1.79,2,2,0,0,1,.53-.67,2.18,2.18,0,0,1,.83-.39,3.36,3.36,0,0,1,1-.14,3.11,3.11,0,0,1,1.47.31,3.15,3.15,0,0,1,1,.85l-.74.67a2.24,2.24,0,0,0-.7-.6,2.13,2.13,0,0,0-1.16-.28,1.59,1.59,0,0,0-1.07.31,1,1,0,0,0-.35.81.89.89,0,0,0,.35.77,2.78,2.78,0,0,0,1,.35l.56.08a3.09,3.09,0,0,1,1.71.7,1.83,1.83,0,0,1,.5,1.33,2.07,2.07,0,0,1-.71,1.66,3,3,0,0,1-1.83.57ZM225,196a1.23,1.23,0,0,1-.9-.32,1.31,1.31,0,0,1-.29-.87v-5.05h-1.19v-1h.67a.66.66,0,0,0,.49-.14.75.75,0,0,0,.14-.52v-1.35h1v2h1.58v1h-1.58V195h1.47v1Zm6,.17a3.2,3.2,0,0,1-1.33-.27,3.06,3.06,0,0,1-1-.75A3.9,3.9,0,0,1,228,194a5.38,5.38,0,0,1,0-3.13,3.66,3.66,0,0,1,.66-1.19,3,3,0,0,1,1-.77,3.36,3.36,0,0,1,1.33-.26,3.26,3.26,0,0,1,1.31.26,3,3,0,0,1,1,.77,3.42,3.42,0,0,1,.67,1.19,5.22,5.22,0,0,1,0,3.13,3.89,3.89,0,0,1-.67,1.19,2.78,2.78,0,0,1-2.3,1Zm0-1a2,2,0,0,0,1.48-.56,2.26,2.26,0,0,0,.58-1.7v-1a2.38,2.38,0,0,0-.58-1.71,2,2,0,0,0-1.48-.56,2.06,2.06,0,0,0-1.49.56,2.33,2.33,0,0,0-.57,1.71v1a2.31,2.31,0,0,0,.57,1.7A2,2,0,0,0,231,195.17Zm7.79,1a3.18,3.18,0,0,1-1.36-.27,2.75,2.75,0,0,1-1-.75,3.59,3.59,0,0,1-.63-1.19,6,6,0,0,1,0-3.14,3.59,3.59,0,0,1,.63-1.19,2.89,2.89,0,0,1,1-.76,3.33,3.33,0,0,1,1.36-.26,2.78,2.78,0,0,1,2.72,1.69l-.94.48a1.64,1.64,0,0,0-.64-.87,2,2,0,0,0-1.12-.31,2.06,2.06,0,0,0-.88.17,1.66,1.66,0,0,0-.63.45,1.64,1.64,0,0,0-.38.68,2.87,2.87,0,0,0-.13.87V193a2.41,2.41,0,0,0,.51,1.57,1.87,1.87,0,0,0,1.51.6,2,2,0,0,0,2-1.26l.81.55a2.9,2.9,0,0,1-1.05,1.25A3.09,3.09,0,0,1,238.79,196.17Zm4.35-10.53h1.12v6.57h.06l1.1-1.24,2.05-2.19h1.36l-2.68,2.85,2.94,4.37h-1.36l-2.39-3.68-1.08,1.1V196h-1.12ZM253,196.17a3.32,3.32,0,0,1-1.35-.27,3.06,3.06,0,0,1-1-.75A3.84,3.84,0,0,1,250,194a5.74,5.74,0,0,1,0-3.13,3.66,3.66,0,0,1,.66-1.19,3.27,3.27,0,0,1,1-.77,3.49,3.49,0,0,1,1.35-.26,3.05,3.05,0,0,1,1.3.26,2.84,2.84,0,0,1,1,.75,3.07,3.07,0,0,1,.62,1.1,4.3,4.3,0,0,1,.22,1.42v.53H251V193a2.24,2.24,0,0,0,.56,1.56,2.06,2.06,0,0,0,.67.46,2.37,2.37,0,0,0,.91.17,2.09,2.09,0,0,0,2-1.25l.79.58a2.81,2.81,0,0,1-1.09,1.2A3.4,3.4,0,0,1,253,196.17Zm0-6.62a2,2,0,0,0-.84.16,1.92,1.92,0,0,0-1.08,1.15,2.57,2.57,0,0,0-.15.87v.1h4v-.16a2.17,2.17,0,0,0-.54-1.54A1.71,1.71,0,0,0,253,189.55Zm9.59,5.27h-.06a2.18,2.18,0,0,1-2.11,1.35,2.72,2.72,0,0,1-1.22-.27,2.55,2.55,0,0,1-.94-.75,3.79,3.79,0,0,1-.59-1.19,6.67,6.67,0,0,1,0-3.14,3.58,3.58,0,0,1,.59-1.19,2.68,2.68,0,0,1,.94-.76,2.85,2.85,0,0,1,1.22-.26,2.4,2.4,0,0,1,1.28.33,2,2,0,0,1,.83,1h.06v-4.31h1.12V196H262.6Zm-1.87.34a2.5,2.5,0,0,0,.72-.1,1.83,1.83,0,0,0,.6-.28,1.33,1.33,0,0,0,.39-.46,1.26,1.26,0,0,0,.16-.63V191a1,1,0,0,0-.16-.54A1.19,1.19,0,0,0,262,190a1.83,1.83,0,0,0-.6-.28,2.21,2.21,0,0,0-.72-.11,1.9,1.9,0,0,0-1.49.6,2.15,2.15,0,0,0-.55,1.55V193a2.21,2.21,0,0,0,.55,1.57,2,2,0,0,0,1.5.59Z" transform="translate(0.09 0)" fill="#01161e"/>
  <path id="word-right" d="M289.86,196.17a4.41,4.41,0,0,1-1.72-.32,3.63,3.63,0,0,1-1.3-1,4.52,4.52,0,0,1-.83-1.58,7.71,7.71,0,0,1-.29-2.19,7.62,7.62,0,0,1,.29-2.17,4.52,4.52,0,0,1,.83-1.58,3.28,3.28,0,0,1,1.3-1,4.23,4.23,0,0,1,1.72-.34,4.18,4.18,0,0,1,1.71.34,3.28,3.28,0,0,1,1.3,1,4.31,4.31,0,0,1,.84,1.58,7.25,7.25,0,0,1,.3,2.17,7.38,7.38,0,0,1-.3,2.19,4.31,4.31,0,0,1-.84,1.58,3.63,3.63,0,0,1-1.3,1A4.33,4.33,0,0,1,289.86,196.17Zm0-1a3.13,3.13,0,0,0,1.17-.23,2.43,2.43,0,0,0,.91-.64,2.84,2.84,0,0,0,.6-1,3.87,3.87,0,0,0,.21-1.31V190.3a3.87,3.87,0,0,0-.21-1.31,2.84,2.84,0,0,0-.6-1,2.57,2.57,0,0,0-.91-.65,2.93,2.93,0,0,0-1.17-.22,3.07,3.07,0,0,0-1.16.22,2.7,2.7,0,0,0-.92.65,3,3,0,0,0-.59,1,3.87,3.87,0,0,0-.21,1.31v1.63a3.87,3.87,0,0,0,.21,1.31,3,3,0,0,0,.59,1,2.68,2.68,0,0,0,.92.64,2.9,2.9,0,0,0,1.16.24Zm7.75.88-2.54-7.22h1.12l1.26,3.58.79,2.46h.07l.78-2.46,1.29-3.58h1.08L298.91,196Zm7.9.17a3.14,3.14,0,0,1-1.35-.27,3.06,3.06,0,0,1-1-.75,4,4,0,0,1-.66-1.19,5.74,5.74,0,0,1,0-3.13,3.66,3.66,0,0,1,.66-1.19,3.27,3.27,0,0,1,1-.77,3.31,3.31,0,0,1,1.35-.26,3.05,3.05,0,0,1,1.3.26,2.84,2.84,0,0,1,1,.75,2.91,2.91,0,0,1,.61,1.1,4.31,4.31,0,0,1,.23,1.42v.53h-5.2V193a2.83,2.83,0,0,0,.14.87,2.71,2.71,0,0,0,.42.69,2.1,2.1,0,0,0,.68.46,2.37,2.37,0,0,0,.91.17,2.08,2.08,0,0,0,2-1.25l.8.58a2.81,2.81,0,0,1-1.09,1.2,3.37,3.37,0,0,1-1.78.45Zm0-6.62a2,2,0,0,0-.84.16,2,2,0,0,0-.66.45,2.08,2.08,0,0,0-.42.7,2.35,2.35,0,0,0-.16.87v.1h4v-.16a2.18,2.18,0,0,0-.53-1.54,1.73,1.73,0,0,0-1.39-.63Zm5,6.45v-7.22h1.12v1.33h.07a2.23,2.23,0,0,1,.7-.93,2.14,2.14,0,0,1,1.39-.4h.43V190h-.65a2.48,2.48,0,0,0-1.43.35,1,1,0,0,0-.51.85V196Zm7.32.17a3.47,3.47,0,0,1-1.7-.38,4.13,4.13,0,0,1-1.16-1l.8-.64a3.55,3.55,0,0,0,.94.83,2.49,2.49,0,0,0,1.2.28A1.83,1.83,0,0,0,319,195a1,1,0,0,0,.4-.87,1,1,0,0,0-.28-.71,1.51,1.51,0,0,0-1-.42l-.57-.09a4.83,4.83,0,0,1-.93-.21,2.77,2.77,0,0,1-.74-.39,1.85,1.85,0,0,1-.49-.62,2.23,2.23,0,0,1,0-1.79,2,2,0,0,1,.53-.67,2.18,2.18,0,0,1,.83-.39,3.36,3.36,0,0,1,1-.14,3.11,3.11,0,0,1,1.47.31,3.45,3.45,0,0,1,1,.85l-.74.67a2.24,2.24,0,0,0-.7-.6,2.13,2.13,0,0,0-1.16-.28,1.59,1.59,0,0,0-1.07.31,1,1,0,0,0-.35.81.89.89,0,0,0,.35.77,2.78,2.78,0,0,0,1,.35l.56.08a3.09,3.09,0,0,1,1.71.7,1.83,1.83,0,0,1,.5,1.33,2.07,2.07,0,0,1-.71,1.66,3,3,0,0,1-1.89.51Zm6.15-.17a1.23,1.23,0,0,1-.9-.32,1.31,1.31,0,0,1-.29-.87v-5.05H321.6v-1h.67a.66.66,0,0,0,.49-.14.87.87,0,0,0,.14-.52V186.8h1v2h1.58v1H323.9V195h1.47v1Zm6,.17a3.2,3.2,0,0,1-1.33-.27,2.84,2.84,0,0,1-1-.75A4.23,4.23,0,0,1,327,194a5.22,5.22,0,0,1,0-3.13,3.66,3.66,0,0,1,.66-1.19,2.8,2.8,0,0,1,1-.77,3.36,3.36,0,0,1,1.33-.26,3.26,3.26,0,0,1,1.31.26,3,3,0,0,1,1,.77,3.42,3.42,0,0,1,.67,1.19,5.22,5.22,0,0,1,0,3.13,3.89,3.89,0,0,1-.67,1.19,3.06,3.06,0,0,1-1,.75,3.17,3.17,0,0,1-1.36.22Zm0-1a2,2,0,0,0,1.48-.56A2.33,2.33,0,0,0,332,193v-1a2.33,2.33,0,0,0-.57-1.71,2.26,2.26,0,0,0-3,0,2.33,2.33,0,0,0-.57,1.71v1a2.31,2.31,0,0,0,.57,1.7,2,2,0,0,0,1.47.51Zm7.79,1a3.18,3.18,0,0,1-1.36-.27,2.75,2.75,0,0,1-1-.75,3.59,3.59,0,0,1-.63-1.19,6,6,0,0,1,0-3.14,3.59,3.59,0,0,1,.63-1.19,2.89,2.89,0,0,1,1-.76,3.33,3.33,0,0,1,1.36-.26,2.71,2.71,0,0,1,2.7,1.69l-.94.48a1.64,1.64,0,0,0-.64-.87,2,2,0,0,0-1.12-.31,2.06,2.06,0,0,0-.88.17,1.49,1.49,0,0,0-.63.45,1.64,1.64,0,0,0-.38.68,2.82,2.82,0,0,0-.13.87V193a2.41,2.41,0,0,0,.51,1.57,1.87,1.87,0,0,0,1.51.6,2,2,0,0,0,2-1.26l.81.55a2.9,2.9,0,0,1-1.05,1.25,3,3,0,0,1-1.81.46Zm4.35-10.53h1.12v6.57h.06l1.1-1.24,2-2.19h1.35l-2.67,2.85L348,196h-1.36l-2.39-3.68-1.08,1.1V196h-1.12ZM352,196.22a3.14,3.14,0,0,1-1.35-.27,3.06,3.06,0,0,1-1-.75A4.23,4.23,0,0,1,349,194a5.74,5.74,0,0,1,0-3.13,3.66,3.66,0,0,1,.66-1.19,3.27,3.27,0,0,1,1-.77,3.31,3.31,0,0,1,1.35-.26,3.05,3.05,0,0,1,1.3.26,2.84,2.84,0,0,1,1,.75,2.91,2.91,0,0,1,.61,1.1,4.31,4.31,0,0,1,.23,1.42v.53H350V193a2.83,2.83,0,0,0,.14.87,2.71,2.71,0,0,0,.42.69,2.1,2.1,0,0,0,.68.46,2.37,2.37,0,0,0,.91.17,2.08,2.08,0,0,0,2-1.25l.8.58a2.81,2.81,0,0,1-1.09,1.2,3.34,3.34,0,0,1-1.83.45Zm0-6.62a2,2,0,0,0-.84.16,2,2,0,0,0-.66.45,2.08,2.08,0,0,0-.42.7,2.35,2.35,0,0,0-.16.87v.1h4v-.16a2.18,2.18,0,0,0-.53-1.54,1.74,1.74,0,0,0-1.44-.63Zm9.58,5.27h0a2.21,2.21,0,0,1-2.12,1.35,2.68,2.68,0,0,1-1.21-.27,2.55,2.55,0,0,1-.94-.75,3.79,3.79,0,0,1-.59-1.19,6.19,6.19,0,0,1,0-3.14,3.58,3.58,0,0,1,.59-1.19,2.68,2.68,0,0,1,.94-.76,2.8,2.8,0,0,1,1.21-.26,2.44,2.44,0,0,1,1.29.33,2,2,0,0,1,.83,1h0v-4.31h1.12V196h-1.12Zm-1.86.34a2.5,2.5,0,0,0,.72-.1,1.83,1.83,0,0,0,.6-.28,1.33,1.33,0,0,0,.39-.46,1.36,1.36,0,0,0,.15-.63V191a1,1,0,0,0-.15-.54A1.19,1.19,0,0,0,361,190a1.83,1.83,0,0,0-.6-.28,2.21,2.21,0,0,0-.72-.11,1.93,1.93,0,0,0-1.5.6,2.2,2.2,0,0,0-.54,1.55V193a2.26,2.26,0,0,0,.54,1.57,2,2,0,0,0,1.48.59Z" transform="translate(0.09 0)" fill="#01161e"/>
  <g id="middle-line">
    <circle cx="275" cy="3" r="3" fill="#153343"/>
    <line x1="275" y1="3" x2="275" y2="295" fill="none" stroke="#153343" stroke-width="2"/>
  </g>
</svg>
