<svg width="165" height="158" viewBox="0 0 165 158" fill="none" xmlns="http://www.w3.org/2000/svg">
<circle cx="83" cy="79" r="79" fill="#153343"/>
<path d="M29.3681 49.088C29.3681 53.138 31.7441 56.198 36.1901 56.198C40.6721 56.198 43.0301 53.102 43.0301 49.088C43.0301 45.038 40.6541 41.978 36.2081 41.978C31.7261 41.978 29.3681 45.074 29.3681 49.088ZM32.5721 49.088C32.5721 46.514 33.7241 44.408 36.1901 44.408C38.6381 44.408 39.8261 46.514 39.8261 49.088C39.8261 51.662 38.6741 53.768 36.2081 53.768C33.7601 53.768 32.5721 51.662 32.5721 49.088ZM53.9023 46.334H50.9143V52.328C50.9143 53.3 50.3023 53.966 49.2043 53.966C48.2503 53.966 47.7643 53.354 47.7643 52.508V46.334H44.7763V52.904C44.7763 54.884 46.1263 56.198 48.1243 56.198C49.3843 56.198 50.4283 55.64 51.0403 54.668H51.0763L51.1303 56H53.9023V46.334ZM56.097 56H59.085V50.69C59.085 49.628 59.895 48.728 61.389 48.728C61.713 48.728 62.091 48.764 62.307 48.8V46.316C62.037 46.226 61.731 46.154 61.389 46.154C60.309 46.154 59.517 46.82 58.977 47.864H58.941L58.869 46.334H56.097V56ZM71.4914 47.63L71.4374 46.334H68.6654V56H71.6534V50.006C71.6534 49.052 72.2654 48.368 73.2914 48.368C74.1734 48.368 74.6054 48.926 74.6054 49.646V56H77.5934V50.006C77.5934 49.052 78.2054 48.368 79.2134 48.368C80.1314 48.368 80.5454 48.926 80.5454 49.646V56H83.5334V49.304C83.5334 47.396 82.1834 46.136 80.1494 46.136C78.8894 46.136 77.8454 46.604 77.1614 47.594C76.6394 46.676 75.6494 46.136 74.3714 46.136C73.1114 46.136 72.1574 46.64 71.5274 47.63H71.4914ZM94.0682 56V49.574C94.0682 47.45 92.6462 46.136 89.7482 46.136C87.5882 46.136 86.2922 46.874 85.5722 48.386L87.8042 49.502C88.0742 48.8 88.6142 48.296 89.5862 48.296C90.5582 48.296 91.1162 48.836 91.1162 49.646V50.222C89.5502 50.276 88.1102 50.366 87.1022 50.708C85.7702 51.158 85.2482 52.112 85.2482 53.246C85.2482 54.956 86.4722 56.198 88.3802 56.198C89.6402 56.198 90.6302 55.64 91.2062 54.668H91.2422L91.3142 56H94.0682ZM89.4422 54.128C88.6142 54.128 88.1822 53.66 88.1822 53.084C88.1822 52.382 88.7402 52.166 89.3162 52.076C89.8922 51.986 90.5582 51.932 91.1162 51.896V52.4C91.1162 53.39 90.4682 54.128 89.4422 54.128ZM96.2455 56H99.2335V50.69C99.2335 49.628 100.043 48.728 101.537 48.728C101.861 48.728 102.239 48.764 102.455 48.8V46.316C102.185 46.226 101.879 46.154 101.537 46.154C100.457 46.154 99.6655 46.82 99.1255 47.864H99.0895L99.0175 46.334H96.2455V56ZM109.761 56H113.217L110.157 50.96L113.073 46.334H109.653L107.619 49.97H106.845V42.176H103.857V56H106.845V52.004H107.619L109.761 56ZM123.494 46.334H120.506V52.328C120.506 53.3 119.894 53.966 118.796 53.966C117.842 53.966 117.356 53.354 117.356 52.508V46.334H114.368V52.904C114.368 54.884 115.718 56.198 117.716 56.198C118.976 56.198 120.02 55.64 120.632 54.668H120.668L120.722 56H123.494V46.334ZM131.521 56.198C134.041 56.198 135.643 53.984 135.643 51.14C135.643 48.278 134.131 46.136 131.557 46.136C130.333 46.136 129.307 46.73 128.569 47.72H128.533L128.461 46.334H125.689V59.294H128.677V54.848H128.713C129.415 55.712 130.351 56.198 131.521 56.198ZM130.585 53.984C129.253 53.984 128.569 52.85 128.569 51.212C128.569 49.592 129.235 48.35 130.603 48.35C131.971 48.35 132.619 49.628 132.619 51.176C132.619 52.778 131.953 53.984 130.585 53.984ZM32.9809 71.696H36.0409V69.176H32.9809V71.696ZM36.0049 83V73.334H33.0169V83H36.0049ZM41.9645 83.198C44.8625 83.198 46.5185 81.884 46.5185 79.904C46.5185 77.87 44.7185 77.33 42.9365 76.97C41.3525 76.664 40.7045 76.52 40.7045 75.926C40.7045 75.53 41.1185 75.206 41.9825 75.206C42.9545 75.206 44.1425 75.548 45.1325 76.196L46.3025 74.306C45.2045 73.622 43.8725 73.136 42.0005 73.136C39.0665 73.136 37.7705 74.576 37.7705 76.25C37.7705 78.158 39.3545 78.878 41.2085 79.238C42.7925 79.544 43.6025 79.688 43.6025 80.318C43.6025 80.894 42.9545 81.128 42.0005 81.128C40.8845 81.128 39.6245 80.732 38.6525 80.03L37.3565 81.938C38.5085 82.676 39.9485 83.198 41.9645 83.198ZM56.044 83V69.176H53.056V83H56.044ZM60.7076 77.24C60.8336 76.034 61.4276 75.278 62.5976 75.278C63.8216 75.278 64.2896 76.034 64.3976 77.24H60.7076ZM65.1356 79.94C64.5416 80.732 63.7856 81.056 62.9576 81.056C61.4816 81.056 60.8696 80.264 60.7076 79.022H67.2236C67.2776 78.716 67.2956 78.284 67.2956 77.888C67.2956 75.206 65.7656 73.136 62.6156 73.136C59.4296 73.136 57.7196 75.278 57.7196 78.194C57.7196 81.164 59.4476 83.198 62.8676 83.198C64.8656 83.198 66.0896 82.514 66.9536 81.488L65.1356 79.94ZM72.6735 83.198C75.5715 83.198 77.2275 81.884 77.2275 79.904C77.2275 77.87 75.4275 77.33 73.6455 76.97C72.0615 76.664 71.4135 76.52 71.4135 75.926C71.4135 75.53 71.8275 75.206 72.6915 75.206C73.6635 75.206 74.8515 75.548 75.8415 76.196L77.0115 74.306C75.9135 73.622 74.5815 73.136 72.7095 73.136C69.7755 73.136 68.4795 74.576 68.4795 76.25C68.4795 78.158 70.0635 78.878 71.9175 79.238C73.5015 79.544 74.3115 79.688 74.3115 80.318C74.3115 80.894 73.6635 81.128 72.7095 81.128C71.5935 81.128 70.3335 80.732 69.3615 80.03L68.0655 81.938C69.2175 82.676 70.6575 83.198 72.6735 83.198ZM82.57 83.198C85.468 83.198 87.124 81.884 87.124 79.904C87.124 77.87 85.324 77.33 83.542 76.97C81.958 76.664 81.31 76.52 81.31 75.926C81.31 75.53 81.724 75.206 82.588 75.206C83.56 75.206 84.748 75.548 85.738 76.196L86.908 74.306C85.81 73.622 84.478 73.136 82.606 73.136C79.672 73.136 78.376 74.576 78.376 76.25C78.376 78.158 79.96 78.878 81.814 79.238C83.398 79.544 84.208 79.688 84.208 80.318C84.208 80.894 83.56 81.128 82.606 81.128C81.49 81.128 80.23 80.732 79.258 80.03L77.962 81.938C79.114 82.676 80.554 83.198 82.57 83.198ZM92.6535 75.368H94.3815V80.282C94.3815 82.154 95.3895 83.198 97.6575 83.198C98.3235 83.198 98.9895 83.108 99.4395 83V80.966C99.2415 81.002 98.9715 81.02 98.7555 81.02C97.6215 81.02 97.3335 80.534 97.3335 79.706V75.368H99.4395V73.334H97.3335V70.274H94.3815V73.334H92.6535V75.368ZM101.044 83H104.032V77.114C104.032 76.106 104.68 75.368 105.778 75.368C106.714 75.368 107.182 75.98 107.182 76.754V83H110.17V76.358C110.17 74.414 108.856 73.136 106.876 73.136C105.652 73.136 104.644 73.676 104.068 74.594H104.032V69.176H101.044V83ZM120.699 83V76.574C120.699 74.45 119.277 73.136 116.379 73.136C114.219 73.136 112.923 73.874 112.203 75.386L114.435 76.502C114.705 75.8 115.245 75.296 116.217 75.296C117.189 75.296 117.747 75.836 117.747 76.646V77.222C116.181 77.276 114.741 77.366 113.733 77.708C112.401 78.158 111.879 79.112 111.879 80.246C111.879 81.956 113.103 83.198 115.011 83.198C116.271 83.198 117.261 82.64 117.837 81.668H117.873L117.945 83H120.699ZM116.073 81.128C115.245 81.128 114.813 80.66 114.813 80.084C114.813 79.382 115.371 79.166 115.947 79.076C116.523 78.986 117.189 78.932 117.747 78.896V79.4C117.747 80.39 117.099 81.128 116.073 81.128ZM122.876 83H125.864V77.114C125.864 76.106 126.512 75.368 127.61 75.368C128.528 75.368 129.014 75.98 129.014 76.754V83H132.002V76.43C132.002 74.45 130.67 73.136 128.636 73.136C127.376 73.136 126.35 73.694 125.738 74.666H125.702L125.648 73.334H122.876V83ZM39.3446 100.334L37.2386 106.976H37.2026L35.0966 100.334H31.9826L35.7086 110.288C35.4746 111.062 35.0066 111.35 34.2146 111.35C33.8906 111.35 33.6026 111.296 33.3686 111.224V113.294C33.7106 113.384 34.1786 113.492 34.8086 113.492C36.8786 113.492 37.8146 112.466 38.5166 110.576L42.3326 100.334H39.3446ZM47.7575 110.198C51.0695 110.198 52.8335 108.02 52.8335 105.158C52.8335 102.278 51.0695 100.136 47.7575 100.136C44.4455 100.136 42.6815 102.314 42.6815 105.194C42.6815 108.056 44.4455 110.198 47.7575 110.198ZM47.7755 102.332C49.1435 102.332 49.8095 103.556 49.8095 105.176C49.8095 106.778 49.1435 108.002 47.7395 108.002C46.3715 108.002 45.7055 106.778 45.7055 105.176C45.7055 103.556 46.3715 102.332 47.7755 102.332ZM63.6142 100.334H60.6262V106.328C60.6262 107.3 60.0142 107.966 58.9162 107.966C57.9622 107.966 57.4762 107.354 57.4762 106.508V100.334H54.4882V106.904C54.4882 108.884 55.8382 110.198 57.8362 110.198C59.0962 110.198 60.1402 109.64 60.7522 108.668H60.7882L60.8422 110H63.6142V100.334ZM65.8089 110H68.7969V104.69C68.7969 103.628 69.6069 102.728 71.1009 102.728C71.4249 102.728 71.8029 102.764 72.0189 102.8V100.316C71.7489 100.226 71.4429 100.154 71.1009 100.154C70.0209 100.154 69.2289 100.82 68.6889 101.864H68.6529L68.5809 100.334H65.8089V110ZM82.1393 110.198C85.0373 110.198 86.6933 108.884 86.6933 106.904C86.6933 104.87 84.8933 104.33 83.1113 103.97C81.5273 103.664 80.8793 103.52 80.8793 102.926C80.8793 102.53 81.2933 102.206 82.1573 102.206C83.1293 102.206 84.3173 102.548 85.3073 103.196L86.4773 101.306C85.3793 100.622 84.0473 100.136 82.1753 100.136C79.2413 100.136 77.9453 101.576 77.9453 103.25C77.9453 105.158 79.5293 105.878 81.3833 106.238C82.9673 106.544 83.7773 106.688 83.7773 107.318C83.7773 107.894 83.1293 108.128 82.1753 108.128C81.0593 108.128 79.7993 107.732 78.8273 107.03L77.5313 108.938C78.6833 109.676 80.1233 110.198 82.1393 110.198ZM88.2738 110H91.2618V104.114C91.2618 103.106 91.9098 102.368 93.0078 102.368C93.9438 102.368 94.4118 102.98 94.4118 103.754V110H97.3998V103.358C97.3998 101.414 96.0858 100.136 94.1058 100.136C92.8818 100.136 91.8738 100.676 91.2978 101.594H91.2618V96.176H88.2738V110ZM99.5765 110H102.565V104.69C102.565 103.628 103.375 102.728 104.869 102.728C105.193 102.728 105.571 102.764 105.787 102.8V100.316C105.517 100.226 105.211 100.154 104.869 100.154C103.789 100.154 102.997 100.82 102.457 101.864H102.421L102.349 100.334H99.5765V110ZM107.152 98.696H110.212V96.176H107.152V98.696ZM110.176 110V100.334H107.188V110H110.176ZM112.373 110H115.361V104.114C115.361 103.106 116.009 102.368 117.107 102.368C118.025 102.368 118.511 102.98 118.511 103.754V110H121.499V103.43C121.499 101.45 120.167 100.136 118.133 100.136C116.873 100.136 115.847 100.694 115.235 101.666H115.199L115.145 100.334H112.373V110ZM129.58 110H133.036L129.976 104.96L132.892 100.334H129.472L127.438 103.97H126.664V96.176H123.676V110H126.664V106.004H127.438L129.58 110Z" fill="white"/>
</svg>
