<svg width="256" height="71" viewBox="0 0 256 71" fill="none" xmlns="http://www.w3.org/2000/svg">
<path d="M231.627 1H24.4611C11.5354 1 1 11.822 1 25.0993C1 38.3767 11.5354 49.1987 24.4611 49.1987H200.375L214.54 67.3869V49.1987H231.538C244.464 49.1987 254.999 38.3767 254.999 25.0993C255.088 11.822 244.553 1 231.627 1Z" fill="white" stroke="#153343" stroke-width="2" stroke-miterlimit="10"/>
<path d="M25.8633 28.7588L29.5195 18.2031H31.3652L26.6191 31H25.125L20.3877 18.2031H22.2246L25.8633 28.7588ZM36.3926 31.1758C35.1035 31.1758 34.0547 30.7539 33.2461 29.9102C32.4375 29.0605 32.0332 27.9268 32.0332 26.5088V26.21C32.0332 25.2666 32.2119 24.4258 32.5693 23.6875C32.9326 22.9434 33.4365 22.3633 34.0811 21.9473C34.7314 21.5254 35.4346 21.3145 36.1904 21.3145C37.4268 21.3145 38.3877 21.7217 39.0732 22.5361C39.7588 23.3506 40.1016 24.5166 40.1016 26.0342V26.7109H33.6592C33.6826 27.6484 33.9551 28.4072 34.4766 28.9873C35.0039 29.5615 35.6719 29.8486 36.4805 29.8486C37.0547 29.8486 37.541 29.7314 37.9395 29.4971C38.3379 29.2627 38.6865 28.9521 38.9854 28.5654L39.9785 29.3389C39.1816 30.5635 37.9863 31.1758 36.3926 31.1758ZM36.1904 22.6504C35.5342 22.6504 34.9834 22.8906 34.5381 23.3711C34.0928 23.8457 33.8174 24.5137 33.7119 25.375H38.4756V25.252C38.4287 24.4258 38.2061 23.7871 37.8076 23.3359C37.4092 22.8789 36.8701 22.6504 36.1904 22.6504ZM43.5293 21.4902L43.582 22.6855C44.3086 21.7715 45.2578 21.3145 46.4297 21.3145C48.4395 21.3145 49.4531 22.4482 49.4707 24.7158V31H47.8447V24.707C47.8389 24.0215 47.6807 23.5146 47.3701 23.1865C47.0654 22.8584 46.5879 22.6943 45.9375 22.6943C45.4102 22.6943 44.9473 22.835 44.5488 23.1162C44.1504 23.3975 43.8398 23.7666 43.6172 24.2236V31H41.9912V21.4902H43.5293ZM51.5273 26.166C51.5273 24.707 51.873 23.5352 52.5645 22.6504C53.2559 21.7598 54.1611 21.3145 55.2803 21.3145C56.3936 21.3145 57.2754 21.6953 57.9258 22.457V17.5H59.5518V31H58.0576L57.9785 29.9805C57.3281 30.7773 56.4229 31.1758 55.2627 31.1758C54.1611 31.1758 53.2617 30.7246 52.5645 29.8223C51.873 28.9199 51.5273 27.7422 51.5273 26.2891V26.166ZM53.1533 26.3506C53.1533 27.4287 53.376 28.2725 53.8213 28.8818C54.2666 29.4912 54.8818 29.7959 55.667 29.7959C56.6982 29.7959 57.4512 29.333 57.9258 28.4072V24.0391C57.4395 23.1426 56.6924 22.6943 55.6846 22.6943C54.8877 22.6943 54.2666 23.002 53.8213 23.6172C53.376 24.2324 53.1533 25.1436 53.1533 26.3506ZM61.6523 26.1572C61.6523 25.2256 61.834 24.3877 62.1973 23.6436C62.5664 22.8994 63.0762 22.3252 63.7266 21.9209C64.3828 21.5166 65.1299 21.3145 65.9678 21.3145C67.2627 21.3145 68.3086 21.7627 69.1055 22.6592C69.9082 23.5557 70.3096 24.748 70.3096 26.2363V26.3506C70.3096 27.2764 70.1309 28.1084 69.7734 28.8467C69.4219 29.5791 68.915 30.1504 68.2529 30.5605C67.5967 30.9707 66.8408 31.1758 65.9854 31.1758C64.6963 31.1758 63.6504 30.7275 62.8477 29.8311C62.0508 28.9346 61.6523 27.748 61.6523 26.2715V26.1572ZM63.2871 26.3506C63.2871 27.4053 63.5303 28.252 64.0166 28.8906C64.5088 29.5293 65.165 29.8486 65.9854 29.8486C66.8115 29.8486 67.4678 29.5264 67.9541 28.8818C68.4404 28.2314 68.6836 27.3232 68.6836 26.1572C68.6836 25.1143 68.4346 24.2705 67.9365 23.626C67.4443 22.9756 66.7881 22.6504 65.9678 22.6504C65.165 22.6504 64.5176 22.9697 64.0254 23.6084C63.5332 24.2471 63.2871 25.1611 63.2871 26.3506ZM76.9453 22.9492C76.6992 22.9082 76.4326 22.8877 76.1455 22.8877C75.0791 22.8877 74.3555 23.3418 73.9746 24.25V31H72.3486V21.4902H73.9307L73.957 22.5889C74.4902 21.7393 75.2461 21.3145 76.2246 21.3145C76.541 21.3145 76.7812 21.3555 76.9453 21.4375V22.9492ZM85.3477 18.2031L89.5312 28.6445L93.7148 18.2031H95.9033V31H94.2158V26.0166L94.374 20.6377L90.1729 31H88.8809L84.6885 20.6641L84.8555 26.0166V31H83.168V18.2031H85.3477ZM104.499 31C104.405 30.8125 104.329 30.4785 104.271 29.998C103.515 30.7832 102.612 31.1758 101.563 31.1758C100.626 31.1758 99.8555 30.9121 99.252 30.3848C98.6543 29.8516 98.3555 29.1777 98.3555 28.3633C98.3555 27.373 98.7305 26.6055 99.4805 26.0605C100.236 25.5098 101.297 25.2344 102.662 25.2344H104.244V24.4873C104.244 23.9189 104.074 23.4678 103.734 23.1338C103.395 22.7939 102.894 22.624 102.231 22.624C101.651 22.624 101.165 22.7705 100.772 23.0635C100.38 23.3564 100.184 23.7109 100.184 24.127H98.5488C98.5488 23.6523 98.7158 23.1953 99.0498 22.7559C99.3896 22.3105 99.8467 21.959 100.421 21.7012C101.001 21.4434 101.637 21.3145 102.328 21.3145C103.424 21.3145 104.282 21.5898 104.903 22.1406C105.524 22.6855 105.847 23.4385 105.87 24.3994V28.7764C105.87 29.6494 105.981 30.3438 106.204 30.8594V31H104.499ZM101.801 29.7607C102.311 29.7607 102.794 29.6289 103.251 29.3652C103.708 29.1016 104.039 28.7588 104.244 28.3369V26.3857H102.97C100.978 26.3857 99.9814 26.9688 99.9814 28.1348C99.9814 28.6445 100.151 29.043 100.491 29.3301C100.831 29.6172 101.268 29.7607 101.801 29.7607ZM109.957 21.4902L110.01 22.6855C110.736 21.7715 111.686 21.3145 112.857 21.3145C114.867 21.3145 115.881 22.4482 115.898 24.7158V31H114.272V24.707C114.267 24.0215 114.108 23.5146 113.798 23.1865C113.493 22.8584 113.016 22.6943 112.365 22.6943C111.838 22.6943 111.375 22.835 110.977 23.1162C110.578 23.3975 110.268 23.7666 110.045 24.2236V31H108.419V21.4902H109.957ZM124.222 31C124.128 30.8125 124.052 30.4785 123.993 29.998C123.237 30.7832 122.335 31.1758 121.286 31.1758C120.349 31.1758 119.578 30.9121 118.975 30.3848C118.377 29.8516 118.078 29.1777 118.078 28.3633C118.078 27.373 118.453 26.6055 119.203 26.0605C119.959 25.5098 121.02 25.2344 122.385 25.2344H123.967V24.4873C123.967 23.9189 123.797 23.4678 123.457 23.1338C123.117 22.7939 122.616 22.624 121.954 22.624C121.374 22.624 120.888 22.7705 120.495 23.0635C120.103 23.3564 119.906 23.7109 119.906 24.127H118.271C118.271 23.6523 118.438 23.1953 118.772 22.7559C119.112 22.3105 119.569 21.959 120.144 21.7012C120.724 21.4434 121.359 21.3145 122.051 21.3145C123.146 21.3145 124.005 21.5898 124.626 22.1406C125.247 22.6855 125.569 23.4385 125.593 24.3994V28.7764C125.593 29.6494 125.704 30.3438 125.927 30.8594V31H124.222ZM121.523 29.7607C122.033 29.7607 122.517 29.6289 122.974 29.3652C123.431 29.1016 123.762 28.7588 123.967 28.3369V26.3857H122.692C120.7 26.3857 119.704 26.9688 119.704 28.1348C119.704 28.6445 119.874 29.043 120.214 29.3301C120.554 29.6172 120.99 29.7607 121.523 29.7607ZM127.755 26.166C127.755 24.6836 128.098 23.5059 128.783 22.6328C129.469 21.7539 130.377 21.3145 131.508 21.3145C132.668 21.3145 133.573 21.7246 134.224 22.5449L134.303 21.4902H135.788V30.7715C135.788 32.002 135.422 32.9717 134.689 33.6807C133.963 34.3896 132.984 34.7441 131.754 34.7441C131.068 34.7441 130.397 34.5977 129.741 34.3047C129.085 34.0117 128.584 33.6104 128.238 33.1006L129.082 32.125C129.779 32.9863 130.632 33.417 131.64 33.417C132.431 33.417 133.046 33.1943 133.485 32.749C133.931 32.3037 134.153 31.6768 134.153 30.8682V30.0508C133.503 30.8008 132.615 31.1758 131.49 31.1758C130.377 31.1758 129.475 30.7275 128.783 29.8311C128.098 28.9346 127.755 27.7129 127.755 26.166ZM129.39 26.3506C129.39 27.4229 129.609 28.2666 130.049 28.8818C130.488 29.4912 131.104 29.7959 131.895 29.7959C132.92 29.7959 133.673 29.3301 134.153 28.3984V24.0566C133.655 23.1484 132.908 22.6943 131.912 22.6943C131.121 22.6943 130.503 23.002 130.058 23.6172C129.612 24.2324 129.39 25.1436 129.39 26.3506ZM142.195 31.1758C140.906 31.1758 139.857 30.7539 139.049 29.9102C138.24 29.0605 137.836 27.9268 137.836 26.5088V26.21C137.836 25.2666 138.015 24.4258 138.372 23.6875C138.735 22.9434 139.239 22.3633 139.884 21.9473C140.534 21.5254 141.237 21.3145 141.993 21.3145C143.229 21.3145 144.19 21.7217 144.876 22.5361C145.562 23.3506 145.904 24.5166 145.904 26.0342V26.7109H139.462C139.485 27.6484 139.758 28.4072 140.279 28.9873C140.807 29.5615 141.475 29.8486 142.283 29.8486C142.857 29.8486 143.344 29.7314 143.742 29.4971C144.141 29.2627 144.489 28.9521 144.788 28.5654L145.781 29.3389C144.984 30.5635 143.789 31.1758 142.195 31.1758ZM141.993 22.6504C141.337 22.6504 140.786 22.8906 140.341 23.3711C139.896 23.8457 139.62 24.5137 139.515 25.375H144.278V25.252C144.231 24.4258 144.009 23.7871 143.61 23.3359C143.212 22.8789 142.673 22.6504 141.993 22.6504ZM147.398 26.166C147.398 24.707 147.744 23.5352 148.436 22.6504C149.127 21.7598 150.032 21.3145 151.151 21.3145C152.265 21.3145 153.146 21.6953 153.797 22.457V17.5H155.423V31H153.929L153.85 29.9805C153.199 30.7773 152.294 31.1758 151.134 31.1758C150.032 31.1758 149.133 30.7246 148.436 29.8223C147.744 28.9199 147.398 27.7422 147.398 26.2891V26.166ZM149.024 26.3506C149.024 27.4287 149.247 28.2725 149.692 28.8818C150.138 29.4912 150.753 29.7959 151.538 29.7959C152.569 29.7959 153.322 29.333 153.797 28.4072V24.0391C153.311 23.1426 152.563 22.6943 151.556 22.6943C150.759 22.6943 150.138 23.002 149.692 23.6172C149.247 24.2324 149.024 25.1436 149.024 26.3506ZM164.484 31H162.797V18.2031H164.484V31ZM168.861 21.4902L168.914 22.6855C169.641 21.7715 170.59 21.3145 171.762 21.3145C173.771 21.3145 174.785 22.4482 174.803 24.7158V31H173.177V24.707C173.171 24.0215 173.013 23.5146 172.702 23.1865C172.397 22.8584 171.92 22.6943 171.27 22.6943C170.742 22.6943 170.279 22.835 169.881 23.1162C169.482 23.3975 169.172 23.7666 168.949 24.2236V31H167.323V21.4902H168.861ZM180.393 28.7939L182.748 21.4902H184.409L180.999 31H179.76L176.314 21.4902H177.976L180.393 28.7939ZM189.797 31.1758C188.508 31.1758 187.459 30.7539 186.65 29.9102C185.842 29.0605 185.438 27.9268 185.438 26.5088V26.21C185.438 25.2666 185.616 24.4258 185.974 23.6875C186.337 22.9434 186.841 22.3633 187.485 21.9473C188.136 21.5254 188.839 21.3145 189.595 21.3145C190.831 21.3145 191.792 21.7217 192.478 22.5361C193.163 23.3506 193.506 24.5166 193.506 26.0342V26.7109H187.063C187.087 27.6484 187.359 28.4072 187.881 28.9873C188.408 29.5615 189.076 29.8486 189.885 29.8486C190.459 29.8486 190.945 29.7314 191.344 29.4971C191.742 29.2627 192.091 28.9521 192.39 28.5654L193.383 29.3389C192.586 30.5635 191.391 31.1758 189.797 31.1758ZM189.595 22.6504C188.938 22.6504 188.388 22.8906 187.942 23.3711C187.497 23.8457 187.222 24.5137 187.116 25.375H191.88V25.252C191.833 24.4258 191.61 23.7871 191.212 23.3359C190.813 22.8789 190.274 22.6504 189.595 22.6504ZM196.934 21.4902L196.986 22.6855C197.713 21.7715 198.662 21.3145 199.834 21.3145C201.844 21.3145 202.857 22.4482 202.875 24.7158V31H201.249V24.707C201.243 24.0215 201.085 23.5146 200.774 23.1865C200.47 22.8584 199.992 22.6943 199.342 22.6943C198.814 22.6943 198.352 22.835 197.953 23.1162C197.555 23.3975 197.244 23.7666 197.021 24.2236V31H195.396V21.4902H196.934ZM207.533 19.1875V21.4902H209.309V22.7471H207.533V28.6445C207.533 29.0254 207.612 29.3125 207.771 29.5059C207.929 29.6934 208.198 29.7871 208.579 29.7871C208.767 29.7871 209.024 29.752 209.353 29.6816V31C208.925 31.1172 208.509 31.1758 208.104 31.1758C207.378 31.1758 206.83 30.9561 206.461 30.5166C206.092 30.0771 205.907 29.4531 205.907 28.6445V22.7471H204.176V21.4902H205.907V19.1875H207.533ZM210.609 26.1572C210.609 25.2256 210.791 24.3877 211.154 23.6436C211.523 22.8994 212.033 22.3252 212.684 21.9209C213.34 21.5166 214.087 21.3145 214.925 21.3145C216.22 21.3145 217.266 21.7627 218.062 22.6592C218.865 23.5557 219.267 24.748 219.267 26.2363V26.3506C219.267 27.2764 219.088 28.1084 218.73 28.8467C218.379 29.5791 217.872 30.1504 217.21 30.5605C216.554 30.9707 215.798 31.1758 214.942 31.1758C213.653 31.1758 212.607 30.7275 211.805 29.8311C211.008 28.9346 210.609 27.748 210.609 26.2715V26.1572ZM212.244 26.3506C212.244 27.4053 212.487 28.252 212.974 28.8906C213.466 29.5293 214.122 29.8486 214.942 29.8486C215.769 29.8486 216.425 29.5264 216.911 28.8818C217.397 28.2314 217.641 27.3232 217.641 26.1572C217.641 25.1143 217.392 24.2705 216.894 23.626C216.401 22.9756 215.745 22.6504 214.925 22.6504C214.122 22.6504 213.475 22.9697 212.982 23.6084C212.49 24.2471 212.244 25.1611 212.244 26.3506ZM225.902 22.9492C225.656 22.9082 225.39 22.8877 225.103 22.8877C224.036 22.8877 223.312 23.3418 222.932 24.25V31H221.306V21.4902H222.888L222.914 22.5889C223.447 21.7393 224.203 21.3145 225.182 21.3145C225.498 21.3145 225.738 21.3555 225.902 21.4375V22.9492ZM230.675 28.6182L232.89 21.4902H234.63L230.807 32.4678C230.215 34.0498 229.274 34.8408 227.985 34.8408L227.678 34.8145L227.071 34.7002V33.3818L227.511 33.417C228.062 33.417 228.489 33.3057 228.794 33.083C229.104 32.8604 229.359 32.4531 229.559 31.8613L229.919 30.8945L226.526 21.4902H228.302L230.675 28.6182Z" fill="black"/>
</svg>
