<svg width="217" height="77" viewBox="0 0 217 77" fill="none" xmlns="http://www.w3.org/2000/svg">
<path d="M189.5 1H27.5C12.9 1 1 12.9 1 27.5C1 42.1 12.9 54 27.5 54H151.1L167.1 74V54H189.5C204.1 54 216 42.1 216 27.5C216 12.9 204.1 1 189.5 1Z" fill="white" stroke="#153343" stroke-width="2" stroke-miterlimit="10"/>
<path d="M33.9336 34V21.2031H38.1172C39.5059 21.2031 40.5488 21.4902 41.2461 22.0645C41.9492 22.6387 42.3008 23.4883 42.3008 24.6133C42.3008 25.2109 42.1309 25.7412 41.791 26.2041C41.4512 26.6611 40.9883 27.0156 40.4023 27.2676C41.0938 27.4609 41.6387 27.8301 42.0371 28.375C42.4414 28.9141 42.6436 29.5586 42.6436 30.3086C42.6436 31.457 42.2715 32.3594 41.5273 33.0156C40.7832 33.6719 39.7314 34 38.3721 34H33.9336ZM35.6211 28.0146V32.6201H38.4072C39.1924 32.6201 39.8105 32.418 40.2617 32.0137C40.7188 31.6035 40.9473 31.041 40.9473 30.3262C40.9473 28.7852 40.1094 28.0146 38.4336 28.0146H35.6211ZM35.6211 26.6611H38.1699C38.9082 26.6611 39.4971 26.4766 39.9365 26.1074C40.3818 25.7383 40.6045 25.2373 40.6045 24.6045C40.6045 23.9014 40.3994 23.3916 39.9893 23.0752C39.5791 22.7529 38.9551 22.5918 38.1172 22.5918H35.6211V26.6611ZM50.7646 33.0596C50.1318 33.8037 49.2031 34.1758 47.9785 34.1758C46.9648 34.1758 46.1914 33.8828 45.6582 33.2969C45.1309 32.7051 44.8643 31.832 44.8584 30.6777V24.4902H46.4844V30.6338C46.4844 32.0752 47.0703 32.7959 48.2422 32.7959C49.4844 32.7959 50.3105 32.333 50.7207 31.4072V24.4902H52.3467V34H50.7998L50.7646 33.0596ZM57.9365 31.6182L60.1514 24.4902H61.8916L58.0684 35.4678C57.4766 37.0498 56.5361 37.8408 55.2471 37.8408L54.9395 37.8145L54.333 37.7002V36.3818L54.7725 36.417C55.3232 36.417 55.751 36.3057 56.0557 36.083C56.3662 35.8604 56.6211 35.4531 56.8203 34.8613L57.1807 33.8945L53.7881 24.4902H55.5635L57.9365 31.6182ZM66.7344 29.2275H62.4453V27.9004H66.7344V29.2275ZM68.5801 34V21.2031H72.7637C74.1523 21.2031 75.1953 21.4902 75.8926 22.0645C76.5957 22.6387 76.9473 23.4883 76.9473 24.6133C76.9473 25.2109 76.7773 25.7412 76.4375 26.2041C76.0977 26.6611 75.6348 27.0156 75.0488 27.2676C75.7402 27.4609 76.2852 27.8301 76.6836 28.375C77.0879 28.9141 77.29 29.5586 77.29 30.3086C77.29 31.457 76.918 32.3594 76.1738 33.0156C75.4297 33.6719 74.3779 34 73.0186 34H68.5801ZM70.2676 28.0146V32.6201H73.0537C73.8389 32.6201 74.457 32.418 74.9082 32.0137C75.3652 31.6035 75.5938 31.041 75.5938 30.3262C75.5938 28.7852 74.7559 28.0146 73.0801 28.0146H70.2676ZM70.2676 26.6611H72.8164C73.5547 26.6611 74.1436 26.4766 74.583 26.1074C75.0283 25.7383 75.251 25.2373 75.251 24.6045C75.251 23.9014 75.0459 23.3916 74.6357 23.0752C74.2256 22.7529 73.6016 22.5918 72.7637 22.5918H70.2676V26.6611ZM85.4111 34C85.3174 33.8125 85.2412 33.4785 85.1826 32.998C84.4268 33.7832 83.5244 34.1758 82.4756 34.1758C81.5381 34.1758 80.7676 33.9121 80.1641 33.3848C79.5664 32.8516 79.2676 32.1777 79.2676 31.3633C79.2676 30.373 79.6426 29.6055 80.3926 29.0605C81.1484 28.5098 82.209 28.2344 83.5742 28.2344H85.1562V27.4873C85.1562 26.9189 84.9863 26.4678 84.6465 26.1338C84.3066 25.7939 83.8057 25.624 83.1436 25.624C82.5635 25.624 82.0771 25.7705 81.6846 26.0635C81.292 26.3564 81.0957 26.7109 81.0957 27.127H79.4609C79.4609 26.6523 79.6279 26.1953 79.9619 25.7559C80.3018 25.3105 80.7588 24.959 81.333 24.7012C81.9131 24.4434 82.5488 24.3145 83.2402 24.3145C84.3359 24.3145 85.1943 24.5898 85.8154 25.1406C86.4365 25.6855 86.7588 26.4385 86.7822 27.3994V31.7764C86.7822 32.6494 86.8936 33.3438 87.1162 33.8594V34H85.4111ZM82.7129 32.7607C83.2227 32.7607 83.7061 32.6289 84.1631 32.3652C84.6201 32.1016 84.9512 31.7588 85.1562 31.3369V29.3857H83.8818C81.8896 29.3857 80.8936 29.9688 80.8936 31.1348C80.8936 31.6445 81.0635 32.043 81.4033 32.3301C81.7432 32.6172 82.1797 32.7607 82.7129 32.7607ZM93.1455 32.8486C93.7256 32.8486 94.2324 32.6729 94.666 32.3213C95.0996 31.9697 95.3398 31.5303 95.3867 31.0029H96.9248C96.8955 31.5479 96.708 32.0664 96.3623 32.5586C96.0166 33.0508 95.5537 33.4434 94.9736 33.7363C94.3994 34.0293 93.79 34.1758 93.1455 34.1758C91.8506 34.1758 90.8193 33.7451 90.0518 32.8838C89.29 32.0166 88.9092 30.833 88.9092 29.333V29.0605C88.9092 28.1348 89.0791 27.3115 89.4189 26.5908C89.7588 25.8701 90.2451 25.3105 90.8779 24.9121C91.5166 24.5137 92.2695 24.3145 93.1367 24.3145C94.2031 24.3145 95.0879 24.6338 95.791 25.2725C96.5 25.9111 96.8779 26.7402 96.9248 27.7598H95.3867C95.3398 27.1445 95.1055 26.6406 94.6836 26.248C94.2676 25.8496 93.752 25.6504 93.1367 25.6504C92.3105 25.6504 91.6689 25.9492 91.2119 26.5469C90.7607 27.1387 90.5352 27.9971 90.5352 29.1221V29.4297C90.5352 30.5254 90.7607 31.3691 91.2119 31.9609C91.6631 32.5527 92.3076 32.8486 93.1455 32.8486ZM101.407 29.5967L100.388 30.6602V34H98.7617V20.5H100.388V28.665L101.258 27.6191L104.22 24.4902H106.197L102.497 28.4629L106.628 34H104.721L101.407 29.5967ZM122.044 32.3213C121.61 32.9424 121.004 33.4082 120.225 33.7188C119.451 34.0234 118.549 34.1758 117.518 34.1758C116.475 34.1758 115.549 33.9326 114.74 33.4463C113.932 32.9541 113.305 32.2568 112.859 31.3545C112.42 30.4521 112.194 29.4062 112.183 28.2168V27.1006C112.183 25.1729 112.631 23.6787 113.527 22.6182C114.43 21.5576 115.695 21.0273 117.324 21.0273C118.66 21.0273 119.735 21.3701 120.55 22.0557C121.364 22.7354 121.862 23.7021 122.044 24.9561H120.356C120.04 23.2627 119.032 22.416 117.333 22.416C116.202 22.416 115.344 22.8145 114.758 23.6113C114.178 24.4023 113.885 25.5508 113.879 27.0566V28.1025C113.879 29.5381 114.207 30.6807 114.863 31.5303C115.52 32.374 116.407 32.7959 117.526 32.7959C118.159 32.7959 118.713 32.7256 119.188 32.585C119.662 32.4443 120.055 32.207 120.365 31.873V28.999H117.403V27.6279H122.044V32.3213ZM130.481 33.0596C129.849 33.8037 128.92 34.1758 127.695 34.1758C126.682 34.1758 125.908 33.8828 125.375 33.2969C124.848 32.7051 124.581 31.832 124.575 30.6777V24.4902H126.201V30.6338C126.201 32.0752 126.787 32.7959 127.959 32.7959C129.201 32.7959 130.027 32.333 130.438 31.4072V24.4902H132.063V34H130.517L130.481 33.0596ZM140.413 34C140.319 33.8125 140.243 33.4785 140.185 32.998C139.429 33.7832 138.526 34.1758 137.478 34.1758C136.54 34.1758 135.77 33.9121 135.166 33.3848C134.568 32.8516 134.27 32.1777 134.27 31.3633C134.27 30.373 134.645 29.6055 135.395 29.0605C136.15 28.5098 137.211 28.2344 138.576 28.2344H140.158V27.4873C140.158 26.9189 139.988 26.4678 139.648 26.1338C139.309 25.7939 138.808 25.624 138.146 25.624C137.565 25.624 137.079 25.7705 136.687 26.0635C136.294 26.3564 136.098 26.7109 136.098 27.127H134.463C134.463 26.6523 134.63 26.1953 134.964 25.7559C135.304 25.3105 135.761 24.959 136.335 24.7012C136.915 24.4434 137.551 24.3145 138.242 24.3145C139.338 24.3145 140.196 24.5898 140.817 25.1406C141.438 25.6855 141.761 26.4385 141.784 27.3994V31.7764C141.784 32.6494 141.896 33.3438 142.118 33.8594V34H140.413ZM137.715 32.7607C138.225 32.7607 138.708 32.6289 139.165 32.3652C139.622 32.1016 139.953 31.7588 140.158 31.3369V29.3857H138.884C136.892 29.3857 135.896 29.9688 135.896 31.1348C135.896 31.6445 136.065 32.043 136.405 32.3301C136.745 32.6172 137.182 32.7607 137.715 32.7607ZM148.93 25.9492C148.684 25.9082 148.417 25.8877 148.13 25.8877C147.063 25.8877 146.34 26.3418 145.959 27.25V34H144.333V24.4902H145.915L145.941 25.5889C146.475 24.7393 147.23 24.3145 148.209 24.3145C148.525 24.3145 148.766 24.3555 148.93 24.4375V25.9492ZM155.952 34C155.858 33.8125 155.782 33.4785 155.724 32.998C154.968 33.7832 154.065 34.1758 153.017 34.1758C152.079 34.1758 151.309 33.9121 150.705 33.3848C150.107 32.8516 149.809 32.1777 149.809 31.3633C149.809 30.373 150.184 29.6055 150.934 29.0605C151.689 28.5098 152.75 28.2344 154.115 28.2344H155.697V27.4873C155.697 26.9189 155.527 26.4678 155.188 26.1338C154.848 25.7939 154.347 25.624 153.685 25.624C153.104 25.624 152.618 25.7705 152.226 26.0635C151.833 26.3564 151.637 26.7109 151.637 27.127H150.002C150.002 26.6523 150.169 26.1953 150.503 25.7559C150.843 25.3105 151.3 24.959 151.874 24.7012C152.454 24.4434 153.09 24.3145 153.781 24.3145C154.877 24.3145 155.735 24.5898 156.356 25.1406C156.978 25.6855 157.3 26.4385 157.323 27.3994V31.7764C157.323 32.6494 157.435 33.3438 157.657 33.8594V34H155.952ZM153.254 32.7607C153.764 32.7607 154.247 32.6289 154.704 32.3652C155.161 32.1016 155.492 31.7588 155.697 31.3369V29.3857H154.423C152.431 29.3857 151.435 29.9688 151.435 31.1348C151.435 31.6445 151.604 32.043 151.944 32.3301C152.284 32.6172 152.721 32.7607 153.254 32.7607ZM161.41 24.4902L161.463 25.6855C162.189 24.7715 163.139 24.3145 164.311 24.3145C166.32 24.3145 167.334 25.4482 167.352 27.7158V34H165.726V27.707C165.72 27.0215 165.562 26.5146 165.251 26.1865C164.946 25.8584 164.469 25.6943 163.818 25.6943C163.291 25.6943 162.828 25.835 162.43 26.1162C162.031 26.3975 161.721 26.7666 161.498 27.2236V34H159.872V24.4902H161.41ZM172.01 22.1875V24.4902H173.785V25.7471H172.01V31.6445C172.01 32.0254 172.089 32.3125 172.247 32.5059C172.405 32.6934 172.675 32.7871 173.056 32.7871C173.243 32.7871 173.501 32.752 173.829 32.6816V34C173.401 34.1172 172.985 34.1758 172.581 34.1758C171.854 34.1758 171.307 33.9561 170.938 33.5166C170.568 33.0771 170.384 32.4531 170.384 31.6445V25.7471H168.652V24.4902H170.384V22.1875H172.01ZM179.639 34.1758C178.35 34.1758 177.301 33.7539 176.492 32.9102C175.684 32.0605 175.279 30.9268 175.279 29.5088V29.21C175.279 28.2666 175.458 27.4258 175.815 26.6875C176.179 25.9434 176.683 25.3633 177.327 24.9473C177.978 24.5254 178.681 24.3145 179.437 24.3145C180.673 24.3145 181.634 24.7217 182.319 25.5361C183.005 26.3506 183.348 27.5166 183.348 29.0342V29.7109H176.905C176.929 30.6484 177.201 31.4072 177.723 31.9873C178.25 32.5615 178.918 32.8486 179.727 32.8486C180.301 32.8486 180.787 32.7314 181.186 32.4971C181.584 32.2627 181.933 31.9521 182.231 31.5654L183.225 32.3389C182.428 33.5635 181.232 34.1758 179.639 34.1758ZM179.437 25.6504C178.78 25.6504 178.229 25.8906 177.784 26.3711C177.339 26.8457 177.063 27.5137 176.958 28.375H181.722V28.252C181.675 27.4258 181.452 26.7871 181.054 26.3359C180.655 25.8789 180.116 25.6504 179.437 25.6504ZM189.184 34.1758C187.895 34.1758 186.846 33.7539 186.037 32.9102C185.229 32.0605 184.824 30.9268 184.824 29.5088V29.21C184.824 28.2666 185.003 27.4258 185.36 26.6875C185.724 25.9434 186.228 25.3633 186.872 24.9473C187.522 24.5254 188.226 24.3145 188.981 24.3145C190.218 24.3145 191.179 24.7217 191.864 25.5361C192.55 26.3506 192.893 27.5166 192.893 29.0342V29.7109H186.45C186.474 30.6484 186.746 31.4072 187.268 31.9873C187.795 32.5615 188.463 32.8486 189.271 32.8486C189.846 32.8486 190.332 32.7314 190.73 32.4971C191.129 32.2627 191.478 31.9521 191.776 31.5654L192.77 32.3389C191.973 33.5635 190.777 34.1758 189.184 34.1758ZM188.981 25.6504C188.325 25.6504 187.774 25.8906 187.329 26.3711C186.884 26.8457 186.608 27.5137 186.503 28.375H191.267V28.252C191.22 27.4258 190.997 26.7871 190.599 26.3359C190.2 25.8789 189.661 25.6504 188.981 25.6504Z" fill="black"/>
</svg>
