<svg width="188" height="74" viewBox="0 0 188 74" fill="none" xmlns="http://www.w3.org/2000/svg">
<path d="M161.982 1H25.588C12.0414 1 1 12.4205 1 26.4322C1 40.4438 12.0414 51.8643 25.588 51.8643H126.353L141.198 71.0584V51.8643H161.982C175.529 51.8643 186.57 40.4438 186.57 26.4322C186.57 12.4205 175.529 1 161.982 1Z" fill="white" stroke="#153343" stroke-width="2" stroke-miterlimit="10"/>
<path d="M40.2002 31.3213C39.7666 31.9424 39.1602 32.4082 38.3809 32.7188C37.6074 33.0234 36.7051 33.1758 35.6738 33.1758C34.6309 33.1758 33.7051 32.9326 32.8965 32.4463C32.0879 31.9541 31.4609 31.2568 31.0156 30.3545C30.5762 29.4521 30.3506 28.4062 30.3389 27.2168V26.1006C30.3389 24.1729 30.7871 22.6787 31.6836 21.6182C32.5859 20.5576 33.8516 20.0273 35.4805 20.0273C36.8164 20.0273 37.8916 20.3701 38.7061 21.0557C39.5205 21.7354 40.0186 22.7021 40.2002 23.9561H38.5127C38.1963 22.2627 37.1885 21.416 35.4893 21.416C34.3584 21.416 33.5 21.8145 32.9141 22.6113C32.334 23.4023 32.041 24.5508 32.0352 26.0566V27.1025C32.0352 28.5381 32.3633 29.6807 33.0195 30.5303C33.6758 31.374 34.5635 31.7959 35.6826 31.7959C36.3154 31.7959 36.8691 31.7256 37.3438 31.585C37.8184 31.4443 38.2109 31.207 38.5215 30.873V27.999H35.5596V26.6279H40.2002V31.3213ZM48.6377 32.0596C48.0049 32.8037 47.0762 33.1758 45.8516 33.1758C44.8379 33.1758 44.0645 32.8828 43.5312 32.2969C43.0039 31.7051 42.7373 30.832 42.7314 29.6777V23.4902H44.3574V29.6338C44.3574 31.0752 44.9434 31.7959 46.1152 31.7959C47.3574 31.7959 48.1836 31.333 48.5938 30.4072V23.4902H50.2197V33H48.6729L48.6377 32.0596ZM58.5693 33C58.4756 32.8125 58.3994 32.4785 58.3408 31.998C57.585 32.7832 56.6826 33.1758 55.6338 33.1758C54.6963 33.1758 53.9258 32.9121 53.3223 32.3848C52.7246 31.8516 52.4258 31.1777 52.4258 30.3633C52.4258 29.373 52.8008 28.6055 53.5508 28.0605C54.3066 27.5098 55.3672 27.2344 56.7324 27.2344H58.3145V26.4873C58.3145 25.9189 58.1445 25.4678 57.8047 25.1338C57.4648 24.7939 56.9639 24.624 56.3018 24.624C55.7217 24.624 55.2354 24.7705 54.8428 25.0635C54.4502 25.3564 54.2539 25.7109 54.2539 26.127H52.6191C52.6191 25.6523 52.7861 25.1953 53.1201 24.7559C53.46 24.3105 53.917 23.959 54.4912 23.7012C55.0713 23.4434 55.707 23.3145 56.3984 23.3145C57.4941 23.3145 58.3525 23.5898 58.9736 24.1406C59.5947 24.6855 59.917 25.4385 59.9404 26.3994V30.7764C59.9404 31.6494 60.0518 32.3438 60.2744 32.8594V33H58.5693ZM55.8711 31.7607C56.3809 31.7607 56.8643 31.6289 57.3213 31.3652C57.7783 31.1016 58.1094 30.7588 58.3145 30.3369V28.3857H57.04C55.0479 28.3857 54.0518 28.9688 54.0518 30.1348C54.0518 30.6445 54.2217 31.043 54.5615 31.3301C54.9014 31.6172 55.3379 31.7607 55.8711 31.7607ZM67.0859 24.9492C66.8398 24.9082 66.5732 24.8877 66.2861 24.8877C65.2197 24.8877 64.4961 25.3418 64.1152 26.25V33H62.4893V23.4902H64.0713L64.0977 24.5889C64.6309 23.7393 65.3867 23.3145 66.3652 23.3145C66.6816 23.3145 66.9219 23.3555 67.0859 23.4375V24.9492ZM74.1084 33C74.0146 32.8125 73.9385 32.4785 73.8799 31.998C73.124 32.7832 72.2217 33.1758 71.1729 33.1758C70.2354 33.1758 69.4648 32.9121 68.8613 32.3848C68.2637 31.8516 67.9648 31.1777 67.9648 30.3633C67.9648 29.373 68.3398 28.6055 69.0898 28.0605C69.8457 27.5098 70.9062 27.2344 72.2715 27.2344H73.8535V26.4873C73.8535 25.9189 73.6836 25.4678 73.3438 25.1338C73.0039 24.7939 72.5029 24.624 71.8408 24.624C71.2607 24.624 70.7744 24.7705 70.3818 25.0635C69.9893 25.3564 69.793 25.7109 69.793 26.127H68.1582C68.1582 25.6523 68.3252 25.1953 68.6592 24.7559C68.999 24.3105 69.4561 23.959 70.0303 23.7012C70.6104 23.4434 71.2461 23.3145 71.9375 23.3145C73.0332 23.3145 73.8916 23.5898 74.5127 24.1406C75.1338 24.6855 75.4561 25.4385 75.4795 26.3994V30.7764C75.4795 31.6494 75.5908 32.3438 75.8135 32.8594V33H74.1084ZM71.4102 31.7607C71.9199 31.7607 72.4033 31.6289 72.8604 31.3652C73.3174 31.1016 73.6484 30.7588 73.8535 30.3369V28.3857H72.5791C70.5869 28.3857 69.5908 28.9688 69.5908 30.1348C69.5908 30.6445 69.7607 31.043 70.1006 31.3301C70.4404 31.6172 70.877 31.7607 71.4102 31.7607ZM79.5664 23.4902L79.6191 24.6855C80.3457 23.7715 81.2949 23.3145 82.4668 23.3145C84.4766 23.3145 85.4902 24.4482 85.5078 26.7158V33H83.8818V26.707C83.876 26.0215 83.7178 25.5146 83.4072 25.1865C83.1025 24.8584 82.625 24.6943 81.9746 24.6943C81.4473 24.6943 80.9844 24.835 80.5859 25.1162C80.1875 25.3975 79.877 25.7666 79.6543 26.2236V33H78.0283V23.4902H79.5664ZM90.166 21.1875V23.4902H91.9414V24.7471H90.166V30.6445C90.166 31.0254 90.2451 31.3125 90.4033 31.5059C90.5615 31.6934 90.8311 31.7871 91.2119 31.7871C91.3994 31.7871 91.6572 31.752 91.9854 31.6816V33C91.5576 33.1172 91.1416 33.1758 90.7373 33.1758C90.0107 33.1758 89.4629 32.9561 89.0938 32.5166C88.7246 32.0771 88.54 31.4531 88.54 30.6445V24.7471H86.8086V23.4902H88.54V21.1875H90.166ZM97.7949 33.1758C96.5059 33.1758 95.457 32.7539 94.6484 31.9102C93.8398 31.0605 93.4355 29.9268 93.4355 28.5088V28.21C93.4355 27.2666 93.6143 26.4258 93.9717 25.6875C94.335 24.9434 94.8389 24.3633 95.4834 23.9473C96.1338 23.5254 96.8369 23.3145 97.5928 23.3145C98.8291 23.3145 99.79 23.7217 100.476 24.5361C101.161 25.3506 101.504 26.5166 101.504 28.0342V28.7109H95.0615C95.085 29.6484 95.3574 30.4072 95.8789 30.9873C96.4062 31.5615 97.0742 31.8486 97.8828 31.8486C98.457 31.8486 98.9434 31.7314 99.3418 31.4971C99.7402 31.2627 100.089 30.9521 100.388 30.5654L101.381 31.3389C100.584 32.5635 99.3887 33.1758 97.7949 33.1758ZM97.5928 24.6504C96.9365 24.6504 96.3857 24.8906 95.9404 25.3711C95.4951 25.8457 95.2197 26.5137 95.1143 27.375H99.8779V27.252C99.8311 26.4258 99.6084 25.7871 99.21 25.3359C98.8115 24.8789 98.2725 24.6504 97.5928 24.6504ZM107.34 33.1758C106.051 33.1758 105.002 32.7539 104.193 31.9102C103.385 31.0605 102.98 29.9268 102.98 28.5088V28.21C102.98 27.2666 103.159 26.4258 103.517 25.6875C103.88 24.9434 104.384 24.3633 105.028 23.9473C105.679 23.5254 106.382 23.3145 107.138 23.3145C108.374 23.3145 109.335 23.7217 110.021 24.5361C110.706 25.3506 111.049 26.5166 111.049 28.0342V28.7109H104.606C104.63 29.6484 104.902 30.4072 105.424 30.9873C105.951 31.5615 106.619 31.8486 107.428 31.8486C108.002 31.8486 108.488 31.7314 108.887 31.4971C109.285 31.2627 109.634 30.9521 109.933 30.5654L110.926 31.3389C110.129 32.5635 108.934 33.1758 107.34 33.1758ZM107.138 24.6504C106.481 24.6504 105.931 24.8906 105.485 25.3711C105.04 25.8457 104.765 26.5137 104.659 27.375H109.423V27.252C109.376 26.4258 109.153 25.7871 108.755 25.3359C108.356 24.8789 107.817 24.6504 107.138 24.6504ZM112.543 28.166C112.543 26.707 112.889 25.5352 113.58 24.6504C114.271 23.7598 115.177 23.3145 116.296 23.3145C117.409 23.3145 118.291 23.6953 118.941 24.457V19.5H120.567V33H119.073L118.994 31.9805C118.344 32.7773 117.438 33.1758 116.278 33.1758C115.177 33.1758 114.277 32.7246 113.58 31.8223C112.889 30.9199 112.543 29.7422 112.543 28.2891V28.166ZM114.169 28.3506C114.169 29.4287 114.392 30.2725 114.837 30.8818C115.282 31.4912 115.897 31.7959 116.683 31.7959C117.714 31.7959 118.467 31.333 118.941 30.4072V26.0391C118.455 25.1426 117.708 24.6943 116.7 24.6943C115.903 24.6943 115.282 25.002 114.837 25.6172C114.392 26.2324 114.169 27.1436 114.169 28.3506ZM131.589 27.2959C130.142 26.8799 129.087 26.3701 128.425 25.7666C127.769 25.1572 127.44 24.4072 127.44 23.5166C127.44 22.5088 127.842 21.6768 128.645 21.0205C129.453 20.3584 130.502 20.0273 131.791 20.0273C132.67 20.0273 133.452 20.1973 134.138 20.5371C134.829 20.877 135.362 21.3457 135.737 21.9434C136.118 22.541 136.309 23.1943 136.309 23.9033H134.612C134.612 23.1299 134.366 22.5234 133.874 22.084C133.382 21.6387 132.688 21.416 131.791 21.416C130.959 21.416 130.309 21.6006 129.84 21.9697C129.377 22.333 129.146 22.8398 129.146 23.4902C129.146 24.0117 129.365 24.4541 129.805 24.8174C130.25 25.1748 131.003 25.5029 132.063 25.8018C133.13 26.1006 133.962 26.4316 134.56 26.7949C135.163 27.1523 135.608 27.5713 135.896 28.0518C136.188 28.5322 136.335 29.0977 136.335 29.748C136.335 30.7852 135.931 31.6172 135.122 32.2441C134.313 32.8652 133.232 33.1758 131.879 33.1758C131 33.1758 130.18 33.0088 129.418 32.6748C128.656 32.335 128.067 31.8721 127.651 31.2861C127.241 30.7002 127.036 30.0352 127.036 29.291H128.732C128.732 30.0645 129.017 30.6768 129.585 31.1279C130.159 31.5732 130.924 31.7959 131.879 31.7959C132.77 31.7959 133.452 31.6143 133.927 31.251C134.401 30.8877 134.639 30.3926 134.639 29.7656C134.639 29.1387 134.419 28.6553 133.979 28.3154C133.54 27.9697 132.743 27.6299 131.589 27.2959ZM144.122 33C144.028 32.8125 143.952 32.4785 143.894 31.998C143.138 32.7832 142.235 33.1758 141.187 33.1758C140.249 33.1758 139.479 32.9121 138.875 32.3848C138.277 31.8516 137.979 31.1777 137.979 30.3633C137.979 29.373 138.354 28.6055 139.104 28.0605C139.859 27.5098 140.92 27.2344 142.285 27.2344H143.867V26.4873C143.867 25.9189 143.697 25.4678 143.357 25.1338C143.018 24.7939 142.517 24.624 141.854 24.624C141.274 24.624 140.788 24.7705 140.396 25.0635C140.003 25.3564 139.807 25.7109 139.807 26.127H138.172C138.172 25.6523 138.339 25.1953 138.673 24.7559C139.013 24.3105 139.47 23.959 140.044 23.7012C140.624 23.4434 141.26 23.3145 141.951 23.3145C143.047 23.3145 143.905 23.5898 144.526 24.1406C145.147 24.6855 145.47 25.4385 145.493 26.3994V30.7764C145.493 31.6494 145.604 32.3438 145.827 32.8594V33H144.122ZM141.424 31.7607C141.934 31.7607 142.417 31.6289 142.874 31.3652C143.331 31.1016 143.662 30.7588 143.867 30.3369V28.3857H142.593C140.601 28.3857 139.604 28.9688 139.604 30.1348C139.604 30.6445 139.774 31.043 140.114 31.3301C140.454 31.6172 140.891 31.7607 141.424 31.7607ZM149.809 33H148.183V19.5H149.809V33ZM156.365 33.1758C155.076 33.1758 154.027 32.7539 153.219 31.9102C152.41 31.0605 152.006 29.9268 152.006 28.5088V28.21C152.006 27.2666 152.185 26.4258 152.542 25.6875C152.905 24.9434 153.409 24.3633 154.054 23.9473C154.704 23.5254 155.407 23.3145 156.163 23.3145C157.399 23.3145 158.36 23.7217 159.046 24.5361C159.731 25.3506 160.074 26.5166 160.074 28.0342V28.7109H153.632C153.655 29.6484 153.928 30.4072 154.449 30.9873C154.977 31.5615 155.645 31.8486 156.453 31.8486C157.027 31.8486 157.514 31.7314 157.912 31.4971C158.311 31.2627 158.659 30.9521 158.958 30.5654L159.951 31.3389C159.154 32.5635 157.959 33.1758 156.365 33.1758ZM156.163 24.6504C155.507 24.6504 154.956 24.8906 154.511 25.3711C154.065 25.8457 153.79 26.5137 153.685 27.375H158.448V27.252C158.401 26.4258 158.179 25.7871 157.78 25.3359C157.382 24.8789 156.843 24.6504 156.163 24.6504Z" fill="black"/>
</svg>
