<svg width="217" height="77" viewBox="0 0 217 77" fill="none" xmlns="http://www.w3.org/2000/svg">
<path d="M189.5 1H27.5C12.9 1 1 12.9 1 27.5C1 42.1 12.9 54 27.5 54H151.1L167.1 74V54H189.5C204.1 54 216 42.1 216 27.5C216 12.9 204.1 1 189.5 1Z" fill="white" stroke="#153343" stroke-width="2" stroke-miterlimit="10"/>
<path d="M47.0811 29.9395C46.9229 31.293 46.4219 32.3389 45.5781 33.0771C44.7402 33.8096 43.624 34.1758 42.2295 34.1758C40.7178 34.1758 39.5049 33.6338 38.5908 32.5498C37.6826 31.4658 37.2285 30.0156 37.2285 28.1992V26.9688C37.2285 25.7793 37.4395 24.7334 37.8613 23.8311C38.2891 22.9287 38.8926 22.2373 39.6719 21.7568C40.4512 21.2705 41.3535 21.0273 42.3789 21.0273C43.7383 21.0273 44.8281 21.4082 45.6484 22.1699C46.4688 22.9258 46.9463 23.9746 47.0811 25.3164H45.3848C45.2383 24.2969 44.9189 23.5586 44.4268 23.1016C43.9404 22.6445 43.2578 22.416 42.3789 22.416C41.3008 22.416 40.4541 22.8145 39.8389 23.6113C39.2295 24.4082 38.9248 25.542 38.9248 27.0127V28.252C38.9248 29.6406 39.2148 30.7451 39.7949 31.5654C40.375 32.3857 41.1865 32.7959 42.2295 32.7959C43.167 32.7959 43.8848 32.585 44.3828 32.1631C44.8867 31.7354 45.2207 30.9941 45.3848 29.9395H47.0811ZM48.707 29.1572C48.707 28.2256 48.8887 27.3877 49.252 26.6436C49.6211 25.8994 50.1309 25.3252 50.7812 24.9209C51.4375 24.5166 52.1846 24.3145 53.0225 24.3145C54.3174 24.3145 55.3633 24.7627 56.1602 25.6592C56.9629 26.5557 57.3643 27.748 57.3643 29.2363V29.3506C57.3643 30.2764 57.1855 31.1084 56.8281 31.8467C56.4766 32.5791 55.9697 33.1504 55.3076 33.5605C54.6514 33.9707 53.8955 34.1758 53.04 34.1758C51.751 34.1758 50.7051 33.7275 49.9023 32.8311C49.1055 31.9346 48.707 30.748 48.707 29.2715V29.1572ZM50.3418 29.3506C50.3418 30.4053 50.585 31.252 51.0713 31.8906C51.5635 32.5293 52.2197 32.8486 53.04 32.8486C53.8662 32.8486 54.5225 32.5264 55.0088 31.8818C55.4951 31.2314 55.7383 30.3232 55.7383 29.1572C55.7383 28.1143 55.4893 27.2705 54.9912 26.626C54.499 25.9756 53.8428 25.6504 53.0225 25.6504C52.2197 25.6504 51.5723 25.9697 51.0801 26.6084C50.5879 27.2471 50.3418 28.1611 50.3418 29.3506ZM60.9414 24.4902L60.9941 25.6855C61.7207 24.7715 62.6699 24.3145 63.8418 24.3145C65.8516 24.3145 66.8652 25.4482 66.8828 27.7158V34H65.2568V27.707C65.251 27.0215 65.0928 26.5146 64.7822 26.1865C64.4775 25.8584 64 25.6943 63.3496 25.6943C62.8223 25.6943 62.3594 25.835 61.9609 26.1162C61.5625 26.3975 61.252 26.7666 61.0293 27.2236V34H59.4033V24.4902H60.9414ZM74.8721 31.4775C74.8721 31.0381 74.7051 30.6982 74.3711 30.458C74.043 30.2119 73.4658 30.001 72.6396 29.8252C71.8193 29.6494 71.166 29.4385 70.6797 29.1924C70.1992 28.9463 69.8418 28.6533 69.6074 28.3135C69.3789 27.9736 69.2646 27.5693 69.2646 27.1006C69.2646 26.3213 69.5928 25.6621 70.249 25.123C70.9111 24.584 71.7549 24.3145 72.7803 24.3145C73.8584 24.3145 74.7314 24.5928 75.3994 25.1494C76.0732 25.7061 76.4102 26.418 76.4102 27.2852H74.7754C74.7754 26.8398 74.585 26.4561 74.2041 26.1338C73.8291 25.8115 73.3545 25.6504 72.7803 25.6504C72.1885 25.6504 71.7256 25.7793 71.3916 26.0371C71.0576 26.2949 70.8906 26.6318 70.8906 27.0479C70.8906 27.4404 71.0459 27.7363 71.3564 27.9355C71.667 28.1348 72.2266 28.3252 73.0352 28.5068C73.8496 28.6885 74.5088 28.9053 75.0127 29.1572C75.5166 29.4092 75.8887 29.7139 76.1289 30.0713C76.375 30.4229 76.498 30.8535 76.498 31.3633C76.498 32.2129 76.1582 32.8955 75.4785 33.4111C74.7988 33.9209 73.917 34.1758 72.833 34.1758C72.0713 34.1758 71.3975 34.041 70.8115 33.7715C70.2256 33.502 69.7656 33.127 69.4316 32.6465C69.1035 32.1602 68.9395 31.6357 68.9395 31.0732H70.5654C70.5947 31.6182 70.8115 32.0518 71.2158 32.374C71.626 32.6904 72.165 32.8486 72.833 32.8486C73.4482 32.8486 73.9404 32.7256 74.3096 32.4795C74.6846 32.2275 74.8721 31.8936 74.8721 31.4775ZM80.3828 34H78.7568V24.4902H80.3828V34ZM78.625 21.9678C78.625 21.7041 78.7041 21.4814 78.8623 21.2998C79.0264 21.1182 79.2666 21.0273 79.583 21.0273C79.8994 21.0273 80.1396 21.1182 80.3037 21.2998C80.4678 21.4814 80.5498 21.7041 80.5498 21.9678C80.5498 22.2314 80.4678 22.4512 80.3037 22.627C80.1396 22.8027 79.8994 22.8906 79.583 22.8906C79.2666 22.8906 79.0264 22.8027 78.8623 22.627C78.7041 22.4512 78.625 22.2314 78.625 21.9678ZM82.6064 29.166C82.6064 27.6836 82.9492 26.5059 83.6348 25.6328C84.3203 24.7539 85.2285 24.3145 86.3594 24.3145C87.5195 24.3145 88.4248 24.7246 89.0752 25.5449L89.1543 24.4902H90.6396V33.7715C90.6396 35.002 90.2734 35.9717 89.541 36.6807C88.8145 37.3896 87.8359 37.7441 86.6055 37.7441C85.9199 37.7441 85.249 37.5977 84.5928 37.3047C83.9365 37.0117 83.4355 36.6104 83.0898 36.1006L83.9336 35.125C84.6309 35.9863 85.4834 36.417 86.4912 36.417C87.2822 36.417 87.8975 36.1943 88.3369 35.749C88.7822 35.3037 89.0049 34.6768 89.0049 33.8682V33.0508C88.3545 33.8008 87.4668 34.1758 86.3418 34.1758C85.2285 34.1758 84.3262 33.7275 83.6348 32.8311C82.9492 31.9346 82.6064 30.7129 82.6064 29.166ZM84.2412 29.3506C84.2412 30.4229 84.4609 31.2666 84.9004 31.8818C85.3398 32.4912 85.9551 32.7959 86.7461 32.7959C87.7715 32.7959 88.5244 32.3301 89.0049 31.3984V27.0566C88.5068 26.1484 87.7598 25.6943 86.7637 25.6943C85.9727 25.6943 85.3545 26.002 84.9092 26.6172C84.4639 27.2324 84.2412 28.1436 84.2412 29.3506ZM94.6387 24.4902L94.6914 25.6855C95.418 24.7715 96.3672 24.3145 97.5391 24.3145C99.5488 24.3145 100.562 25.4482 100.58 27.7158V34H98.9541V27.707C98.9482 27.0215 98.79 26.5146 98.4795 26.1865C98.1748 25.8584 97.6973 25.6943 97.0469 25.6943C96.5195 25.6943 96.0566 25.835 95.6582 26.1162C95.2598 26.3975 94.9492 26.7666 94.7266 27.2236V34H93.1006V24.4902H94.6387ZM104.562 24.4902L104.605 25.5449C105.303 24.7246 106.243 24.3145 107.427 24.3145C108.757 24.3145 109.662 24.8242 110.143 25.8438C110.459 25.3867 110.869 25.0176 111.373 24.7363C111.883 24.4551 112.483 24.3145 113.175 24.3145C115.261 24.3145 116.321 25.4189 116.356 27.6279V34H114.73V27.7246C114.73 27.0449 114.575 26.5381 114.265 26.2041C113.954 25.8643 113.433 25.6943 112.7 25.6943C112.097 25.6943 111.596 25.876 111.197 26.2393C110.799 26.5967 110.567 27.0801 110.503 27.6895V34H108.868V27.7686C108.868 26.3857 108.191 25.6943 106.838 25.6943C105.771 25.6943 105.042 26.1484 104.649 27.0566V34H103.023V24.4902H104.562ZM122.764 34.1758C121.475 34.1758 120.426 33.7539 119.617 32.9102C118.809 32.0605 118.404 30.9268 118.404 29.5088V29.21C118.404 28.2666 118.583 27.4258 118.94 26.6875C119.304 25.9434 119.808 25.3633 120.452 24.9473C121.103 24.5254 121.806 24.3145 122.562 24.3145C123.798 24.3145 124.759 24.7217 125.444 25.5361C126.13 26.3506 126.473 27.5166 126.473 29.0342V29.7109H120.03C120.054 30.6484 120.326 31.4072 120.848 31.9873C121.375 32.5615 122.043 32.8486 122.852 32.8486C123.426 32.8486 123.912 32.7314 124.311 32.4971C124.709 32.2627 125.058 31.9521 125.356 31.5654L126.35 32.3389C125.553 33.5635 124.357 34.1758 122.764 34.1758ZM122.562 25.6504C121.905 25.6504 121.354 25.8906 120.909 26.3711C120.464 26.8457 120.188 27.5137 120.083 28.375H124.847V28.252C124.8 27.4258 124.577 26.7871 124.179 26.3359C123.78 25.8789 123.241 25.6504 122.562 25.6504ZM129.9 24.4902L129.953 25.6855C130.68 24.7715 131.629 24.3145 132.801 24.3145C134.811 24.3145 135.824 25.4482 135.842 27.7158V34H134.216V27.707C134.21 27.0215 134.052 26.5146 133.741 26.1865C133.437 25.8584 132.959 25.6943 132.309 25.6943C131.781 25.6943 131.318 25.835 130.92 26.1162C130.521 26.3975 130.211 26.7666 129.988 27.2236V34H128.362V24.4902H129.9ZM140.5 22.1875V24.4902H142.275V25.7471H140.5V31.6445C140.5 32.0254 140.579 32.3125 140.737 32.5059C140.896 32.6934 141.165 32.7871 141.546 32.7871C141.733 32.7871 141.991 32.752 142.319 32.6816V34C141.892 34.1172 141.476 34.1758 141.071 34.1758C140.345 34.1758 139.797 33.9561 139.428 33.5166C139.059 33.0771 138.874 32.4531 138.874 31.6445V25.7471H137.143V24.4902H138.874V22.1875H140.5ZM152.673 28.2959C151.226 27.8799 150.171 27.3701 149.509 26.7666C148.853 26.1572 148.524 25.4072 148.524 24.5166C148.524 23.5088 148.926 22.6768 149.729 22.0205C150.537 21.3584 151.586 21.0273 152.875 21.0273C153.754 21.0273 154.536 21.1973 155.222 21.5371C155.913 21.877 156.446 22.3457 156.821 22.9434C157.202 23.541 157.393 24.1943 157.393 24.9033H155.696C155.696 24.1299 155.45 23.5234 154.958 23.084C154.466 22.6387 153.771 22.416 152.875 22.416C152.043 22.416 151.393 22.6006 150.924 22.9697C150.461 23.333 150.229 23.8398 150.229 24.4902C150.229 25.0117 150.449 25.4541 150.889 25.8174C151.334 26.1748 152.087 26.5029 153.147 26.8018C154.214 27.1006 155.046 27.4316 155.644 27.7949C156.247 28.1523 156.692 28.5713 156.979 29.0518C157.272 29.5322 157.419 30.0977 157.419 30.748C157.419 31.7852 157.015 32.6172 156.206 33.2441C155.397 33.8652 154.316 34.1758 152.963 34.1758C152.084 34.1758 151.264 34.0088 150.502 33.6748C149.74 33.335 149.151 32.8721 148.735 32.2861C148.325 31.7002 148.12 31.0352 148.12 30.291H149.816C149.816 31.0645 150.101 31.6768 150.669 32.1279C151.243 32.5732 152.008 32.7959 152.963 32.7959C153.854 32.7959 154.536 32.6143 155.011 32.251C155.485 31.8877 155.723 31.3926 155.723 30.7656C155.723 30.1387 155.503 29.6553 155.063 29.3154C154.624 28.9697 153.827 28.6299 152.673 28.2959ZM165.206 34C165.112 33.8125 165.036 33.4785 164.978 32.998C164.222 33.7832 163.319 34.1758 162.271 34.1758C161.333 34.1758 160.562 33.9121 159.959 33.3848C159.361 32.8516 159.062 32.1777 159.062 31.3633C159.062 30.373 159.438 29.6055 160.188 29.0605C160.943 28.5098 162.004 28.2344 163.369 28.2344H164.951V27.4873C164.951 26.9189 164.781 26.4678 164.441 26.1338C164.102 25.7939 163.601 25.624 162.938 25.624C162.358 25.624 161.872 25.7705 161.479 26.0635C161.087 26.3564 160.891 26.7109 160.891 27.127H159.256C159.256 26.6523 159.423 26.1953 159.757 25.7559C160.097 25.3105 160.554 24.959 161.128 24.7012C161.708 24.4434 162.344 24.3145 163.035 24.3145C164.131 24.3145 164.989 24.5898 165.61 25.1406C166.231 25.6855 166.554 26.4385 166.577 27.3994V31.7764C166.577 32.6494 166.688 33.3438 166.911 33.8594V34H165.206ZM162.508 32.7607C163.018 32.7607 163.501 32.6289 163.958 32.3652C164.415 32.1016 164.746 31.7588 164.951 31.3369V29.3857H163.677C161.685 29.3857 160.688 29.9688 160.688 31.1348C160.688 31.6445 160.858 32.043 161.198 32.3301C161.538 32.6172 161.975 32.7607 162.508 32.7607ZM170.893 34H169.267V20.5H170.893V34ZM177.449 34.1758C176.16 34.1758 175.111 33.7539 174.303 32.9102C173.494 32.0605 173.09 30.9268 173.09 29.5088V29.21C173.09 28.2666 173.269 27.4258 173.626 26.6875C173.989 25.9434 174.493 25.3633 175.138 24.9473C175.788 24.5254 176.491 24.3145 177.247 24.3145C178.483 24.3145 179.444 24.7217 180.13 25.5361C180.815 26.3506 181.158 27.5166 181.158 29.0342V29.7109H174.716C174.739 30.6484 175.012 31.4072 175.533 31.9873C176.061 32.5615 176.729 32.8486 177.537 32.8486C178.111 32.8486 178.598 32.7314 178.996 32.4971C179.395 32.2627 179.743 31.9521 180.042 31.5654L181.035 32.3389C180.238 33.5635 179.043 34.1758 177.449 34.1758ZM177.247 25.6504C176.591 25.6504 176.04 25.8906 175.595 26.3711C175.149 26.8457 174.874 27.5137 174.769 28.375H179.532V28.252C179.485 27.4258 179.263 26.7871 178.864 26.3359C178.466 25.8789 177.927 25.6504 177.247 25.6504Z" fill="black"/>
</svg>
