<svg width="205" height="73" viewBox="0 0 205 73" fill="none" xmlns="http://www.w3.org/2000/svg">
<path d="M178.891 1H26.0086C12.2303 1 1 12.1848 1 25.9073C1 39.6298 12.2303 50.8146 26.0086 50.8146H142.653L157.752 69.6125V50.8146H178.891C192.67 50.8146 203.9 39.6298 203.9 25.9073C203.9 12.1848 192.67 1 178.891 1Z" fill="white" stroke="#153343" stroke-width="2" stroke-miterlimit="10"/>
<path d="M37.3965 26.2959C35.9492 25.8799 34.8945 25.3701 34.2324 24.7666C33.5762 24.1572 33.248 23.4072 33.248 22.5166C33.248 21.5088 33.6494 20.6768 34.4521 20.0205C35.2607 19.3584 36.3096 19.0273 37.5986 19.0273C38.4775 19.0273 39.2598 19.1973 39.9453 19.5371C40.6367 19.877 41.1699 20.3457 41.5449 20.9434C41.9258 21.541 42.1162 22.1943 42.1162 22.9033H40.4199C40.4199 22.1299 40.1738 21.5234 39.6816 21.084C39.1895 20.6387 38.4951 20.416 37.5986 20.416C36.7666 20.416 36.1162 20.6006 35.6475 20.9697C35.1846 21.333 34.9531 21.8398 34.9531 22.4902C34.9531 23.0117 35.1729 23.4541 35.6123 23.8174C36.0576 24.1748 36.8105 24.5029 37.8711 24.8018C38.9375 25.1006 39.7695 25.4316 40.3672 25.7949C40.9707 26.1523 41.416 26.5713 41.7031 27.0518C41.9961 27.5322 42.1426 28.0977 42.1426 28.748C42.1426 29.7852 41.7383 30.6172 40.9297 31.2441C40.1211 31.8652 39.04 32.1758 37.6865 32.1758C36.8076 32.1758 35.9873 32.0088 35.2256 31.6748C34.4639 31.335 33.875 30.8721 33.459 30.2861C33.0488 29.7002 32.8438 29.0352 32.8438 28.291H34.54C34.54 29.0645 34.8242 29.6768 35.3926 30.1279C35.9668 30.5732 36.7314 30.7959 37.6865 30.7959C38.5771 30.7959 39.2598 30.6143 39.7344 30.251C40.209 29.8877 40.4463 29.3926 40.4463 28.7656C40.4463 28.1387 40.2266 27.6553 39.7871 27.3154C39.3477 26.9697 38.5508 26.6299 37.3965 26.2959ZM47.873 30.8486C48.4531 30.8486 48.96 30.6729 49.3936 30.3213C49.8271 29.9697 50.0674 29.5303 50.1143 29.0029H51.6523C51.623 29.5479 51.4355 30.0664 51.0898 30.5586C50.7441 31.0508 50.2812 31.4434 49.7012 31.7363C49.127 32.0293 48.5176 32.1758 47.873 32.1758C46.5781 32.1758 45.5469 31.7451 44.7793 30.8838C44.0176 30.0166 43.6367 28.833 43.6367 27.333V27.0605C43.6367 26.1348 43.8066 25.3115 44.1465 24.5908C44.4863 23.8701 44.9727 23.3105 45.6055 22.9121C46.2441 22.5137 46.9971 22.3145 47.8643 22.3145C48.9307 22.3145 49.8154 22.6338 50.5186 23.2725C51.2275 23.9111 51.6055 24.7402 51.6523 25.7598H50.1143C50.0674 25.1445 49.833 24.6406 49.4111 24.248C48.9951 23.8496 48.4795 23.6504 47.8643 23.6504C47.0381 23.6504 46.3965 23.9492 45.9395 24.5469C45.4883 25.1387 45.2627 25.9971 45.2627 27.1221V27.4297C45.2627 28.5254 45.4883 29.3691 45.9395 29.9609C46.3906 30.5527 47.0352 30.8486 47.873 30.8486ZM59.3516 32C59.2578 31.8125 59.1816 31.4785 59.123 30.998C58.3672 31.7832 57.4648 32.1758 56.416 32.1758C55.4785 32.1758 54.708 31.9121 54.1045 31.3848C53.5068 30.8516 53.208 30.1777 53.208 29.3633C53.208 28.373 53.583 27.6055 54.333 27.0605C55.0889 26.5098 56.1494 26.2344 57.5146 26.2344H59.0967V25.4873C59.0967 24.9189 58.9268 24.4678 58.5869 24.1338C58.2471 23.7939 57.7461 23.624 57.084 23.624C56.5039 23.624 56.0176 23.7705 55.625 24.0635C55.2324 24.3564 55.0361 24.7109 55.0361 25.127H53.4014C53.4014 24.6523 53.5684 24.1953 53.9023 23.7559C54.2422 23.3105 54.6992 22.959 55.2734 22.7012C55.8535 22.4434 56.4893 22.3145 57.1807 22.3145C58.2764 22.3145 59.1348 22.5898 59.7559 23.1406C60.377 23.6855 60.6992 24.4385 60.7227 25.3994V29.7764C60.7227 30.6494 60.834 31.3438 61.0566 31.8594V32H59.3516ZM56.6533 30.7607C57.1631 30.7607 57.6465 30.6289 58.1035 30.3652C58.5605 30.1016 58.8916 29.7588 59.0967 29.3369V27.3857H57.8223C55.8301 27.3857 54.834 27.9688 54.834 29.1348C54.834 29.6445 55.0039 30.043 55.3438 30.3301C55.6836 30.6172 56.1201 30.7607 56.6533 30.7607ZM64.8096 22.4902L64.8623 23.6855C65.5889 22.7715 66.5381 22.3145 67.71 22.3145C69.7197 22.3145 70.7334 23.4482 70.751 25.7158V32H69.125V25.707C69.1191 25.0215 68.9609 24.5146 68.6504 24.1865C68.3457 23.8584 67.8682 23.6943 67.2178 23.6943C66.6904 23.6943 66.2275 23.835 65.8291 24.1162C65.4307 24.3975 65.1201 24.7666 64.8975 25.2236V32H63.2715V22.4902H64.8096ZM77.9229 32V19.2031H82.1064C83.4951 19.2031 84.5381 19.4902 85.2354 20.0645C85.9385 20.6387 86.29 21.4883 86.29 22.6133C86.29 23.2109 86.1201 23.7412 85.7803 24.2041C85.4404 24.6611 84.9775 25.0156 84.3916 25.2676C85.083 25.4609 85.6279 25.8301 86.0264 26.375C86.4307 26.9141 86.6328 27.5586 86.6328 28.3086C86.6328 29.457 86.2607 30.3594 85.5166 31.0156C84.7725 31.6719 83.7207 32 82.3613 32H77.9229ZM79.6104 26.0146V30.6201H82.3965C83.1816 30.6201 83.7998 30.418 84.251 30.0137C84.708 29.6035 84.9365 29.041 84.9365 28.3262C84.9365 26.7852 84.0986 26.0146 82.4229 26.0146H79.6104ZM79.6104 24.6611H82.1592C82.8975 24.6611 83.4863 24.4766 83.9258 24.1074C84.3711 23.7383 84.5938 23.2373 84.5938 22.6045C84.5938 21.9014 84.3887 21.3916 83.9785 21.0752C83.5684 20.7529 82.9443 20.5918 82.1064 20.5918H79.6104V24.6611ZM94.7539 32C94.6602 31.8125 94.584 31.4785 94.5254 30.998C93.7695 31.7832 92.8672 32.1758 91.8184 32.1758C90.8809 32.1758 90.1104 31.9121 89.5068 31.3848C88.9092 30.8516 88.6104 30.1777 88.6104 29.3633C88.6104 28.373 88.9854 27.6055 89.7354 27.0605C90.4912 26.5098 91.5518 26.2344 92.917 26.2344H94.499V25.4873C94.499 24.9189 94.3291 24.4678 93.9893 24.1338C93.6494 23.7939 93.1484 23.624 92.4863 23.624C91.9062 23.624 91.4199 23.7705 91.0273 24.0635C90.6348 24.3564 90.4385 24.7109 90.4385 25.127H88.8037C88.8037 24.6523 88.9707 24.1953 89.3047 23.7559C89.6445 23.3105 90.1016 22.959 90.6758 22.7012C91.2559 22.4434 91.8916 22.3145 92.583 22.3145C93.6787 22.3145 94.5371 22.5898 95.1582 23.1406C95.7793 23.6855 96.1016 24.4385 96.125 25.3994V29.7764C96.125 30.6494 96.2363 31.3438 96.459 31.8594V32H94.7539ZM92.0557 30.7607C92.5654 30.7607 93.0488 30.6289 93.5059 30.3652C93.9629 30.1016 94.2939 29.7588 94.499 29.3369V27.3857H93.2246C91.2324 27.3857 90.2363 27.9688 90.2363 29.1348C90.2363 29.6445 90.4062 30.043 90.7461 30.3301C91.0859 30.6172 91.5225 30.7607 92.0557 30.7607ZM104.211 29.4775C104.211 29.0381 104.044 28.6982 103.71 28.458C103.382 28.2119 102.805 28.001 101.979 27.8252C101.158 27.6494 100.505 27.4385 100.019 27.1924C99.5381 26.9463 99.1807 26.6533 98.9463 26.3135C98.7178 25.9736 98.6035 25.5693 98.6035 25.1006C98.6035 24.3213 98.9316 23.6621 99.5879 23.123C100.25 22.584 101.094 22.3145 102.119 22.3145C103.197 22.3145 104.07 22.5928 104.738 23.1494C105.412 23.7061 105.749 24.418 105.749 25.2852H104.114C104.114 24.8398 103.924 24.4561 103.543 24.1338C103.168 23.8115 102.693 23.6504 102.119 23.6504C101.527 23.6504 101.064 23.7793 100.73 24.0371C100.396 24.2949 100.229 24.6318 100.229 25.0479C100.229 25.4404 100.385 25.7363 100.695 25.9355C101.006 26.1348 101.565 26.3252 102.374 26.5068C103.188 26.6885 103.848 26.9053 104.352 27.1572C104.855 27.4092 105.228 27.7139 105.468 28.0713C105.714 28.4229 105.837 28.8535 105.837 29.3633C105.837 30.2129 105.497 30.8955 104.817 31.4111C104.138 31.9209 103.256 32.1758 102.172 32.1758C101.41 32.1758 100.736 32.041 100.15 31.7715C99.5645 31.502 99.1045 31.127 98.7705 30.6465C98.4424 30.1602 98.2783 29.6357 98.2783 29.0732H99.9043C99.9336 29.6182 100.15 30.0518 100.555 30.374C100.965 30.6904 101.504 30.8486 102.172 30.8486C102.787 30.8486 103.279 30.7256 103.648 30.4795C104.023 30.2275 104.211 29.8936 104.211 29.4775ZM111.901 32.1758C110.612 32.1758 109.563 31.7539 108.755 30.9102C107.946 30.0605 107.542 28.9268 107.542 27.5088V27.21C107.542 26.2666 107.721 25.4258 108.078 24.6875C108.441 23.9434 108.945 23.3633 109.59 22.9473C110.24 22.5254 110.943 22.3145 111.699 22.3145C112.936 22.3145 113.896 22.7217 114.582 23.5361C115.268 24.3506 115.61 25.5166 115.61 27.0342V27.7109H109.168C109.191 28.6484 109.464 29.4072 109.985 29.9873C110.513 30.5615 111.181 30.8486 111.989 30.8486C112.563 30.8486 113.05 30.7314 113.448 30.4971C113.847 30.2627 114.195 29.9521 114.494 29.5654L115.487 30.3389C114.69 31.5635 113.495 32.1758 111.901 32.1758ZM111.699 23.6504C111.043 23.6504 110.492 23.8906 110.047 24.3711C109.602 24.8457 109.326 25.5137 109.221 26.375H113.984V26.252C113.938 25.4258 113.715 24.7871 113.316 24.3359C112.918 23.8789 112.379 23.6504 111.699 23.6504ZM117.104 27.166C117.104 25.707 117.45 24.5352 118.142 23.6504C118.833 22.7598 119.738 22.3145 120.857 22.3145C121.971 22.3145 122.853 22.6953 123.503 23.457V18.5H125.129V32H123.635L123.556 30.9805C122.905 31.7773 122 32.1758 120.84 32.1758C119.738 32.1758 118.839 31.7246 118.142 30.8223C117.45 29.9199 117.104 28.7422 117.104 27.2891V27.166ZM118.73 27.3506C118.73 28.4287 118.953 29.2725 119.398 29.8818C119.844 30.4912 120.459 30.7959 121.244 30.7959C122.275 30.7959 123.028 30.333 123.503 29.4072V25.0391C123.017 24.1426 122.27 23.6943 121.262 23.6943C120.465 23.6943 119.844 24.002 119.398 24.6172C118.953 25.2324 118.73 26.1436 118.73 27.3506ZM140.87 20.5918H136.757V32H135.078V20.5918H130.974V19.2031H140.87V20.5918ZM146.442 23.9492C146.196 23.9082 145.93 23.8877 145.643 23.8877C144.576 23.8877 143.853 24.3418 143.472 25.25V32H141.846V22.4902H143.428L143.454 23.5889C143.987 22.7393 144.743 22.3145 145.722 22.3145C146.038 22.3145 146.278 22.3555 146.442 22.4375V23.9492ZM153.465 32C153.371 31.8125 153.295 31.4785 153.236 30.998C152.48 31.7832 151.578 32.1758 150.529 32.1758C149.592 32.1758 148.821 31.9121 148.218 31.3848C147.62 30.8516 147.321 30.1777 147.321 29.3633C147.321 28.373 147.696 27.6055 148.446 27.0605C149.202 26.5098 150.263 26.2344 151.628 26.2344H153.21V25.4873C153.21 24.9189 153.04 24.4678 152.7 24.1338C152.36 23.7939 151.859 23.624 151.197 23.624C150.617 23.624 150.131 23.7705 149.738 24.0635C149.346 24.3564 149.149 24.7109 149.149 25.127H147.515C147.515 24.6523 147.682 24.1953 148.016 23.7559C148.355 23.3105 148.812 22.959 149.387 22.7012C149.967 22.4434 150.603 22.3145 151.294 22.3145C152.39 22.3145 153.248 22.5898 153.869 23.1406C154.49 23.6855 154.812 24.4385 154.836 25.3994V29.7764C154.836 30.6494 154.947 31.3438 155.17 31.8594V32H153.465ZM150.767 30.7607C151.276 30.7607 151.76 30.6289 152.217 30.3652C152.674 30.1016 153.005 29.7588 153.21 29.3369V27.3857H151.936C149.943 27.3857 148.947 27.9688 148.947 29.1348C148.947 29.6445 149.117 30.043 149.457 30.3301C149.797 30.6172 150.233 30.7607 150.767 30.7607ZM156.989 27.166C156.989 25.707 157.335 24.5352 158.026 23.6504C158.718 22.7598 159.623 22.3145 160.742 22.3145C161.855 22.3145 162.737 22.6953 163.388 23.457V18.5H165.014V32H163.52L163.44 30.9805C162.79 31.7773 161.885 32.1758 160.725 32.1758C159.623 32.1758 158.724 31.7246 158.026 30.8223C157.335 29.9199 156.989 28.7422 156.989 27.2891V27.166ZM158.615 27.3506C158.615 28.4287 158.838 29.2725 159.283 29.8818C159.729 30.4912 160.344 30.7959 161.129 30.7959C162.16 30.7959 162.913 30.333 163.388 29.4072V25.0391C162.901 24.1426 162.154 23.6943 161.146 23.6943C160.35 23.6943 159.729 24.002 159.283 24.6172C158.838 25.2324 158.615 26.1436 158.615 27.3506ZM171.491 32.1758C170.202 32.1758 169.153 31.7539 168.345 30.9102C167.536 30.0605 167.132 28.9268 167.132 27.5088V27.21C167.132 26.2666 167.311 25.4258 167.668 24.6875C168.031 23.9434 168.535 23.3633 169.18 22.9473C169.83 22.5254 170.533 22.3145 171.289 22.3145C172.525 22.3145 173.486 22.7217 174.172 23.5361C174.857 24.3506 175.2 25.5166 175.2 27.0342V27.7109H168.758C168.781 28.6484 169.054 29.4072 169.575 29.9873C170.103 30.5615 170.771 30.8486 171.579 30.8486C172.153 30.8486 172.64 30.7314 173.038 30.4971C173.437 30.2627 173.785 29.9521 174.084 29.5654L175.077 30.3389C174.28 31.5635 173.085 32.1758 171.491 32.1758ZM171.289 23.6504C170.633 23.6504 170.082 23.8906 169.637 24.3711C169.191 24.8457 168.916 25.5137 168.811 26.375H173.574V26.252C173.527 25.4258 173.305 24.7871 172.906 24.3359C172.508 23.8789 171.969 23.6504 171.289 23.6504Z" fill="black"/>
</svg>
