<svg width="205" height="73" viewBox="0 0 205 73" fill="none" xmlns="http://www.w3.org/2000/svg">
<path d="M178.891 1H26.0086C12.2303 1 1 12.1848 1 25.9073C1 39.6298 12.2303 50.8146 26.0086 50.8146H142.653L157.752 69.6125V50.8146H178.891C192.67 50.8146 203.9 39.6298 203.9 25.9073C203.9 12.1848 192.67 1 178.891 1Z" fill="white" stroke="#153343" stroke-width="2" stroke-miterlimit="10"/>
<path d="M40.3965 27.2959C38.9492 26.8799 37.8945 26.3701 37.2324 25.7666C36.5762 25.1572 36.248 24.4072 36.248 23.5166C36.248 22.5088 36.6494 21.6768 37.4521 21.0205C38.2607 20.3584 39.3096 20.0273 40.5986 20.0273C41.4775 20.0273 42.2598 20.1973 42.9453 20.5371C43.6367 20.877 44.1699 21.3457 44.5449 21.9434C44.9258 22.541 45.1162 23.1943 45.1162 23.9033H43.4199C43.4199 23.1299 43.1738 22.5234 42.6816 22.084C42.1895 21.6387 41.4951 21.416 40.5986 21.416C39.7666 21.416 39.1162 21.6006 38.6475 21.9697C38.1846 22.333 37.9531 22.8398 37.9531 23.4902C37.9531 24.0117 38.1729 24.4541 38.6123 24.8174C39.0576 25.1748 39.8105 25.5029 40.8711 25.8018C41.9375 26.1006 42.7695 26.4316 43.3672 26.7949C43.9707 27.1523 44.416 27.5713 44.7031 28.0518C44.9961 28.5322 45.1426 29.0977 45.1426 29.748C45.1426 30.7852 44.7383 31.6172 43.9297 32.2441C43.1211 32.8652 42.04 33.1758 40.6865 33.1758C39.8076 33.1758 38.9873 33.0088 38.2256 32.6748C37.4639 32.335 36.875 31.8721 36.459 31.2861C36.0488 30.7002 35.8438 30.0352 35.8438 29.291H37.54C37.54 30.0645 37.8242 30.6768 38.3926 31.1279C38.9668 31.5732 39.7314 31.7959 40.6865 31.7959C41.5771 31.7959 42.2598 31.6143 42.7344 31.251C43.209 30.8877 43.4463 30.3926 43.4463 29.7656C43.4463 29.1387 43.2266 28.6553 42.7871 28.3154C42.3477 27.9697 41.5508 27.6299 40.3965 27.2959ZM50.873 31.8486C51.4531 31.8486 51.96 31.6729 52.3936 31.3213C52.8271 30.9697 53.0674 30.5303 53.1143 30.0029H54.6523C54.623 30.5479 54.4355 31.0664 54.0898 31.5586C53.7441 32.0508 53.2812 32.4434 52.7012 32.7363C52.127 33.0293 51.5176 33.1758 50.873 33.1758C49.5781 33.1758 48.5469 32.7451 47.7793 31.8838C47.0176 31.0166 46.6367 29.833 46.6367 28.333V28.0605C46.6367 27.1348 46.8066 26.3115 47.1465 25.5908C47.4863 24.8701 47.9727 24.3105 48.6055 23.9121C49.2441 23.5137 49.9971 23.3145 50.8643 23.3145C51.9307 23.3145 52.8154 23.6338 53.5186 24.2725C54.2275 24.9111 54.6055 25.7402 54.6523 26.7598H53.1143C53.0674 26.1445 52.833 25.6406 52.4111 25.248C51.9951 24.8496 51.4795 24.6504 50.8643 24.6504C50.0381 24.6504 49.3965 24.9492 48.9395 25.5469C48.4883 26.1387 48.2627 26.9971 48.2627 28.1221V28.4297C48.2627 29.5254 48.4883 30.3691 48.9395 30.9609C49.3906 31.5527 50.0352 31.8486 50.873 31.8486ZM62.3516 33C62.2578 32.8125 62.1816 32.4785 62.123 31.998C61.3672 32.7832 60.4648 33.1758 59.416 33.1758C58.4785 33.1758 57.708 32.9121 57.1045 32.3848C56.5068 31.8516 56.208 31.1777 56.208 30.3633C56.208 29.373 56.583 28.6055 57.333 28.0605C58.0889 27.5098 59.1494 27.2344 60.5146 27.2344H62.0967V26.4873C62.0967 25.9189 61.9268 25.4678 61.5869 25.1338C61.2471 24.7939 60.7461 24.624 60.084 24.624C59.5039 24.624 59.0176 24.7705 58.625 25.0635C58.2324 25.3564 58.0361 25.7109 58.0361 26.127H56.4014C56.4014 25.6523 56.5684 25.1953 56.9023 24.7559C57.2422 24.3105 57.6992 23.959 58.2734 23.7012C58.8535 23.4434 59.4893 23.3145 60.1807 23.3145C61.2764 23.3145 62.1348 23.5898 62.7559 24.1406C63.377 24.6855 63.6992 25.4385 63.7227 26.3994V30.7764C63.7227 31.6494 63.834 32.3438 64.0566 32.8594V33H62.3516ZM59.6533 31.7607C60.1631 31.7607 60.6465 31.6289 61.1035 31.3652C61.5605 31.1016 61.8916 30.7588 62.0967 30.3369V28.3857H60.8223C58.8301 28.3857 57.834 28.9688 57.834 30.1348C57.834 30.6445 58.0039 31.043 58.3438 31.3301C58.6836 31.6172 59.1201 31.7607 59.6533 31.7607ZM67.8096 23.4902L67.8623 24.6855C68.5889 23.7715 69.5381 23.3145 70.71 23.3145C72.7197 23.3145 73.7334 24.4482 73.751 26.7158V33H72.125V26.707C72.1191 26.0215 71.9609 25.5146 71.6504 25.1865C71.3457 24.8584 70.8682 24.6943 70.2178 24.6943C69.6904 24.6943 69.2275 24.835 68.8291 25.1162C68.4307 25.3975 68.1201 25.7666 67.8975 26.2236V33H66.2715V23.4902H67.8096ZM80.9229 33V20.2031H85.1064C86.4951 20.2031 87.5381 20.4902 88.2354 21.0645C88.9385 21.6387 89.29 22.4883 89.29 23.6133C89.29 24.2109 89.1201 24.7412 88.7803 25.2041C88.4404 25.6611 87.9775 26.0156 87.3916 26.2676C88.083 26.4609 88.6279 26.8301 89.0264 27.375C89.4307 27.9141 89.6328 28.5586 89.6328 29.3086C89.6328 30.457 89.2607 31.3594 88.5166 32.0156C87.7725 32.6719 86.7207 33 85.3613 33H80.9229ZM82.6104 27.0146V31.6201H85.3965C86.1816 31.6201 86.7998 31.418 87.251 31.0137C87.708 30.6035 87.9365 30.041 87.9365 29.3262C87.9365 27.7852 87.0986 27.0146 85.4229 27.0146H82.6104ZM82.6104 25.6611H85.1592C85.8975 25.6611 86.4863 25.4766 86.9258 25.1074C87.3711 24.7383 87.5938 24.2373 87.5938 23.6045C87.5938 22.9014 87.3887 22.3916 86.9785 22.0752C86.5684 21.7529 85.9443 21.5918 85.1064 21.5918H82.6104V25.6611ZM97.7539 33C97.6602 32.8125 97.584 32.4785 97.5254 31.998C96.7695 32.7832 95.8672 33.1758 94.8184 33.1758C93.8809 33.1758 93.1104 32.9121 92.5068 32.3848C91.9092 31.8516 91.6104 31.1777 91.6104 30.3633C91.6104 29.373 91.9854 28.6055 92.7354 28.0605C93.4912 27.5098 94.5518 27.2344 95.917 27.2344H97.499V26.4873C97.499 25.9189 97.3291 25.4678 96.9893 25.1338C96.6494 24.7939 96.1484 24.624 95.4863 24.624C94.9062 24.624 94.4199 24.7705 94.0273 25.0635C93.6348 25.3564 93.4385 25.7109 93.4385 26.127H91.8037C91.8037 25.6523 91.9707 25.1953 92.3047 24.7559C92.6445 24.3105 93.1016 23.959 93.6758 23.7012C94.2559 23.4434 94.8916 23.3145 95.583 23.3145C96.6787 23.3145 97.5371 23.5898 98.1582 24.1406C98.7793 24.6855 99.1016 25.4385 99.125 26.3994V30.7764C99.125 31.6494 99.2363 32.3438 99.459 32.8594V33H97.7539ZM95.0557 31.7607C95.5654 31.7607 96.0488 31.6289 96.5059 31.3652C96.9629 31.1016 97.2939 30.7588 97.499 30.3369V28.3857H96.2246C94.2324 28.3857 93.2363 28.9688 93.2363 30.1348C93.2363 30.6445 93.4062 31.043 93.7461 31.3301C94.0859 31.6172 94.5225 31.7607 95.0557 31.7607ZM107.211 30.4775C107.211 30.0381 107.044 29.6982 106.71 29.458C106.382 29.2119 105.805 29.001 104.979 28.8252C104.158 28.6494 103.505 28.4385 103.019 28.1924C102.538 27.9463 102.181 27.6533 101.946 27.3135C101.718 26.9736 101.604 26.5693 101.604 26.1006C101.604 25.3213 101.932 24.6621 102.588 24.123C103.25 23.584 104.094 23.3145 105.119 23.3145C106.197 23.3145 107.07 23.5928 107.738 24.1494C108.412 24.7061 108.749 25.418 108.749 26.2852H107.114C107.114 25.8398 106.924 25.4561 106.543 25.1338C106.168 24.8115 105.693 24.6504 105.119 24.6504C104.527 24.6504 104.064 24.7793 103.73 25.0371C103.396 25.2949 103.229 25.6318 103.229 26.0479C103.229 26.4404 103.385 26.7363 103.695 26.9355C104.006 27.1348 104.565 27.3252 105.374 27.5068C106.188 27.6885 106.848 27.9053 107.352 28.1572C107.855 28.4092 108.228 28.7139 108.468 29.0713C108.714 29.4229 108.837 29.8535 108.837 30.3633C108.837 31.2129 108.497 31.8955 107.817 32.4111C107.138 32.9209 106.256 33.1758 105.172 33.1758C104.41 33.1758 103.736 33.041 103.15 32.7715C102.564 32.502 102.104 32.127 101.771 31.6465C101.442 31.1602 101.278 30.6357 101.278 30.0732H102.904C102.934 30.6182 103.15 31.0518 103.555 31.374C103.965 31.6904 104.504 31.8486 105.172 31.8486C105.787 31.8486 106.279 31.7256 106.648 31.4795C107.023 31.2275 107.211 30.8936 107.211 30.4775ZM114.901 33.1758C113.612 33.1758 112.563 32.7539 111.755 31.9102C110.946 31.0605 110.542 29.9268 110.542 28.5088V28.21C110.542 27.2666 110.721 26.4258 111.078 25.6875C111.441 24.9434 111.945 24.3633 112.59 23.9473C113.24 23.5254 113.943 23.3145 114.699 23.3145C115.936 23.3145 116.896 23.7217 117.582 24.5361C118.268 25.3506 118.61 26.5166 118.61 28.0342V28.7109H112.168C112.191 29.6484 112.464 30.4072 112.985 30.9873C113.513 31.5615 114.181 31.8486 114.989 31.8486C115.563 31.8486 116.05 31.7314 116.448 31.4971C116.847 31.2627 117.195 30.9521 117.494 30.5654L118.487 31.3389C117.69 32.5635 116.495 33.1758 114.901 33.1758ZM114.699 24.6504C114.043 24.6504 113.492 24.8906 113.047 25.3711C112.602 25.8457 112.326 26.5137 112.221 27.375H116.984V27.252C116.938 26.4258 116.715 25.7871 116.316 25.3359C115.918 24.8789 115.379 24.6504 114.699 24.6504ZM120.104 28.166C120.104 26.707 120.45 25.5352 121.142 24.6504C121.833 23.7598 122.738 23.3145 123.857 23.3145C124.971 23.3145 125.853 23.6953 126.503 24.457V19.5H128.129V33H126.635L126.556 31.9805C125.905 32.7773 125 33.1758 123.84 33.1758C122.738 33.1758 121.839 32.7246 121.142 31.8223C120.45 30.9199 120.104 29.7422 120.104 28.2891V28.166ZM121.73 28.3506C121.73 29.4287 121.953 30.2725 122.398 30.8818C122.844 31.4912 123.459 31.7959 124.244 31.7959C125.275 31.7959 126.028 31.333 126.503 30.4072V26.0391C126.017 25.1426 125.27 24.6943 124.262 24.6943C123.465 24.6943 122.844 25.002 122.398 25.6172C121.953 26.2324 121.73 27.1436 121.73 28.3506ZM143.87 21.5918H139.757V33H138.078V21.5918H133.974V20.2031H143.87V21.5918ZM149.442 24.9492C149.196 24.9082 148.93 24.8877 148.643 24.8877C147.576 24.8877 146.853 25.3418 146.472 26.25V33H144.846V23.4902H146.428L146.454 24.5889C146.987 23.7393 147.743 23.3145 148.722 23.3145C149.038 23.3145 149.278 23.3555 149.442 23.4375V24.9492ZM156.465 33C156.371 32.8125 156.295 32.4785 156.236 31.998C155.48 32.7832 154.578 33.1758 153.529 33.1758C152.592 33.1758 151.821 32.9121 151.218 32.3848C150.62 31.8516 150.321 31.1777 150.321 30.3633C150.321 29.373 150.696 28.6055 151.446 28.0605C152.202 27.5098 153.263 27.2344 154.628 27.2344H156.21V26.4873C156.21 25.9189 156.04 25.4678 155.7 25.1338C155.36 24.7939 154.859 24.624 154.197 24.624C153.617 24.624 153.131 24.7705 152.738 25.0635C152.346 25.3564 152.149 25.7109 152.149 26.127H150.515C150.515 25.6523 150.682 25.1953 151.016 24.7559C151.355 24.3105 151.812 23.959 152.387 23.7012C152.967 23.4434 153.603 23.3145 154.294 23.3145C155.39 23.3145 156.248 23.5898 156.869 24.1406C157.49 24.6855 157.812 25.4385 157.836 26.3994V30.7764C157.836 31.6494 157.947 32.3438 158.17 32.8594V33H156.465ZM153.767 31.7607C154.276 31.7607 154.76 31.6289 155.217 31.3652C155.674 31.1016 156.005 30.7588 156.21 30.3369V28.3857H154.936C152.943 28.3857 151.947 28.9688 151.947 30.1348C151.947 30.6445 152.117 31.043 152.457 31.3301C152.797 31.6172 153.233 31.7607 153.767 31.7607ZM159.989 28.166C159.989 26.707 160.335 25.5352 161.026 24.6504C161.718 23.7598 162.623 23.3145 163.742 23.3145C164.855 23.3145 165.737 23.6953 166.388 24.457V19.5H168.014V33H166.52L166.44 31.9805C165.79 32.7773 164.885 33.1758 163.725 33.1758C162.623 33.1758 161.724 32.7246 161.026 31.8223C160.335 30.9199 159.989 29.7422 159.989 28.2891V28.166ZM161.615 28.3506C161.615 29.4287 161.838 30.2725 162.283 30.8818C162.729 31.4912 163.344 31.7959 164.129 31.7959C165.16 31.7959 165.913 31.333 166.388 30.4072V26.0391C165.901 25.1426 165.154 24.6943 164.146 24.6943C163.35 24.6943 162.729 25.002 162.283 25.6172C161.838 26.2324 161.615 27.1436 161.615 28.3506ZM174.491 33.1758C173.202 33.1758 172.153 32.7539 171.345 31.9102C170.536 31.0605 170.132 29.9268 170.132 28.5088V28.21C170.132 27.2666 170.311 26.4258 170.668 25.6875C171.031 24.9434 171.535 24.3633 172.18 23.9473C172.83 23.5254 173.533 23.3145 174.289 23.3145C175.525 23.3145 176.486 23.7217 177.172 24.5361C177.857 25.3506 178.2 26.5166 178.2 28.0342V28.7109H171.758C171.781 29.6484 172.054 30.4072 172.575 30.9873C173.103 31.5615 173.771 31.8486 174.579 31.8486C175.153 31.8486 175.64 31.7314 176.038 31.4971C176.437 31.2627 176.785 30.9521 177.084 30.5654L178.077 31.3389C177.28 32.5635 176.085 33.1758 174.491 33.1758ZM174.289 24.6504C173.633 24.6504 173.082 24.8906 172.637 25.3711C172.191 25.8457 171.916 26.5137 171.811 27.375H176.574V27.252C176.527 26.4258 176.305 25.7871 175.906 25.3359C175.508 24.8789 174.969 24.6504 174.289 24.6504Z" fill="black"/>
</svg>
