<svg width="70" height="50" viewBox="0 0 70 50" fill="none" xmlns="http://www.w3.org/2000/svg">
<path d="M9.91831 47.1929C9.44314 47.473 8.90772 47.635 8.357 47.6653C7.80627 47.6957 7.2563 47.5935 6.75323 47.3673C6.59337 47.2965 6.41961 47.2627 6.24487 47.2683C6.07012 47.274 5.8989 47.3189 5.74394 47.3999C5.44651 47.5556 5.11875 47.6448 4.78342 47.6611C4.44809 47.6775 4.11321 47.6207 3.80203 47.4947C3.49085 47.3686 3.21082 47.1764 2.98137 46.9313C2.75193 46.6862 2.57857 46.3941 2.47333 46.0753C2.36808 45.7565 2.33348 45.4186 2.37191 45.0851C2.41034 44.7516 2.52088 44.4304 2.69588 44.1439C2.87087 43.8574 3.10612 43.6123 3.38529 43.4259C3.66446 43.2394 3.98087 43.1159 4.31256 43.0639C4.48606 43.0361 4.651 42.9694 4.795 42.8687C4.939 42.768 5.0583 42.6359 5.14394 42.4825C5.37894 42.0626 5.69828 41.6958 6.08189 41.4052C6.4655 41.1146 6.90508 40.9066 7.37299 40.7942C7.59466 40.7423 7.79624 40.6265 7.95271 40.4611C8.10918 40.2958 8.21367 40.0881 8.25321 39.8639C8.35892 39.2868 8.57615 38.7358 8.89274 38.2419C8.98457 38.0968 9.04312 37.9332 9.06421 37.7628C9.08529 37.5924 9.06838 37.4194 9.01468 37.2564C8.96099 37.0933 8.87185 36.9441 8.75366 36.8196C8.63547 36.695 8.49117 36.5982 8.33112 36.5361C8.09843 36.4478 7.90044 36.2868 7.76658 36.077C7.63273 35.8672 7.57016 35.6198 7.58819 35.3716C7.60622 35.1234 7.70388 34.8877 7.86664 34.6994C8.02941 34.5112 8.24859 34.3805 8.49158 34.3268C8.79242 34.2586 9.05385 34.0738 9.21838 33.8128C9.38291 33.5519 9.43705 33.2363 9.3689 32.9355C9.30075 32.6347 9.11588 32.3732 8.85497 32.2087C8.59405 32.0442 8.27847 31.99 7.97764 32.0582C7.35777 32.1994 6.78827 32.5072 6.33067 32.9486C5.87307 33.3899 5.54477 33.9478 5.38125 34.5622C5.21773 35.1765 5.2252 35.8239 5.40286 36.4343C5.58052 37.0447 5.92161 37.5949 6.38928 38.0256C6.28985 38.2596 6.20405 38.4991 6.13231 38.743C5.02812 39.162 4.07724 39.9065 3.40559 40.8779C2.31991 41.1785 1.38048 41.8635 0.762191 42.8051C0.143899 43.7468 -0.11112 44.8811 0.0446117 45.9969C0.200343 47.1126 0.756212 48.1337 1.60873 48.8701C2.46125 49.6065 3.55233 50.008 4.67883 49.9999C5.23791 49.9994 5.79197 49.8945 6.31254 49.6906C7.10019 49.9602 7.93706 50.0552 8.7651 49.9691C9.59315 49.8829 10.3925 49.6177 11.1078 49.1917C11.3729 49.034 11.5644 48.7774 11.6403 48.4785C11.7162 48.1795 11.6702 47.8626 11.5125 47.5976C11.3547 47.3325 11.0982 47.141 10.7992 47.0651C10.5002 46.9892 10.1834 47.0352 9.91831 47.1929Z" fill="#153343"/>
<path d="M8.16611 45.3486C8.8083 45.3486 9.32889 44.828 9.32889 44.1858C9.32889 43.5436 8.8083 43.023 8.16611 43.023C7.52393 43.023 7.00333 43.5436 7.00333 44.1858C7.00333 44.828 7.52393 45.3486 8.16611 45.3486Z" fill="#153343"/>
<path d="M13.9801 29.0697C14.6223 29.0697 15.1429 28.5491 15.1429 27.9069C15.1429 27.2647 14.6223 26.7441 13.9801 26.7441C13.338 26.7441 12.8174 27.2647 12.8174 27.9069C12.8174 28.5491 13.338 29.0697 13.9801 29.0697Z" fill="#153343"/>
<path d="M68.5356 42.1754C69.0142 41.5278 69.2521 40.7336 69.2084 39.9295C69.1647 39.1254 68.842 38.3616 68.296 37.7697C68.5184 37.2224 68.6326 36.6372 68.6321 36.0464C68.6301 35.3521 68.4724 34.6671 68.1706 34.0418C67.8687 33.4166 67.4304 32.867 66.8879 32.4337C66.8675 31.6409 66.6121 30.8719 66.1542 30.2244C66.2551 29.8478 66.3063 29.4596 66.3065 29.0698C66.3042 28.4241 66.1675 27.7859 65.905 27.1959C65.6426 26.606 65.2602 26.0771 64.7821 25.6431L68.3623 21.2943C68.4693 21.1638 68.5466 21.0117 68.5889 20.8485C68.6311 20.6852 68.6374 20.5147 68.6072 20.3487C68.577 20.1828 68.5111 20.0254 68.414 19.8875C68.3169 19.7496 68.1909 19.6345 68.0449 19.5501L64.0193 17.2245L63.1787 16.7385L67.9926 17.5873C68.0597 17.5998 68.1278 17.606 68.196 17.6059C68.487 17.6061 68.7675 17.4971 68.9821 17.3005C69.1966 17.1039 69.3297 16.834 69.355 16.5441C69.3802 16.2542 69.2959 15.9654 69.1185 15.7346C68.9412 15.5039 68.6838 15.348 68.3972 15.2978L53.5078 12.6746L53.709 11.5304C53.7654 11.2281 53.9382 10.9599 54.1902 10.7836C54.4422 10.6072 54.7533 10.5368 55.0566 10.5874L57.345 10.9909L60.7798 11.5967L66.5054 12.606C66.8058 12.6523 67.1124 12.5791 67.3595 12.4021C67.6066 12.2252 67.7746 11.9585 67.8275 11.6591C67.8804 11.3598 67.814 11.0517 67.6425 10.8007C67.471 10.5498 67.2081 10.3759 66.91 10.3165L65.7635 10.1141C65.9775 8.89959 65.7003 7.64978 64.9929 6.63955C64.2856 5.62932 63.2059 4.94138 61.9915 4.72699C60.7769 4.51341 59.5273 4.79091 58.5173 5.49848C57.5073 6.20605 56.8196 7.28575 56.6055 8.50021L55.4601 8.29788C54.5504 8.13826 53.6145 8.34597 52.8576 8.87544C52.1008 9.40491 51.5849 10.2129 51.423 11.1223L51.0206 13.4141C50.9676 13.7175 51.0371 14.0296 51.2139 14.2818C51.3907 14.5341 51.6603 14.7058 51.9637 14.7594L53.5915 15.0467L49.3497 26.3686C48.8749 25.4731 48.1747 24.7168 47.3183 24.1745C47.5731 23.5102 47.7032 22.8046 47.7021 22.0931C47.6988 21.5331 47.6126 20.9767 47.4463 20.4419C47.3531 20.1524 47.1503 19.9108 46.8812 19.7691C46.6121 19.6273 46.2981 19.5967 46.0067 19.6837C45.7152 19.7707 45.4695 19.9684 45.3221 20.2345C45.1747 20.5006 45.1375 20.8138 45.2184 21.1071C45.3744 21.5979 45.4158 22.1179 45.3397 22.6272C45.2635 23.1366 45.0716 23.6217 44.7788 24.0454C44.6801 24.1929 44.6164 24.361 44.5927 24.5368C44.569 24.7127 44.5858 24.8917 44.6419 25.06C44.6981 25.2284 44.792 25.3816 44.9165 25.5081C45.041 25.6346 45.1928 25.7308 45.3602 25.7896C46.042 26.0268 46.6334 26.4697 47.0528 27.0572C47.4722 27.6447 47.6991 28.3479 47.7021 29.0698C47.6992 29.3413 47.6637 29.6114 47.5963 29.8744C47.5431 30.1007 47.5589 30.3378 47.6419 30.5551C47.7248 30.7723 47.8709 30.9597 48.0614 31.093C48.6673 31.5226 49.1619 32.0907 49.5039 32.75C49.846 33.4094 50.0255 34.1409 50.0276 34.8837C50.0224 35.6074 49.8455 36.3195 49.5113 36.9615C49.4348 37.1128 49.3922 37.279 49.3866 37.4485C49.3811 37.6179 49.4126 37.7866 49.4791 37.9425C49.5455 38.0985 49.6453 38.2381 49.7714 38.3514C49.8975 38.4648 50.0469 38.5492 50.209 38.5987C50.9441 38.8188 51.613 39.218 52.1558 39.7604C52.6986 40.3028 53.0982 40.9714 53.3188 41.7063C53.5394 42.4413 53.574 43.2195 53.4197 43.9711C53.2654 44.7227 52.9268 45.4243 52.4345 46.0128C51.9421 46.6013 51.3113 47.0584 50.5988 47.343C49.8862 47.6276 49.1141 47.7309 48.3518 47.6435C47.5894 47.5561 46.8607 47.2808 46.231 46.8424C45.6013 46.4039 45.0904 45.8159 44.744 45.1312C44.6712 44.9894 44.5701 44.8641 44.4468 44.763C44.3236 44.6619 44.1809 44.5872 44.0275 44.5436C43.8742 44.5 43.7136 44.4883 43.5556 44.5094C43.3976 44.5305 43.2456 44.5838 43.1091 44.6661C42.6827 44.9289 42.216 45.1198 41.7277 45.2312C41.4454 45.2941 41.1967 45.4599 41.03 45.6963C40.6034 46.3071 40.0356 46.8058 39.375 47.1502C38.7143 47.4945 37.9803 47.6743 37.2353 47.6743C36.4903 47.6743 35.7563 47.4945 35.0957 47.1502C34.435 46.8058 33.8672 46.3071 33.4406 45.6963C33.274 45.4599 33.0252 45.2941 32.7429 45.2312C32.3306 45.1327 31.9344 44.9761 31.5662 44.7661C31.4318 44.6935 31.2845 44.6481 31.1325 44.6324C30.9806 44.6168 30.8271 44.6312 30.6807 44.6749C30.5343 44.7185 30.398 44.7906 30.2795 44.887C30.161 44.9833 30.0626 45.1021 29.99 45.2365C29.9174 45.3708 29.872 45.5182 29.8563 45.6701C29.8407 45.8221 29.8551 45.9756 29.8988 46.1219C29.9425 46.2683 30.0145 46.4046 30.1109 46.5231C30.2072 46.6416 30.326 46.74 30.4604 46.8126C30.889 47.048 31.3401 47.2401 31.8069 47.3859C32.4578 48.2002 33.2837 48.8577 34.2233 49.3096C35.1629 49.7614 36.1921 49.996 37.2347 49.996C38.2773 49.996 39.3065 49.7614 40.2461 49.3096C41.1857 48.8577 42.0116 48.2002 42.6626 47.3859C42.8733 47.3241 43.0806 47.2511 43.2835 47.1673C43.9067 48.0112 44.7126 48.7034 45.6409 49.192C46.5693 49.6806 47.5962 49.953 48.6446 49.9887C49.6931 50.0245 50.7361 49.8228 51.6957 49.3986C52.6552 48.9745 53.5064 48.3389 54.1857 47.5394C54.8649 46.7398 55.3546 45.7971 55.6181 44.7816C55.8817 43.7662 55.9122 42.7043 55.7074 41.6753C55.5027 40.6464 55.068 39.6771 54.4358 38.8399C53.8036 38.0026 52.9903 37.3192 52.0567 36.8406C52.2519 36.2066 52.3519 35.5471 52.3532 34.8837C52.3532 34.8685 52.3532 34.8523 52.3532 34.8371C53.5417 34.7364 54.6568 34.2206 55.5031 33.3802C55.715 33.1609 55.8322 32.8672 55.8295 32.5623C55.8269 32.2574 55.7046 31.9658 55.489 31.7502C55.2734 31.5346 54.9818 31.4123 54.6769 31.4097C54.372 31.407 54.0783 31.5242 53.859 31.736C53.3488 32.2446 52.6618 32.5363 51.9416 32.55C51.5454 31.4404 50.876 30.4486 49.9951 29.6663C50.0173 29.4682 50.0281 29.2691 50.0276 29.0698C50.0243 28.664 49.9775 28.2598 49.8881 27.864L57.8915 32.4848C58.1299 32.6224 58.4094 32.6709 58.6803 32.6217C58.9511 32.5725 59.1957 32.4288 59.3706 32.2162L59.5345 32.0162C59.6358 32.1798 59.7768 32.3151 59.9442 32.4098C60.1117 32.5045 60.3003 32.5555 60.4926 32.5581C60.7611 32.5567 61.0209 32.4623 61.2277 32.2911C61.4346 32.1199 61.5758 31.8824 61.6275 31.6189C61.6791 31.3554 61.638 31.0822 61.511 30.8456C61.384 30.609 61.1791 30.4236 60.931 30.3209L63.2926 27.4523C63.7267 27.8794 63.9742 28.4609 63.981 29.0698C63.9781 29.3911 63.9071 29.7081 63.7728 30C63.6754 30.218 63.6475 30.4608 63.6928 30.6952C63.7382 30.9297 63.8546 31.1445 64.0263 31.3104C64.1952 31.4715 64.3297 31.6651 64.4219 31.8795C64.514 32.0939 64.5618 32.3247 64.5624 32.5581C64.5585 32.6506 64.548 32.7427 64.531 32.8337C64.4936 33.0688 64.5293 33.3098 64.6333 33.524C64.7373 33.7381 64.9045 33.9152 65.1124 34.0313C65.4719 34.2315 65.7719 34.5235 65.9817 34.8776C66.1915 35.2316 66.3036 35.6349 66.3065 36.0464C66.3059 36.5283 66.152 36.9974 65.867 37.386C65.769 37.5206 65.701 37.6748 65.6677 37.838C65.6345 38.0012 65.6366 38.1697 65.6741 38.332C65.7116 38.4943 65.7835 38.6466 65.885 38.7787C65.9865 38.9108 66.1152 39.0195 66.2623 39.0976C66.4558 39.1965 66.6172 39.3482 66.7279 39.5352C66.8385 39.7222 66.8939 39.9367 66.8876 40.1539C66.8813 40.3711 66.8135 40.582 66.6921 40.7622C66.5707 40.9424 66.4007 41.0845 66.2019 41.172C66.001 41.2626 65.8301 41.4084 65.7089 41.5924C65.5877 41.7764 65.5213 41.991 65.5174 42.2113C65.5135 42.4316 65.5723 42.6485 65.6869 42.8367C65.8014 43.0249 65.9672 43.1766 66.1647 43.2743C66.454 43.4141 66.7112 43.6126 66.9196 43.8572C67.1281 44.1018 67.2834 44.3871 67.3757 44.695C67.4679 45.0029 67.4951 45.3266 67.4554 45.6455C67.4158 45.9644 67.3102 46.2716 67.1454 46.5475C66.9806 46.8235 66.7602 47.0621 66.4982 47.2482C66.2361 47.4343 65.9382 47.5638 65.6234 47.6286C65.3086 47.6933 64.9838 47.6918 64.6696 47.6242C64.3554 47.5566 64.0587 47.4244 63.7984 47.2359C63.625 47.1118 63.4207 47.0378 63.2081 47.022C62.9954 47.0062 62.7825 47.0492 62.5926 47.1463C61.9083 47.5062 61.1437 47.6861 60.3707 47.669C59.5977 47.6519 58.8418 47.4384 58.1741 47.0487C58.042 46.9678 57.8951 46.9141 57.742 46.8908C57.5889 46.8674 57.4326 46.8749 57.2825 46.9128C57.1323 46.9507 56.9912 47.0182 56.8675 47.1113C56.7437 47.2045 56.6399 47.3214 56.5619 47.4553C56.484 47.5891 56.4336 47.7372 56.4137 47.8908C56.3938 48.0443 56.4047 48.2004 56.446 48.3497C56.4872 48.499 56.5578 48.6385 56.6537 48.7601C56.7495 48.8818 56.8688 48.983 57.0043 49.0579C57.9123 49.5866 58.9291 49.9008 59.977 49.9763C61.025 50.0519 62.0763 49.8869 63.0507 49.494C63.6984 49.8261 64.4158 49.9995 65.1437 49.9998C66.3773 49.9998 67.5603 49.5098 68.4326 48.6375C69.3048 47.7653 69.7949 46.5822 69.7949 45.3487C69.7973 44.1686 69.3465 43.0327 68.5356 42.1754ZM58.8973 8.89788C58.9476 8.59435 59.0577 8.30383 59.2211 8.04314C59.3845 7.78246 59.598 7.55678 59.8492 7.3792C60.1005 7.20162 60.3845 7.07565 60.6847 7.0086C60.985 6.94156 61.2956 6.93476 61.5985 6.98861C61.9015 7.04245 62.1907 7.15587 62.4495 7.32229C62.7082 7.48871 62.9314 7.70483 63.1061 7.95812C63.2807 8.2114 63.4034 8.49683 63.4669 8.79787C63.5305 9.0989 63.5337 9.40955 63.4763 9.71182L58.8961 8.89788H58.8973ZM58.1996 29.9767L56.0334 28.7209L57.1962 26.7082C57.2737 26.5759 57.3243 26.4295 57.3451 26.2776C57.3659 26.1257 57.3564 25.9711 57.3172 25.8229C57.278 25.6746 57.2099 25.5356 57.1167 25.4138C57.0236 25.292 56.9072 25.1898 56.7744 25.1131C56.6416 25.0364 56.495 24.9868 56.3429 24.967C56.1909 24.9472 56.0364 24.9578 55.8884 24.9979C55.7404 25.0381 55.6018 25.1072 55.4806 25.2011C55.3594 25.2951 55.258 25.4121 55.1822 25.5454L54.0194 27.5582L51.8509 26.307L55.9206 15.4536L56.4787 15.5513L57.8217 16.3269L56.0776 19.3501C55.9234 19.6173 55.8816 19.9348 55.9616 20.2328C56.0415 20.5308 56.2365 20.7848 56.5037 20.939C56.7709 21.0932 57.0885 21.135 57.3864 21.055C57.6844 20.9751 57.9385 20.7801 58.0927 20.5129L59.8368 17.4897L61.8508 18.6524L60.1066 21.6757C60.029 21.8079 59.9784 21.9543 59.9576 22.1062C59.9369 22.2581 59.9464 22.4127 59.9855 22.5609C60.0247 22.7092 60.0929 22.8482 60.186 22.97C60.2792 23.0919 60.3955 23.194 60.5283 23.2707C60.6611 23.3474 60.8078 23.397 60.9598 23.4168C61.1119 23.4366 61.2664 23.4261 61.4144 23.3859C61.5624 23.3457 61.7009 23.2767 61.8221 23.1827C61.9433 23.0887 62.0447 22.9717 62.1205 22.8384L63.8647 19.8152L65.6972 20.8722L58.1996 29.9767Z" fill="#153343"/>
<path d="M62.2359 35.4651C61.9275 35.4651 61.6317 35.5877 61.4137 35.8057C61.1956 36.0238 61.0731 36.3195 61.0731 36.6279C61.0731 36.9363 60.9506 37.2321 60.7325 37.4501C60.5144 37.6682 60.2187 37.7907 59.9103 37.7907C59.6019 37.7907 59.3062 37.6682 59.0881 37.4501C58.87 37.2321 58.7475 36.9363 58.7475 36.6279C58.7475 36.3195 58.625 36.0238 58.407 35.8057C58.1889 35.5877 57.8931 35.4651 57.5847 35.4651C57.2764 35.4651 56.9806 35.5877 56.7625 35.8057C56.5445 36.0238 56.422 36.3195 56.422 36.6279C56.422 37.5531 56.7895 38.4404 57.4437 39.0946C58.0979 39.7487 58.9851 40.1163 59.9103 40.1163C60.8355 40.1163 61.7227 39.7487 62.3769 39.0946C63.0311 38.4404 63.3986 37.5531 63.3986 36.6279C63.3986 36.3195 63.2761 36.0238 63.0581 35.8057C62.84 35.5877 62.5442 35.4651 62.2359 35.4651Z" fill="#153343"/>
<path d="M60.4912 41.8605C60.1828 41.8605 59.887 41.983 59.669 42.201C59.4509 42.4191 59.3284 42.7148 59.3284 43.0232C59.3284 43.3316 59.4509 43.6274 59.669 43.8454C59.887 44.0635 60.1828 44.186 60.4912 44.186H61.654C61.9623 44.186 62.2581 44.0635 62.4762 43.8454C62.6942 43.6274 62.8167 43.3316 62.8167 43.0232C62.8167 42.7148 62.6942 42.4191 62.4762 42.201C62.2581 41.983 61.9623 41.8605 61.654 41.8605H60.4912Z" fill="#153343"/>
<path d="M32.4894 34.8674C32.2931 34.8448 32.0944 34.8731 31.9123 34.9497C31.7302 35.0263 31.5709 35.1485 31.4499 35.3046C31.3279 35.4598 31.2475 35.6435 31.2162 35.8384C31.1848 36.0333 31.2036 36.233 31.2708 36.4186C31.3673 36.6712 31.4185 36.9388 31.422 37.2093C31.4147 37.775 31.2015 38.3187 30.8222 38.7386C30.443 39.1584 29.9236 39.4256 29.3615 39.49C28.7994 39.5545 28.2331 39.4118 27.7686 39.0887C27.3041 38.7656 26.9734 38.2843 26.8383 37.7348C26.7961 37.553 26.7108 37.384 26.5896 37.2421C26.4684 37.1002 26.3148 36.9896 26.1418 36.9196C25.9688 36.8496 25.7815 36.8222 25.5957 36.8399C25.4099 36.8575 25.2311 36.9196 25.0743 37.0209C24.9225 37.1198 24.7496 37.1818 24.5695 37.202C24.3894 37.2222 24.2071 37.2 24.0371 37.1373C23.8671 37.0745 23.7142 36.9729 23.5904 36.8405C23.4667 36.7081 23.3756 36.5486 23.3244 36.3748C23.2732 36.2009 23.2634 36.0176 23.2957 35.8392C23.328 35.6609 23.4015 35.4926 23.5104 35.3478C23.6193 35.2029 23.7605 35.0855 23.9228 35.0049C24.0852 34.9244 24.2641 34.8829 24.4453 34.8837C24.7537 34.8837 25.0494 34.7612 25.2675 34.5431C25.4856 34.3251 25.6081 34.0293 25.6081 33.7209C25.6081 33.4125 25.4856 33.1168 25.2675 32.8987C25.0494 32.6806 24.7537 32.5581 24.4453 32.5581C23.7264 32.5611 23.026 32.7861 22.4398 33.2024C21.8537 33.6187 21.4105 34.2059 21.1709 34.8837H19.7942C19.4858 34.8837 19.19 35.0062 18.972 35.2243C18.7539 35.4423 18.6314 35.7381 18.6314 36.0465C18.6314 36.3549 18.7539 36.6506 18.972 36.8687C19.19 37.0867 19.4858 37.2093 19.7942 37.2093H21.1709C21.4105 37.887 21.8537 38.4742 22.4398 38.8905C23.026 39.3068 23.7264 39.5318 24.4453 39.5348C24.6453 39.535 24.8449 39.5175 25.0418 39.4825C25.5455 40.3786 26.3318 41.0827 27.278 41.4846C28.2242 41.8865 29.2768 41.9636 30.2715 41.7039C31.2661 41.4442 32.1467 40.8622 32.7756 40.0491C33.4045 39.2359 33.7463 38.2372 33.7475 37.2093C33.7475 37.143 33.7475 37.0779 33.7475 37.0116C34.4279 36.771 35.017 36.3253 35.4335 35.736C35.85 35.1466 36.0734 34.4426 36.0731 33.7209C36.0731 33.4125 35.9506 33.1168 35.7325 32.8987C35.5144 32.6806 35.2187 32.5581 34.9103 32.5581C34.6019 32.5581 34.3061 32.6806 34.0881 32.8987C33.87 33.1168 33.7475 33.4125 33.7475 33.7209C33.7477 34.022 33.6311 34.3114 33.4223 34.5283C33.2134 34.7451 32.9286 34.8726 32.6278 34.8837L32.4894 34.8674Z" fill="#153343"/>
<path d="M42.4685 25.0002C42.4685 24.6918 42.346 24.396 42.1279 24.178C41.9099 23.9599 41.6141 23.8374 41.3057 23.8374C40.9973 23.8374 40.7016 23.9599 40.4835 24.178C40.2655 24.396 40.143 24.6918 40.143 25.0002C40.143 25.3086 40.0204 25.6043 39.8024 25.8224C39.5843 26.0404 39.2886 26.1629 38.9802 26.1629C38.6718 26.1629 38.376 26.0404 38.158 25.8224C37.9399 25.6043 37.8174 25.3086 37.8174 25.0002C37.8174 24.6918 37.6949 24.396 37.4768 24.178C37.2588 23.9599 36.963 23.8374 36.6546 23.8374C36.3462 23.8374 36.0505 23.9599 35.8324 24.178C35.6143 24.396 35.4918 24.6918 35.4918 25.0002C35.4918 25.3086 35.3693 25.6043 35.1513 25.8224C34.9332 26.0404 34.6374 26.1629 34.3291 26.1629C34.0207 26.1629 33.7249 26.0404 33.5068 25.8224C33.2888 25.6043 33.1663 25.3086 33.1663 25.0002C33.1663 24.6918 33.0438 24.396 32.8257 24.178C32.6076 23.9599 32.3119 23.8374 32.0035 23.8374C31.6951 23.8374 31.3994 23.9599 31.1813 24.178C30.9632 24.396 30.8407 24.6918 30.8407 25.0002C30.8412 25.6734 31.0364 26.332 31.4029 26.8967C31.7694 27.4614 32.2914 27.908 32.906 28.1827C33.5207 28.4573 34.2016 28.5482 34.8668 28.4444C35.5319 28.3406 36.1528 28.0466 36.6546 27.5978C37.1564 28.0466 37.7773 28.3406 38.4424 28.4444C39.1076 28.5482 39.7886 28.4573 40.4032 28.1827C41.0178 27.908 41.5399 27.4614 41.9063 26.8967C42.2728 26.332 42.468 25.6734 42.4685 25.0002Z" fill="#153343"/>
<path d="M43.0504 41.8604C43.6614 41.8621 44.2667 41.7426 44.8311 41.5086C45.3956 41.2747 45.908 40.9311 46.3387 40.4976C46.5505 40.2783 46.6677 39.9846 46.6651 39.6797C46.6624 39.3749 46.5401 39.0832 46.3245 38.8676C46.109 38.652 45.8173 38.5298 45.5124 38.5271C45.2076 38.5245 44.9138 38.6417 44.6945 38.8535C44.2517 39.2765 43.6628 39.5126 43.0504 39.5126C42.4379 39.5126 41.849 39.2765 41.4062 38.8535C41.1869 38.6417 40.8932 38.5245 40.5883 38.5271C40.2834 38.5298 39.9918 38.652 39.7762 38.8676C39.5606 39.0832 39.4383 39.3749 39.4357 39.6797C39.433 39.9846 39.5502 40.2783 39.762 40.4976C40.1927 40.9311 40.7051 41.2747 41.2696 41.5086C41.8341 41.7426 42.4393 41.8621 43.0504 41.8604Z" fill="#153343"/>
<path d="M43.0503 33.7208C43.6924 33.7208 44.213 33.2002 44.213 32.5581C44.213 31.9159 43.6924 31.3953 43.0503 31.3953C42.4081 31.3953 41.8875 31.9159 41.8875 32.5581C41.8875 33.2002 42.4081 33.7208 43.0503 33.7208Z" fill="#153343"/>
<path d="M20.9567 44.186C21.5989 44.186 22.1195 43.6654 22.1195 43.0232C22.1195 42.3811 21.5989 41.8605 20.9567 41.8605C20.3146 41.8605 19.794 42.3811 19.794 43.0232C19.794 43.6654 20.3146 44.186 20.9567 44.186Z" fill="#153343"/>
<path d="M30.2596 33.7208C30.9018 33.7208 31.4224 33.2002 31.4224 32.5581C31.4224 31.9159 30.9018 31.3953 30.2596 31.3953C29.6175 31.3953 29.0969 31.9159 29.0969 32.5581C29.0969 33.2002 29.6175 33.7208 30.2596 33.7208Z" fill="#153343"/>
<path d="M34.9109 41.8604V43.0232C34.9109 43.3315 35.0334 43.6273 35.2515 43.8454C35.4695 44.0634 35.7653 44.1859 36.0737 44.1859C36.3821 44.1859 36.6778 44.0634 36.8959 43.8454C37.1139 43.6273 37.2364 43.3315 37.2364 43.0232V41.8604C37.2364 41.552 37.1139 41.2562 36.8959 41.0382C36.6778 40.8201 36.3821 40.6976 36.0737 40.6976C35.7653 40.6976 35.4695 40.8201 35.2515 41.0382C35.0334 41.2562 34.9109 41.552 34.9109 41.8604Z" fill="#153343"/>
<path d="M33.7484 22.0929C33.9783 22.0929 34.2031 22.0247 34.3943 21.8969C34.5854 21.7691 34.7344 21.5875 34.8224 21.3751C34.9104 21.1627 34.9334 20.9289 34.8886 20.7034C34.8437 20.4779 34.733 20.2707 34.5705 20.1081L33.4077 18.9453C33.1884 18.7335 32.8947 18.6163 32.5898 18.6189C32.2849 18.6216 31.9933 18.7439 31.7777 18.9595C31.5621 19.175 31.4398 19.4667 31.4372 19.7716C31.4345 20.0764 31.5517 20.3702 31.7635 20.5895L32.9263 21.7522C33.1443 21.9703 33.44 22.0929 33.7484 22.0929Z" fill="#153343"/>
<path d="M25.3486 46.3417C24.6614 47.0244 23.7746 47.4705 22.8168 47.6151C21.859 47.7598 20.88 47.5956 20.0219 47.1463C19.8319 47.049 19.6187 47.0059 19.4058 47.0217C19.1929 47.0375 18.9885 47.1116 18.8149 47.2359C18.4238 47.52 17.953 47.6734 17.4696 47.6742C16.9162 47.6763 16.3804 47.4801 15.9591 47.1213C15.5378 46.7625 15.2589 46.2646 15.1729 45.718C15.0869 45.1713 15.1995 44.6119 15.4902 44.1411C15.781 43.6702 16.2307 43.319 16.758 43.151C16.9679 43.0649 17.1522 42.9263 17.2933 42.7486C17.4343 42.5709 17.5275 42.3599 17.5638 42.1359C17.5766 42.0603 17.5882 41.9836 17.6068 41.9103C17.6713 41.65 17.6438 41.3753 17.529 41.1328C17.4141 40.8904 17.2189 40.6951 16.9766 40.5801C16.826 40.5113 16.6922 40.4108 16.5842 40.2853C16.4762 40.1599 16.3967 40.0126 16.3511 39.8535C16.3054 39.6944 16.2948 39.5273 16.3199 39.3637C16.345 39.2001 16.4052 39.0438 16.4963 38.9057C16.5979 38.7489 16.6602 38.5699 16.6778 38.3839C16.6955 38.1979 16.6681 38.0103 16.598 37.8371C16.5278 37.664 16.417 37.5102 16.2748 37.389C16.1326 37.2678 15.9633 37.1826 15.7812 37.1406C15.2328 37.0046 14.7527 36.6737 14.4305 36.2095C14.1083 35.7453 13.9661 35.1798 14.0305 34.6184C14.0949 34.0571 14.3614 33.5384 14.7803 33.1592C15.1992 32.7801 15.7418 32.5664 16.3068 32.5581C16.4117 32.564 16.5161 32.576 16.6196 32.5942C16.8715 32.6274 17.1274 32.5772 17.3482 32.4512C17.5689 32.3252 17.7422 32.1304 17.8417 31.8965C18.1993 31.0578 18.7956 30.3427 19.5564 29.8401C20.3172 29.3375 21.2089 29.0696 22.1207 29.0698C22.9638 29.0725 23.7897 29.3088 24.5067 29.7523C24.6432 29.8346 24.7952 29.888 24.9532 29.909C25.1112 29.9301 25.2719 29.9185 25.4252 29.8749C25.5785 29.8313 25.7212 29.7566 25.8444 29.6555C25.9677 29.5544 26.0688 29.429 26.1416 29.2872C26.4382 28.708 26.8538 28.198 27.3613 27.7907C27.4882 27.6883 27.5921 27.5603 27.6663 27.4151C27.7405 27.2699 27.7833 27.1107 27.792 26.9478C27.8006 26.785 27.775 26.6221 27.7166 26.4699C27.6582 26.3176 27.5685 26.1793 27.4532 26.064C27.136 25.7498 26.9165 25.3506 26.8211 24.9144C26.7258 24.4783 26.7586 24.0238 26.9157 23.6059C27.0728 23.188 27.3474 22.8245 27.7064 22.5592C28.0655 22.2938 28.4936 22.138 28.9392 22.1105C29.1578 22.0957 29.3677 22.0195 29.5448 21.8906C29.7219 21.7617 29.859 21.5854 29.9403 21.3819C30.0216 21.1785 30.0438 20.9563 30.0043 20.7408C29.9648 20.5253 29.8653 20.3254 29.7171 20.1641C29.3463 19.7651 29.1284 19.2479 29.102 18.7038C29.0755 18.1597 29.2423 17.6238 29.5728 17.1908C29.9032 16.7578 30.3761 16.4555 30.9079 16.3374C31.4397 16.2194 31.996 16.293 32.4787 16.5455C32.6186 16.6178 32.7718 16.661 32.9288 16.6724C33.0859 16.6837 33.2437 16.6631 33.3925 16.6116C33.5414 16.5602 33.6782 16.4791 33.7948 16.3732C33.9114 16.2673 34.0052 16.1388 34.0706 15.9955C34.4252 15.2166 35.0544 14.5956 35.838 14.2513C35.8417 14.3315 35.8366 14.4118 35.8229 14.4909C35.7029 14.9331 35.672 15.3948 35.7318 15.8491C35.7917 16.3034 35.9412 16.7413 36.1717 17.1373L36.8519 18.3199C37.0808 18.7171 37.3857 19.0653 37.7492 19.3446C38.1128 19.6239 38.5278 19.8288 38.9705 19.9475C39.4133 20.0663 39.8751 20.0967 40.3296 20.0369C40.7841 19.9771 41.2224 19.8282 41.6193 19.5989L43.6333 18.4362C44.0305 18.2073 44.3787 17.9024 44.658 17.5389C44.9372 17.1753 45.1421 16.7603 45.2609 16.3176C45.3797 15.8748 45.4101 15.413 45.3503 14.9585C45.2904 14.504 45.1416 14.0657 44.9123 13.6688L44.2321 12.4897C44.0045 12.0913 43.6998 11.7421 43.3359 11.4626C42.972 11.1831 42.556 10.9789 42.1124 10.8618C41.9646 10.8223 41.8261 10.754 41.7047 10.6609C41.5834 10.5677 41.4816 10.4516 41.4053 10.319C41.3289 10.1865 41.2794 10.0402 41.2597 9.88852C41.24 9.73684 41.2504 9.58276 41.2903 9.43509C41.4098 8.99298 41.4405 8.53157 41.3806 8.07752C41.3207 7.62348 41.1715 7.1858 40.9414 6.78977L39.6787 4.60956C39.479 4.2539 39.1868 3.9589 38.833 3.75583C38.4793 3.55276 38.0772 3.44918 37.6694 3.45608L36.3426 1.16308C36.0344 0.629083 35.5268 0.239328 34.9313 0.0795007C34.3358 -0.0803264 33.7013 0.00285774 33.1671 0.310767L31.152 1.47355C30.8874 1.62625 30.6554 1.8296 30.4694 2.07197C30.2834 2.31435 30.147 2.591 30.068 2.88612C29.9889 3.18124 29.9688 3.48904 30.0088 3.79194C30.0487 4.09484 30.148 4.3869 30.3008 4.65142L31.6253 6.94442C31.4168 7.29477 31.3068 7.69488 31.3068 8.10255C31.3068 8.51021 31.4168 8.91033 31.6253 9.26068L32.888 11.4467C33.1681 11.9242 33.5585 12.3276 34.0264 12.6234C33.4339 13.0135 32.9183 13.5093 32.5055 14.0862C32.1515 13.9976 31.7879 13.9531 31.4229 13.9537C30.2961 13.957 29.209 14.3701 28.3643 15.1159C27.5196 15.8617 26.9751 16.8894 26.8323 18.0071L25.6276 16.3408C25.5956 16.3077 25.5619 16.2762 25.5265 16.2467C25.4765 16.1899 25.4208 16.1384 25.3602 16.0932C25.3025 16.0525 25.2409 16.0174 25.1765 15.9885C25.1068 15.9536 25.0335 15.9263 24.9579 15.9071C24.9265 15.899 24.9009 15.8792 24.8695 15.8734C24.8381 15.8676 24.7881 15.8804 24.7474 15.8734C24.6698 15.8683 24.5918 15.8714 24.5149 15.8827C24.4393 15.894 24.3652 15.9135 24.2939 15.9408C24.2511 15.9498 24.2088 15.961 24.1672 15.9746L23.9904 16.0618C23.1926 16.4566 22.3242 16.6891 21.4358 16.7458C20.5474 16.8025 19.6565 16.6822 18.8149 16.392C18.6696 16.3389 18.5151 16.3153 18.3606 16.3227C18.206 16.3301 18.0545 16.3682 17.9148 16.4349C17.7752 16.5016 17.6503 16.5954 17.5474 16.711C17.4445 16.8266 17.3657 16.9615 17.3157 17.1079C17.2656 17.2543 17.2453 17.4093 17.2558 17.5636C17.2664 17.718 17.3077 17.8687 17.3773 18.0069C17.4468 18.1451 17.5433 18.2681 17.661 18.3685C17.7786 18.469 17.9152 18.545 18.0626 18.592C18.6781 18.7945 19.3135 18.9309 19.9579 18.999L18.3475 20.1617C18.2231 20.2512 18.1176 20.3643 18.0371 20.4947C17.9565 20.625 17.9026 20.77 17.8783 20.9213C17.8539 21.0726 17.8598 21.2272 17.8954 21.3762C17.931 21.5252 17.9958 21.6657 18.0859 21.7896L21.6905 26.7721C20.9354 26.8139 20.1923 26.9789 19.4905 27.2605C19.166 26.2665 18.5794 25.3785 17.7926 24.6899C17.0058 24.0013 16.0478 23.5376 15.0196 23.3477C14.814 22.4904 14.3693 21.709 13.7372 21.0944C13.1051 20.4798 12.3115 20.0572 11.4487 19.8757L9.41269 17.8397L11.0569 16.1955L13.1127 18.2559C13.2199 18.367 13.3482 18.4556 13.4901 18.5165C13.6319 18.5775 13.7845 18.6095 13.9389 18.6109C14.0933 18.6122 14.2464 18.5828 14.3893 18.5243C14.5322 18.4659 14.6621 18.3795 14.7712 18.2703C14.8804 18.1612 14.9667 18.0313 15.0252 17.8884C15.0837 17.7455 15.1131 17.5924 15.1118 17.438C15.1104 17.2836 15.0783 17.1311 15.0174 16.9892C14.9565 16.8473 14.8679 16.719 14.7568 16.6118L12.7022 14.5525L13.2359 14.0188L20.2312 13.242C20.4949 13.213 20.7407 13.0948 20.9279 12.9068C21.1151 12.7189 21.2324 12.4726 21.2604 12.2088C21.2884 11.945 21.2253 11.6796 21.0817 11.4566C20.938 11.2336 20.7224 11.0664 20.4707 10.9828C19.1119 10.5259 17.8773 9.7606 16.8636 8.74691C15.8499 7.73322 15.0846 6.49861 14.6278 5.13979C14.5437 4.88869 14.3764 4.67382 14.1536 4.5307C13.9308 4.38759 13.6658 4.3248 13.4025 4.35274C13.1392 4.38067 12.8933 4.49764 12.7055 4.68432C12.5176 4.87099 12.3992 5.11617 12.3696 5.37932L11.5929 12.3734L11.058 12.9083L9.00107 10.8525C8.78303 10.634 8.48714 10.5111 8.17847 10.5108C7.8698 10.5104 7.57365 10.6327 7.35515 10.8508C7.13666 11.0688 7.01373 11.3647 7.0134 11.6734C7.01307 11.982 7.13538 12.2782 7.35341 12.4967L9.4092 14.5525L7.76852 16.1967L5.71273 14.1409C5.49342 13.929 5.1997 13.8118 4.89483 13.8145C4.58995 13.8171 4.29831 13.9394 4.08272 14.155C3.86713 14.3706 3.74484 14.6623 3.7422 14.9671C3.73955 15.272 3.85675 15.5657 4.06856 15.785L6.12435 17.8408L5.20459 18.7606C4.12197 17.8721 2.88621 17.1888 1.55812 16.7443C1.3838 16.6848 1.1977 16.668 1.01555 16.6956C0.833401 16.7231 0.660554 16.794 0.511617 16.9025C0.362672 17.0096 0.241199 17.1505 0.157128 17.3136C0.0730568 17.4767 0.0287744 17.6573 0.0279007 17.8408V24.4187C0.0279007 24.7271 0.150407 25.0228 0.368471 25.2409C0.586534 25.4589 0.882291 25.5814 1.19068 25.5814H5.99644C6.15571 26.1825 6.43309 26.7458 6.81241 27.2386C7.19172 27.7313 7.66538 28.1435 8.20572 28.4512C8.18027 28.6564 8.16746 28.863 8.16735 29.0698C8.16735 29.3782 8.28986 29.6739 8.50792 29.892C8.72599 30.1101 9.02174 30.2326 9.33013 30.2326C9.63852 30.2326 9.93428 30.1101 10.1523 29.892C10.3704 29.6739 10.4929 29.3782 10.4929 29.0698C10.499 28.7361 10.5538 28.4051 10.6557 28.0872C10.6992 27.9399 10.7131 27.7854 10.6966 27.6326C10.68 27.4799 10.6334 27.3319 10.5593 27.1973C10.4852 27.0627 10.3852 26.9441 10.2651 26.8484C10.1449 26.7526 10.007 26.6817 9.8592 26.6396C9.53992 26.5475 9.24397 26.3884 8.99111 26.1729C8.73826 25.9573 8.53432 25.6903 8.39293 25.3896C8.51653 25.3137 8.62464 25.215 8.71153 25.0989C8.819 24.9495 8.88948 24.7767 8.91718 24.5948C8.94487 24.4129 8.92899 24.227 8.87083 24.0524C8.77665 23.7675 8.65456 23.4954 8.53828 23.221C8.7384 22.8797 9.02379 22.5963 9.36645 22.3986C9.70912 22.2009 10.0973 22.0956 10.4929 22.0931C11.1097 22.0931 11.7012 22.3381 12.1373 22.7742C12.5735 23.2104 12.8185 23.8019 12.8185 24.4187C12.8185 24.7271 12.941 25.0228 13.159 25.2409C13.3771 25.4589 13.6729 25.5814 13.9812 25.5814C14.8195 25.5837 15.6288 25.8884 16.2604 26.4396C16.8921 26.9907 17.3037 27.7512 17.4196 28.5814C16.8884 29.0611 16.4346 29.62 16.0742 30.2384C15.1302 30.2838 14.2225 30.6163 13.4724 31.1913C12.7222 31.7663 12.1654 32.5565 11.8762 33.4563C11.5871 34.3561 11.5794 35.3228 11.8541 36.2271C12.1288 37.1315 12.673 37.9304 13.4138 38.5174L11.1348 39.6569C10.9981 39.7251 10.8762 39.8196 10.7761 39.935C10.6759 40.0504 10.5995 40.1843 10.5511 40.3292C10.5028 40.4741 10.4834 40.6271 10.4942 40.7795C10.5049 40.9319 10.5456 41.0807 10.6138 41.2173C10.7517 41.4933 10.9935 41.7033 11.2862 41.801C11.4311 41.8493 11.5841 41.8687 11.7365 41.8579C11.8889 41.8472 12.0376 41.8065 12.1743 41.7383L14.1998 40.7255C14.3181 41.0502 14.4835 41.3558 14.6905 41.6324C13.7598 42.3274 13.1235 43.3461 12.9072 44.4874C12.691 45.6287 12.9104 46.8095 13.5223 47.7969C14.1342 48.7842 15.094 49.5063 16.2123 49.8205C17.3306 50.1347 18.526 50.0182 19.5626 49.494C20.3744 49.8268 21.2433 49.9986 22.1207 49.9998C23.9366 49.9979 25.679 49.282 26.9718 48.0068C27.1926 47.7909 27.3186 47.4962 27.3221 47.1874C27.3256 46.8786 27.2063 46.5811 26.9904 46.3603C26.7745 46.1395 26.4798 46.0135 26.171 46.01C25.8622 46.0065 25.5647 46.1258 25.3439 46.3417H25.3486ZM38.924 7.95953C39.0004 8.09179 39.05 8.2378 39.07 8.38923C39.0899 8.54066 39.0798 8.69454 39.0403 8.84208C38.9218 9.2846 38.8916 9.74613 38.9515 10.2003C39.0113 10.6545 39.1601 11.0924 39.3892 11.4891C39.6183 11.8858 39.9233 12.2335 40.2868 12.5123C40.6503 12.7912 41.0652 12.9956 41.5077 13.1141C41.6551 13.1532 41.7931 13.2213 41.9139 13.3143C42.0347 13.4074 42.1357 13.5235 42.2112 13.656L42.8926 14.8374C43.0461 15.1041 43.0877 15.4208 43.0081 15.7181C42.9286 16.0154 42.7344 16.269 42.4682 16.4234L40.4542 17.5862C40.3221 17.6628 40.1761 17.7126 40.0247 17.7328C39.8733 17.753 39.7194 17.7432 39.5718 17.7039C39.4242 17.6646 39.2857 17.5966 39.1644 17.5038C39.0431 17.4109 38.9413 17.2951 38.8647 17.1629L38.1845 15.9815C38.1077 15.8494 38.0578 15.7034 38.0379 15.5519C38.0179 15.4004 38.0282 15.2465 38.0682 15.099C38.1958 14.6173 38.2179 14.1137 38.133 13.6226C38.0481 13.1316 37.8582 12.6646 37.5764 12.2537C37.5682 12.2397 37.5566 12.2281 37.5485 12.2141C37.085 11.5347 36.3944 11.0428 35.6008 10.8269C35.4534 10.7876 35.3152 10.7195 35.1943 10.6265C35.0734 10.5335 34.972 10.4174 34.8961 10.2851L33.6322 8.0979L37.6577 5.77234L38.924 7.95953ZM34.3299 2.32586L35.4927 4.3398L33.4799 5.50257L32.3171 3.48864L34.3299 2.32586ZM14.2708 9.31882C14.859 10.0724 15.5378 10.7507 16.2917 11.3386L14.0173 11.592L14.2708 9.31882ZM2.35346 19.6152C3.88422 20.4632 5.14546 21.7249 5.99296 23.2559H2.35346V19.6152ZM6.84876 20.4047L7.76852 19.485L8.49991 20.2164C8.06323 20.4231 7.66212 20.6979 7.31155 21.0303C7.16155 20.814 7.01271 20.6059 6.84876 20.4047ZM24.423 18.6455L26.066 20.9164C25.2419 21.6204 24.6915 22.5916 24.5108 23.6602C24.3301 24.7289 24.5308 25.8271 25.0776 26.7628C24.9753 26.8791 24.8811 26.9954 24.7858 27.1186C24.7731 27.0865 24.7588 27.0551 24.7428 27.0245L20.6544 21.371L24.423 18.6455Z" fill="#153343"/>
</svg>
