<svg width="79" height="50" viewBox="0 0 79 50" fill="none" xmlns="http://www.w3.org/2000/svg">
<path d="M14.2342 6.15353C13.8828 6.15353 13.5313 5.97779 13.3556 5.62632C12.9162 4.8355 11.5982 2.55092 10.1044 2.19945C9.57721 2.11158 9.13786 2.19945 8.69852 2.46305C8.25918 2.81452 7.6441 2.63879 7.29263 2.19945C6.94115 1.7601 7.11689 1.14502 7.55623 0.79355C8.52279 0.0906016 9.57721 -0.0851343 10.6316 0.178471C11.7739 0.442077 12.9162 1.32076 13.9706 2.72666C14.0585 2.81453 14.1464 2.90239 14.1464 2.99026C14.7614 2.02371 15.5523 0.969287 16.7824 0.442076C17.9247 -0.085135 19.2427 -0.173004 20.5608 0.354207C21.088 0.529944 21.3516 1.14502 21.1758 1.67223C21.0001 2.19945 20.385 2.46305 19.8578 2.28731C19.067 2.02371 18.3641 2.02371 17.6611 2.28731C15.9916 3.07813 15.2008 5.45058 15.2008 5.45058C15.1129 5.88992 14.7614 6.15353 14.2342 6.15353C14.3221 6.15353 14.3221 6.15353 14.2342 6.15353Z" fill="#153343"/>
<path d="M77.9394 48.0669H74.4246L69.9433 21.1791C69.9433 21.0034 69.8554 20.8277 69.7676 20.7398L63.2653 14.0618L67.3951 9.93197C67.5709 9.75623 67.6587 9.5805 67.6587 9.40476L68.3617 6.24149C68.4496 5.71428 68.0981 5.18707 67.5709 5.01134C67.0437 4.92347 66.5164 5.27494 66.3407 5.80215L65.7256 8.70181L61.9473 12.4802L57.2903 6.68084C57.2024 6.5051 57.0267 6.41723 56.8509 6.32936L47.0096 3.25397C46.746 3.1661 46.5703 3.1661 46.3067 3.25397L38.75 6.24149C38.2228 6.41723 37.9592 7.03231 38.2228 7.55952C38.3985 8.08673 39.0136 8.35034 39.5408 8.08673L46.746 5.18707L55.9722 8.08673L60.5414 13.7982L59.2234 15.1162C58.8719 15.4677 58.784 16.1706 59.2234 16.5221C59.3991 16.6978 59.6627 16.7857 59.9263 16.7857C60.1899 16.7857 60.4535 16.6978 60.6293 16.5221L61.8594 15.2919L68.0102 21.5306L72.4036 47.8033H61.1565C62.2109 47.0125 63.0017 45.7823 63.2653 44.3764H66.7801C67.3073 44.3764 67.7466 43.9371 67.7466 43.4099V34.623C67.7466 34.0958 67.3073 33.6565 66.7801 33.6565H64.0561L60.102 27.5057C59.9263 27.2421 59.5748 27.0663 59.2234 27.0663H51.1395V25.4847H58.8719C59.3991 25.4847 59.8384 25.0454 59.8384 24.5181V20.3004C59.8384 19.7732 59.3991 19.3339 58.8719 19.3339H30.3146C25.394 19.3339 20.8248 20.9155 17.4858 23.8152C14.1468 26.7148 12.3016 30.5811 12.3016 34.7109V43.7613C12.3016 44.2886 12.7409 44.7279 13.2681 44.7279H17.7494C18.013 46.1338 18.8039 47.3639 19.8583 48.1548H5.35998L6.94161 29.4388L13.9711 21.3549C14.059 21.267 14.1468 21.0913 14.1468 21.0034L17.0465 12.0408L26.4484 5.97789L34.9717 9.49263L43.9342 15.2041C44.3736 15.4677 44.9887 15.3798 45.3401 14.9405C45.6037 14.5011 45.5159 13.8861 45.0765 13.5346L36.1139 7.73526C36.0261 7.73526 36.0261 7.64739 35.9382 7.64739L26.7999 3.86904C26.5363 3.78118 26.1848 3.78118 25.8333 3.95691L15.7285 10.4592C15.5527 10.6349 15.377 10.8107 15.2891 11.0743L12.3016 20.2126L11.0714 21.7063L10.017 19.949C9.66553 19.3339 8.96259 19.1582 8.34751 19.5096L5.97506 20.9155C5.71145 21.0913 5.53572 21.3549 5.44785 21.7063C5.35998 22.0578 5.44785 22.3214 5.62358 22.6729L7.46882 25.924L5.18424 28.5601C5.0085 28.7358 4.92064 28.9116 4.92064 29.1752L3.339 48.0669H0.966553C0.439342 48.0669 0 48.5062 0 49.0334C0 49.5607 0.439342 50 0.966553 50H73.6338H78.0272C78.5544 50 78.9938 49.5607 78.9938 49.0334C78.9938 48.5062 78.5544 48.0669 77.9394 48.0669ZM58.6962 28.9994L62.6502 35.1502C62.826 35.4138 63.1774 35.5896 63.5289 35.5896H65.8135V42.619H63.2653C62.826 40.0709 60.5414 38.1378 57.8175 38.1378C55.0935 38.1378 52.8968 40.0709 52.3696 42.619H51.0516V28.9994H58.6962ZM17.6616 42.619H14.2347V34.623C14.2347 31.1083 15.8163 27.7693 18.716 25.309C21.7035 22.7608 25.8333 21.267 30.2268 21.267H57.9053V23.4637H50.1729C49.6457 23.4637 49.2064 23.9031 49.2064 24.4303V27.945V28.2965V42.619H39.2772C38.8379 40.0709 36.5533 38.1378 33.8294 38.1378C31.1054 38.1378 28.9087 40.0709 28.3815 42.619C27.9422 40.0709 25.6576 38.1378 22.9337 38.1378C20.3855 38.1378 18.1009 40.0709 17.6616 42.619ZM23.1094 47.1003C21.1763 47.1003 19.5947 45.5187 19.5947 43.5856C19.5947 41.6525 21.1763 40.0709 23.1094 40.0709C25.0425 40.0709 26.6242 41.6525 26.6242 43.5856C26.6242 45.5187 25.0425 47.1003 23.1094 47.1003ZM26.3605 48.0669C27.415 47.2761 28.2058 46.0459 28.4694 44.64C28.733 46.0459 29.5238 47.2761 30.5782 48.0669H26.3605ZM33.9172 47.1003C31.9841 47.1003 30.4025 45.5187 30.4025 43.5856C30.4025 41.6525 31.9841 40.0709 33.9172 40.0709C35.8503 40.0709 37.432 41.6525 37.432 43.5856C37.432 45.5187 35.8503 47.1003 33.9172 47.1003ZM37.1684 48.0669C38.2228 47.2761 39.0136 46.0459 39.2772 44.64H49.9972H50.085H50.1729H52.4575C52.7211 46.0459 53.5119 47.2761 54.5663 48.0669H37.1684ZM57.9053 47.1003C55.9722 47.1003 54.3906 45.5187 54.3906 43.5856C54.3906 41.6525 55.9722 40.0709 57.9053 40.0709C59.8384 40.0709 61.4201 41.6525 61.4201 43.5856C61.4201 45.5187 59.8384 47.1003 57.9053 47.1003Z" fill="#153343"/>
<path d="M27.6786 24.7816C27.2393 24.4301 26.6242 24.4301 26.2727 24.8694L18.4525 33.2169C18.101 33.6563 18.101 34.2714 18.5403 34.6228C18.7161 34.7986 18.9797 34.8864 19.2433 34.8864C19.5069 34.8864 19.7705 34.7986 19.9462 34.535L27.7665 26.1875C28.0301 25.7481 28.0301 25.133 27.6786 24.7816Z" fill="#153343"/>
<path d="M26.0974 34.6228C26.2732 34.7986 26.5368 34.8864 26.8004 34.8864C27.064 34.8864 27.3276 34.7986 27.5033 34.535L35.3236 26.1875C35.6751 25.7481 35.6751 25.133 35.2358 24.7816C34.7964 24.4301 34.1813 24.4301 33.8299 24.8694L26.0096 33.2169C25.6581 33.5684 25.746 34.1835 26.0974 34.6228Z" fill="#153343"/>
<path d="M53.4236 34.8866H59.9259C60.1016 34.8866 60.2773 34.7987 60.2773 34.623C60.3652 34.4473 60.3652 34.2715 60.2773 34.1837L58.0806 30.6689C57.9928 30.4932 57.817 30.4932 57.7292 30.4932H53.4236C53.16 30.4932 52.9843 30.6689 52.9843 30.9325V34.4473C52.9843 34.7109 53.16 34.8866 53.4236 34.8866Z" fill="#153343"/>
</svg>
