<svg width="50" height="67" viewBox="0 0 50 67" fill="none" xmlns="http://www.w3.org/2000/svg">
<path d="M48.9858 24.2375H47.4938V22.7756C47.4938 21.1942 46.69 18.6054 41.5575 18.3056V17.2584H44.2515C44.3191 17.2584 44.3852 17.2516 44.4498 17.2389C46.699 17.1352 48.4983 15.2721 48.4983 12.9973C48.4983 11.9238 48.0948 10.9104 47.3872 10.1373C47.744 9.50703 47.9333 8.7941 47.9333 8.05562C47.9333 6.10163 46.5923 4.44062 44.7803 3.95456C44.6308 1.74815 42.788 0 40.5441 0C38.3001 0 36.458 1.74815 36.3063 3.95456C34.4958 4.44062 33.1533 6.10163 33.1533 8.05562C33.1533 8.79335 33.3441 9.50703 33.7009 10.1366C32.9925 10.9096 32.5891 11.9238 32.5891 12.9973C32.5891 15.2706 34.3868 17.1337 36.6346 17.2389C36.7007 17.2524 36.7683 17.2584 36.8374 17.2584H39.5314V18.3056C34.3973 18.6054 33.595 21.1942 33.595 22.7756V24.2375H32.6635C32.0106 22.7125 31.327 21.1423 30.7035 19.5798C30.297 18.5656 30.0799 17.0781 30.0491 16.0865V13.9229H30.3632C30.9236 13.9229 31.3773 13.4691 31.3773 12.9087V8.73625C31.3773 8.17657 30.9236 7.72207 30.3632 7.72207H26.7451H23.0475H19.4513C18.8916 7.72207 18.4371 8.17582 18.4371 8.73625V12.9087C18.4371 13.4684 18.8909 13.9229 19.4513 13.9229H19.7653V16.0489C19.7202 17.2884 19.4798 18.4904 19.0742 19.5121C18.4506 21.0965 17.7595 22.6892 17.0909 24.2375H16.5274V12.796C16.5274 8.64911 13.1626 5.28352 9.01497 5.28352C4.87559 5.28352 1.50249 8.64911 1.50249 12.796V42.628L0.180299 44.5437C0.142737 44.6038 0.104422 44.6639 0.0826362 44.7398C0.0525863 44.7848 0.0368104 44.8449 0.0300491 44.8975C0.00751173 44.9727 0 45.0478 0 45.1229V65.647C0 66.2021 0.450747 66.6612 1.01418 66.6612H48.9858C49.1278 66.6612 49.263 66.6311 49.3907 66.571C49.4583 66.5485 49.5184 66.5109 49.5785 66.4658C49.6386 66.4283 49.6912 66.3757 49.7446 66.3231C49.8648 66.1811 49.9474 66.0151 49.9782 65.8498C49.9932 65.7822 50 65.7146 50 65.647V25.2517C50 24.695 49.5492 24.2375 48.9858 24.2375ZM37.0124 15.2308C36.9538 15.2203 36.8952 15.215 36.8351 15.215C35.6114 15.215 34.6167 14.2196 34.6167 12.9966C34.6167 12.2483 34.9938 11.5542 35.6264 11.141C35.8788 10.9757 36.0448 10.7068 36.0786 10.4063C36.1124 10.1058 36.011 9.80678 35.8029 9.58967C35.4025 9.17198 35.1824 8.62732 35.1824 8.05487C35.1824 6.84611 36.1673 5.85146 37.3775 5.83869C37.675 5.83569 37.9583 5.70046 38.1476 5.47058C38.3384 5.23995 38.4173 4.93795 38.3632 4.64346C38.3384 4.50147 38.3249 4.37151 38.3249 4.24605C38.3249 3.02302 39.3195 2.02762 40.5433 2.02762C41.7656 2.02762 42.7602 3.02302 42.7602 4.24605C42.7602 4.37151 42.7482 4.50147 42.7219 4.64346C42.6693 4.93795 42.7482 5.23995 42.9375 5.47058C43.1283 5.70121 43.4101 5.83569 43.7091 5.83869C44.9193 5.85221 45.9042 6.84611 45.9042 8.05487C45.9042 8.62732 45.6841 9.17198 45.2837 9.58967C45.0741 9.80678 44.9727 10.1065 45.0065 10.4063C45.0418 10.706 45.2078 10.9757 45.4602 11.141C46.0913 11.5542 46.4684 12.2483 46.4684 12.9966C46.4684 14.2196 45.4737 15.215 44.2515 15.215C44.1914 15.215 44.1313 15.2203 44.0742 15.2308H41.5575V7.32616H39.5299V15.23H37.0124V15.2308ZM27.7556 9.75044H29.346V11.8945H29.0395C29.0364 11.8945 29.0349 11.8937 29.0319 11.8937C29.0289 11.8937 29.0274 11.8945 29.0244 11.8945H27.7556V9.75044ZM24.0587 9.75044H25.728V11.8945H24.0587V9.75044ZM20.4625 9.75044H22.0303V11.8945H20.784C20.781 11.8945 20.7787 11.8937 20.7765 11.8937C20.7735 11.8937 20.7712 11.8945 20.769 11.8945H20.4625V9.75044ZM20.9568 20.2559C21.4443 19.0231 21.7298 17.5965 21.7899 16.0857V13.9221H23.0438H26.7414H28.0178V16.124C28.0546 17.2351 28.2875 19.0088 28.8216 20.331C29.3467 21.6457 29.8959 22.9529 30.4518 24.2375H19.2965C19.86 22.9303 20.4234 21.5931 20.9568 20.2559ZM3.52786 12.796C3.52786 9.76847 5.99195 7.31189 9.01196 7.31189C12.0395 7.31189 14.4961 9.76847 14.4961 12.796V24.2375H11.6038C11.0478 24.2375 10.5888 24.695 10.5888 25.2517V26.0991L6.20004 28.8171L7.26831 30.5412L10.5888 28.485V32.8543H5.73577C5.17234 32.8543 4.72159 33.3125 4.72159 33.8685V37.9703L3.5271 39.6989V12.796H3.52786ZM23.4059 37.2716H6.75071V34.8827H23.4059V37.2716ZM24.4118 40.3217L26.5446 44.108H22.2114L24.4118 40.3217ZM19.4385 64.632H2.02536V46.1363H19.4393V64.632H19.4385ZM2.98921 44.108L6.26916 39.2925H22.6614L19.8667 44.108H2.98921ZM27.2673 64.632H21.4676V46.1363H27.2673V64.632ZM37.4617 64.632H29.3024V45.1222C29.3024 45.0621 29.2949 45.0019 29.2806 44.9419C29.2588 44.7999 29.2055 44.6722 29.1311 44.5587L25.435 38.0078V33.8677C25.435 33.3125 24.9835 32.8535 24.42 32.8535H12.6179V26.2651H37.4617V64.632ZM35.6204 24.2375V22.7756C35.6204 21.1348 37.2769 20.3032 40.5433 20.3032C42.5664 20.3032 43.9682 20.624 44.7443 21.2573H39.8769V23.2849H45.4647V24.2382H38.4759H35.6204V24.2375ZM39.4893 26.2659H43.0112V60.7346L39.4893 63.5352V26.2659ZM41.3674 64.632L43.9893 62.5436L46.3324 64.632H41.3674ZM47.9716 63.3775L45.0418 60.7639L45.0388 60.7616V26.2659H46.4767H46.4782H47.9716V63.3775Z" fill="#153343"/>
<path d="M10.5883 62.4385H10.746C11.0398 62.4385 11.3253 62.4235 11.6032 62.3859C11.9488 62.3483 12.2868 62.2807 12.6174 62.1831C15.6006 61.3642 17.801 58.6297 17.801 55.3843C17.801 52.1389 15.5998 49.3961 12.6174 48.5772C12.2876 48.4796 11.9488 48.4119 11.6032 48.3744C11.3253 48.3368 11.0398 48.3218 10.746 48.3218H10.5883C6.7727 48.4119 3.69183 51.5447 3.69183 55.3835C3.69183 59.2224 6.7727 62.3483 10.5883 62.4385ZM10.5883 50.3584C10.6409 50.3509 10.6942 50.3509 10.746 50.3509C11.0398 50.3509 11.3253 50.3735 11.6032 50.4336C11.9563 50.4854 12.2944 50.5831 12.6174 50.719C14.4655 51.4545 15.7726 53.2725 15.7726 55.3843C15.7726 57.4953 14.4655 59.3058 12.6174 60.042C12.2944 60.1772 11.9563 60.2749 11.6032 60.3275C11.3253 60.3876 11.0398 60.4094 10.746 60.4094C10.6942 60.4094 10.6409 60.4094 10.5883 60.4019C7.8913 60.3192 5.72095 58.103 5.72095 55.3835C5.72095 52.664 7.8913 50.4411 10.5883 50.3584Z" fill="#153343"/>
<path d="M10.5889 59.3498C10.6415 59.3528 10.6926 59.3656 10.7459 59.3656C11.0456 59.3656 11.3296 59.3085 11.6038 59.2259C11.9779 59.1147 12.3198 58.9336 12.618 58.6962C13.2986 58.1516 13.7486 57.3312 13.7637 56.3967C13.7862 56.0819 13.7396 55.3449 13.0372 54.3893L12.6172 53.8191L11.6031 52.4406L10.7459 51.2762L10.5881 51.4895L8.47487 54.3578C7.73114 55.2938 7.72513 56.2554 7.72663 56.3456C7.72738 57.9585 8.99849 59.2672 10.5889 59.3498ZM10.0855 55.5928L10.5889 54.9092L10.7451 54.6981L11.4032 55.5921C11.4949 55.7168 11.555 55.8197 11.6038 55.9129C11.697 56.0909 11.7293 56.2149 11.7368 56.2614L11.736 56.3471C11.736 56.5191 11.6812 56.6724 11.6038 56.8129C11.4355 57.1209 11.12 57.338 10.7459 57.338C10.6903 57.338 10.6422 57.3154 10.5889 57.3064C10.1201 57.2283 9.75575 56.8384 9.755 56.3538C9.75575 56.3396 9.77153 55.9887 10.0855 55.5928Z" fill="#153343"/>
<path d="M11.8254 15.013L10.757 13.2887L6.20034 16.1118L7.26871 17.8361L11.8254 15.013Z" fill="#153343"/>
<path d="M11.8254 21.3662L10.757 19.6419L6.20044 22.4652L7.26875 24.1895L11.8254 21.3662Z" fill="#153343"/>
</svg>
