<svg width="468" height="448" viewBox="0 0 468 448" fill="none" xmlns="http://www.w3.org/2000/svg">
<path d="M452.2 366.6L438.5 359.2C413.9 289 384.1 209.8 349.6 154.5C328.8 121.1 307.8 98.5998 286.1 86.7998L299.8 94.1998C321.5 106 342.6 128.5 363.3 161.9C397.8 217.3 427.6 296.4 452.2 366.6Z" fill="#E1E6E6"/>
<path d="M50.9994 423L37.3994 415.6L438.499 359.2L452.199 366.6L50.9994 423Z" fill="#EDF0F0"/>
<path d="M50.9998 423L37.2998 415.6C38.1998 412.4 39.1998 409.3 40.0998 406.2L53.7998 413.6C52.8998 416.7 51.9998 419.8 50.9998 423Z" fill="#E1E7E7"/>
<path d="M53.9002 413.6L40.2002 406.2C48.6002 378.4 57.0002 352.6 65.3002 328.6L79.0002 336C70.6002 360 62.3002 385.8 53.9002 413.6Z" fill="#E2E7E7"/>
<path d="M53.8992 413.6L40.1992 406.2C48.5992 378.4 56.9992 352.6 65.2992 328.6L78.9992 336C70.5992 360 62.2992 385.8 53.8992 413.6Z" fill="#E2E7E7"/>
<path d="M78.9988 336L65.2988 328.6C71.1988 311.7 77.0988 295.7 82.9988 280.5L96.6988 287.9C90.7988 303 84.8988 319 78.9988 336Z" fill="#E2E7E7"/>
<path d="M96.699 287.9L82.999 280.5C87.499 268.9 92.099 257.8 96.699 247.2L110.399 254.6C105.799 265.2 101.299 276.3 96.699 287.9Z" fill="#E2E8E7"/>
<path d="M110.399 254.6L96.6992 247.2C100.399 238.6 104.099 230.3 107.799 222.4L121.499 229.8C117.799 237.7 114.099 245.9 110.399 254.6Z" fill="#E3E8E8"/>
<path d="M121.499 229.7L107.799 222.3C110.899 215.6 114.099 209.1 117.299 202.9L130.999 210.3C127.799 216.5 124.699 223 121.499 229.7Z" fill="#E3E8E8"/>
<path d="M130.999 210.3L117.299 202.9C119.999 197.5 122.799 192.3 125.499 187.2L139.199 194.6C136.399 199.6 133.699 204.9 130.999 210.3Z" fill="#E3E8E8"/>
<path d="M139.199 194.6L125.499 187.2C126.099 186 126.799 184.8 127.399 183.7C129.099 180.6 130.899 177.5 132.599 174.5L146.299 181.9C144.599 184.9 142.799 188 141.099 191.1C140.499 192.2 139.799 193.4 139.199 194.6Z" fill="#E3E8E8"/>
<path d="M146.3 181.9L132.6 174.5C134.7 170.9 136.8 167.4 138.9 163.9L152.6 171.3C150.5 174.7 148.4 178.3 146.3 181.9Z" fill="#E4E9E8"/>
<path d="M152.599 171.3L138.899 163.9C140.799 160.8 142.699 157.8 144.699 154.8L158.399 162.2C156.399 165.2 154.499 168.2 152.599 171.3Z" fill="#E4E9E9"/>
<path d="M158.3 162.2L144.6 154.8C146.4 152.1 148.1 149.5 149.9 146.9L163.6 154.3C161.9 156.9 160.1 159.5 158.3 162.2Z" fill="#E4E9E9"/>
<path d="M163.599 154.3L149.899 146.9C151.499 144.5 153.199 142.2 154.799 140L168.499 147.4C166.899 149.7 165.199 152 163.599 154.3Z" fill="#E4E9E9"/>
<path d="M168.499 147.4L154.799 140C156.299 137.9 157.799 135.9 159.299 133.9L172.999 141.3C171.499 143.3 169.999 145.4 168.499 147.4Z" fill="#E5EAE9"/>
<path d="M173.099 141.3L159.399 133.9C160.799 132.1 162.199 130.3 163.599 128.5L177.299 135.9C175.899 137.7 174.499 139.5 173.099 141.3Z" fill="#E5EAEA"/>
<path d="M177.3 135.9L163.6 128.5C164.9 126.8 166.3 125.2 167.6 123.7L181.3 131.1C180 132.7 178.6 134.3 177.3 135.9Z" fill="#E5EAEA"/>
<path d="M181.3 131.1L167.6 123.7C168.9 122.2 170.1 120.8 171.4 119.4L185.1 126.8C183.8 128.2 182.6 129.6 181.3 131.1Z" fill="#E6EAEA"/>
<path d="M185.099 126.8L171.399 119.4C172.599 118.1 173.799 116.7 174.999 115.5L188.699 122.9C187.499 124.1 186.299 125.4 185.099 126.8Z" fill="#E6EAEA"/>
<path d="M252.2 85.1002C291.4 79.6002 327.8 104.7 363.3 161.9C397.7 217.3 427.5 296.4 452.2 366.6L51 423C81 322.5 110.4 246.6 141.1 191.1C158.4 159.7 176.2 134.9 193.9 117.5C213 98.7002 232.6 87.8002 252.2 85.1002Z" fill="#F7F9F9"/>
<path d="M49.7996 424.2L36.0996 416.8C37.0996 413.3 38.1996 409.8 39.1996 406.4L52.8996 413.8C51.8996 417.2 50.7996 420.7 49.7996 424.2Z" fill="#E1E7E7"/>
<path d="M52.8992 413.7L39.1992 406.3C47.6992 378.3 56.0992 352.4 64.4992 328.2L78.1992 335.6C69.7992 359.8 61.3992 385.8 52.8992 413.7Z" fill="#E2E7E7"/>
<path d="M78.2 335.7L64.5 328.3C70.4 311.3 76.3 295.3 82.2 280.2L95.9 287.6C90 302.7 84.1 318.7 78.2 335.7Z" fill="#E2E7E7"/>
<path d="M95.8992 287.6L82.1992 280.2C86.6992 268.6 91.2992 257.5 95.8992 246.8L109.599 254.2C104.999 264.8 100.499 275.9 95.8992 287.6Z" fill="#E2E8E7"/>
<path d="M109.599 254.2L95.8994 246.8C99.5994 238.2 103.299 229.9 106.999 222L120.699 229.4C116.999 237.3 113.299 245.6 109.599 254.2Z" fill="#E3E8E8"/>
<path d="M120.8 229.4L107.1 222C110.2 215.3 113.4 208.8 116.6 202.6L130.3 210C127 216.2 123.9 222.6 120.8 229.4Z" fill="#E3E8E8"/>
<path d="M130.2 209.9L116.5 202.5C119.2 197.1 122 191.8 124.7 186.8L138.4 194.2C135.7 199.2 132.9 204.5 130.2 209.9Z" fill="#E3E8E8"/>
<path d="M138.399 194.2L124.699 186.8C125.299 185.6 125.999 184.4 126.599 183.3C128.299 180.2 130.099 177.1 131.799 174.1L145.499 181.5C143.799 184.5 141.999 187.6 140.299 190.7C139.699 191.8 139.099 193 138.399 194.2Z" fill="#E3E8E8"/>
<path d="M145.599 181.4L131.899 174C133.999 170.4 136.099 166.8 138.199 163.4L151.899 170.8C149.799 174.3 147.699 177.8 145.599 181.4Z" fill="#E4E9E8"/>
<path d="M151.899 170.8L138.199 163.4C140.099 160.3 141.999 157.2 143.999 154.3L157.699 161.7C155.699 164.7 153.799 167.7 151.899 170.8Z" fill="#E4E9E9"/>
<path d="M157.7 161.7L144 154.3C145.8 151.6 147.5 149 149.3 146.4L163 153.8C161.2 156.4 159.4 159 157.7 161.7Z" fill="#E4E9E9"/>
<path d="M163 153.8L149.3 146.4C150.9 144 152.6 141.7 154.2 139.5L167.9 146.9C166.2 149.1 164.6 151.4 163 153.8Z" fill="#E4E9E9"/>
<path d="M167.8 146.9L154.1 139.5C155.6 137.4 157.1 135.4 158.7 133.4L172.4 140.8C170.9 142.8 169.4 144.8 167.8 146.9Z" fill="#E5EAE9"/>
<path d="M172.399 140.8L158.699 133.4C160.099 131.5 161.499 129.7 162.999 128L176.699 135.4C175.199 137.1 173.799 138.9 172.399 140.8Z" fill="#E5EAEA"/>
<path d="M176.7 135.4L163 128C164.3 126.3 165.7 124.7 167 123.1L180.7 130.5C179.3 132.1 178 133.7 176.7 135.4Z" fill="#E5EAEA"/>
<path d="M180.7 130.5L167 123.1C168.3 121.6 169.5 120.2 170.8 118.7L184.5 126.1C183.2 127.6 181.9 129 180.7 130.5Z" fill="#E6EAEA"/>
<path d="M184.5 126.2L170.8 118.8C172 117.4 173.2 116.1 174.4 114.8L188.1 122.2C186.9 123.5 185.7 124.8 184.5 126.2Z" fill="#E6EAEA"/>
<path d="M188.099 122.2L174.399 114.8C175.599 113.6 176.699 112.4 177.899 111.2L191.599 118.6C190.399 119.8 189.199 121 188.099 122.2Z" fill="#E6EBEA"/>
<path d="M191.5 118.6L177.8 111.2C178.4 110.6 179 110 179.7 109.3C180.2 108.8 180.7 108.3 181.2 107.9L194.9 115.3C194.4 115.8 193.9 116.3 193.4 116.7C192.8 117.4 192.2 118 191.5 118.6Z" fill="#E6EBEB"/>
<path d="M194.899 115.3L181.199 107.9C182.299 106.9 183.399 105.8 184.499 104.9L198.199 112.3C197.099 113.3 195.999 114.3 194.899 115.3Z" fill="#E7EBEB"/>
<path d="M198.099 112.3L184.399 104.9C185.499 103.9 186.499 103 187.599 102.1L201.299 109.5C200.299 110.3 199.199 111.3 198.099 112.3Z" fill="#E7EBEB"/>
<path d="M201.399 109.4L187.699 102C188.799 101.1 189.799 100.2 190.899 99.2998L204.599 106.7C203.499 107.6 202.399 108.5 201.399 109.4Z" fill="#E7ECEB"/>
<path d="M204.5 106.8L190.8 99.3999C191.9 98.4999 192.9 97.6999 194 96.8999L207.7 104.3C206.6 105.1 205.6 105.9 204.5 106.8Z" fill="#E7ECEC"/>
<path d="M207.7 104.2L194 96.7999C195.1 95.9999 196.1 95.1999 197.2 94.3999L210.9 101.8C209.8 102.6 208.7 103.4 207.7 104.2Z" fill="#E8ECEC"/>
<path d="M210.899 101.9L197.199 94.4998C198.299 93.6998 199.299 92.9998 200.399 92.2998L214.099 99.6998C212.999 100.4 211.899 101.1 210.899 101.9Z" fill="#E8ECEC"/>
<path d="M214.099 99.6001L200.399 92.2001C201.499 91.5001 202.599 90.7001 203.699 90.1001L217.399 97.5001C216.299 98.2001 215.199 98.9001 214.099 99.6001Z" fill="#E8ECEC"/>
<path d="M217.3 97.5001L203.6 90.1001C204.7 89.4001 205.9 88.7001 207 88.1001L220.7 95.5001C219.6 96.1001 218.5 96.8001 217.3 97.5001Z" fill="#E9EDEC"/>
<path d="M220.7 95.5L207.1 88C208.3 87.3 209.5 86.7 210.6 86L224.3 93.4C223.1 94.1 221.9 94.8 220.7 95.5Z" fill="#E9EDED"/>
<path d="M224.3 93.5001L210.6 86.0001C211.9 85.3001 213.1 84.7001 214.4 84.1001L228.1 91.5001C226.8 92.2001 225.5 92.8001 224.3 93.5001Z" fill="#E9EDED"/>
<path d="M228 91.5998L214.3 84.1998C215.7 83.4998 217.1 82.8998 218.5 82.2998L232.2 89.6998C230.8 90.2998 229.4 90.8998 228 91.5998Z" fill="#E9EDED"/>
<path d="M232.2 89.6999L218.5 82.2999C220.1 81.5999 221.7 80.9999 223.3 80.3999L237 87.7999C235.4 88.3999 233.8 88.9999 232.2 89.6999Z" fill="#EAEEED"/>
<path d="M237.099 87.7999L223.399 80.3999C225.599 79.5999 227.699 78.9999 229.899 78.3999L243.599 85.7999C241.399 86.3999 239.199 87.0999 237.099 87.7999Z" fill="#EAEEEE"/>
<path d="M243.5 85.8998L229.8 78.4998C232.7 77.6998 235.6 77.1998 238.5 76.7998C243 76.1998 247.5 75.8998 252 76.0998L265.7 83.4998C261.2 83.2998 256.8 83.5998 252.2 84.1998C249.3 84.4998 246.4 85.0998 243.5 85.8998Z" fill="#EAEEEE"/>
<path d="M265.7 83.4L252 76C254.3 76.1 256.5 76.3 258.7 76.6L272.4 84C270.2 83.7 267.9 83.5 265.7 83.4Z" fill="#EAEEEE"/>
<path d="M272.399 84.0001L258.699 76.6001C260.399 76.8001 261.999 77.1001 263.699 77.4001L277.399 84.8001C275.799 84.5001 274.099 84.2001 272.399 84.0001Z" fill="#EAEEED"/>
<path d="M277.399 84.7999L263.699 77.3999C265.099 77.6999 266.599 77.9999 267.999 78.3999L281.699 85.7999C280.299 85.4999 278.899 85.0999 277.399 84.7999Z" fill="#E9EDED"/>
<path d="M281.7 85.9L268 78.5C269.3 78.8 270.5 79.2 271.8 79.6L285.5 87C284.2 86.6 283 86.2 281.7 85.9Z" fill="#E9EDED"/>
<path d="M285.5 87.0001L271.8 79.6001C273 80.0001 274.2 80.4001 275.4 80.8001L289.1 88.2001C287.9 87.8001 286.7 87.3001 285.5 87.0001Z" fill="#E9EDED"/>
<path d="M289.099 88.1998L275.399 80.7998C276.499 81.1998 277.699 81.6998 278.799 82.1998L292.499 89.5998C291.399 89.0998 290.199 88.5998 289.099 88.1998Z" fill="#E9EDEC"/>
<path d="M292.5 89.6002L278.8 82.2002C279.9 82.7002 281 83.2002 282.1 83.7002L295.8 91.1002C294.7 90.5002 293.6 90.0002 292.5 89.6002Z" fill="#E8ECEC"/>
<path d="M295.8 91.1002L282.1 83.7002C283.2 84.2002 284.3 84.8002 285.4 85.3002L299.1 92.7002C298 92.1002 296.9 91.6002 295.8 91.1002Z" fill="#E8ECEC"/>
<path d="M299.099 92.6998L285.399 85.2998C285.799 85.4998 286.199 85.6998 286.599 85.8998L300.299 93.2998C299.899 93.0998 299.499 92.8998 299.099 92.6998Z" fill="#E8ECEC"/>
<path d="M453.2 366.8L49.7998 424.2C80.0998 322.6 109.6 246.5 140.4 190.7C157.8 159.2 175.6 134.3 193.4 116.8C212.6 97.9001 232.4 87.0001 252.2 84.2001C291.7 78.6001 328.3 103.9 364.1 161.4C398.7 216.9 428.6 296.4 453.2 366.8ZM50.9998 423L452.2 366.6C427.6 296.4 397.8 217.2 363.3 161.9C327.7 104.7 291.4 79.6001 252.2 85.1001C232.6 87.9001 213 98.7001 194 117.4C176.2 134.9 158.5 159.6 141.2 191C110.5 246.7 80.9998 322.5 50.9998 423Z" fill="#F7F9F9"/>
<path d="M467.3 382.4C308.8 406.7 180.6 422.3 22.0996 446.5V84.5" stroke="#143343" stroke-miterlimit="10"/>
<path d="M255.8 83.3002L242.7 77.1002V44.7002L255.8 50.9002V83.3002Z" fill="#143343"/>
<path d="M259.7 394.2L255.8 394.7V51.2998L260.1 50.7998L259.7 394.2Z" fill="#1B4454"/>
<path d="M255.8 51.2998L242.7 44.6998L247 44.2998L260.1 50.7998L255.8 51.2998Z" fill="#1B4454"/>
<path d="M296.1 321.1L297.9 320.9V330C297.9 333 295.8 335.3 292.4 335.7C289.2 336.1 286.9 334.6 286.9 331.5V322.4L288.7 322.1V331.1C288.7 333.2 290.1 334.4 292.4 334.1C294.7 333.8 296.1 332.3 296.1 330.1V321.1Z" fill="#143343"/>
<path d="M300.801 324.6L302.501 324.4V325.8C303.101 324.7 304.201 323.9 305.601 323.7C307.701 323.4 309.001 324.6 309.001 326.6V333.1L307.301 333.3V327.2C307.301 325.9 306.601 325.1 305.101 325.3C303.501 325.5 302.501 326.8 302.501 328.3V334.1L300.801 334.3V324.6Z" fill="#143343"/>
<path d="M311.301 328C311.301 325.2 313.001 322.7 315.701 322.3C317.001 322.1 318.101 322.5 318.901 323.5V317.9L320.601 317.7V331.5L318.901 331.7V330.1C318.101 331.4 316.901 332.1 315.601 332.3C312.901 332.7 311.301 330.7 311.301 328ZM318.901 326.9C318.901 324.8 317.801 323.5 315.901 323.8C313.901 324.1 313.001 325.9 313.001 327.8C313.001 329.6 313.901 331.2 315.901 330.9C317.801 330.6 318.901 328.9 318.901 326.9Z" fill="#143343"/>
<path d="M331.2 328.6C330.3 329.7 329.1 330.5 327.5 330.7C324.5 331.1 322.7 329.4 322.7 326.3C322.7 323.4 324.4 321 327.2 320.6C330 320.2 331.5 322.1 331.5 324.7C331.5 325 331.5 325.4 331.4 325.7L324.4 326.7C324.6 328.5 325.6 329.4 327.4 329.2C328.5 329.1 329.3 328.5 329.8 327.7L331.2 328.6ZM329.9 324.6C329.8 323 329 321.9 327.3 322.1C325.6 322.3 324.7 323.7 324.5 325.3L329.9 324.6Z" fill="#143343"/>
<path d="M333.7 320L335.4 319.8V321.3C336 320 336.9 319.4 337.9 319.3C338.2 319.3 338.5 319.3 338.7 319.3V321C338.5 321 338.2 320.9 337.8 321C336.2 321.2 335.4 322.5 335.4 323.7V329.6L333.7 329.8V320Z" fill="#143343"/>
<path d="M339.5 327.6L340.5 326.3C341.3 327 342.4 327.2 343.6 327.1C345.1 326.9 345.9 326.2 345.9 325.4C345.9 324.5 344.9 324.4 343.3 324.3C341.5 324.2 339.9 323.8 339.9 322C339.9 320.3 341.2 318.9 343.7 318.5C345.2 318.3 346.5 318.6 347.5 319.4L346.5 320.7C345.7 320.1 344.8 319.8 343.7 320C342.4 320.2 341.7 320.9 341.7 321.6C341.7 322.5 342.6 322.6 344.2 322.7C346 322.8 347.7 323.1 347.7 325C347.7 326.8 346.3 328.2 343.6 328.6C341.9 328.7 340.5 328.4 339.5 327.6Z" fill="#143343"/>
<path d="M348.4 317.9L350.3 317.6V314.5L352 314.3V317.4L354.3 317.1V318.5L352 318.8V324.1C352 325.3 352.3 325.7 353.6 325.6C353.9 325.6 354.2 325.5 354.4 325.4V326.8C354 326.9 353.6 327.1 353 327.2C351.2 327.5 350.3 326.6 350.3 324.9V319L348.4 319.3V317.9Z" fill="#143343"/>
<path d="M355.5 321.7C355.5 318.9 357.2 316.4 360.3 316C363.3 315.6 365 317.6 365 320.4C365 323.2 363.3 325.7 360.3 326.1C357.3 326.5 355.5 324.5 355.5 321.7ZM357.3 321.5C357.3 323.4 358.3 324.9 360.3 324.6C362.3 324.3 363.3 322.5 363.3 320.6C363.3 318.7 362.3 317.2 360.3 317.4C358.3 317.8 357.3 319.6 357.3 321.5Z" fill="#143343"/>
<path d="M366.601 320.2C366.601 317.3 368.301 314.9 371.301 314.5C373.101 314.2 374.401 314.9 375.201 316.2L373.801 317.2C373.301 316.3 372.501 315.8 371.301 315.9C369.401 316.2 368.401 317.9 368.401 319.9C368.401 321.8 369.401 323.3 371.401 323C372.701 322.8 373.501 322.1 373.901 321.1L375.301 321.7C374.601 323.1 373.201 324.2 371.401 324.5C368.301 325 366.601 323.1 366.601 320.2Z" fill="#143343"/>
<path d="M380 318.8L378.6 319V323.3L376.9 323.5V309.7L378.6 309.5V317.6L380.1 317.4L382.8 313.1L384.8 312.8L381.5 317.9L385 322.4L382.9 322.7L380 318.8Z" fill="#143343"/>
<path d="M394.101 319.8C393.201 320.9 392.001 321.7 390.401 321.9C387.401 322.3 385.601 320.6 385.601 317.5C385.601 314.6 387.301 312.2 390.101 311.8C392.901 311.4 394.401 313.3 394.401 315.9C394.401 316.2 394.401 316.6 394.301 316.9L387.301 317.9C387.501 319.7 388.501 320.6 390.301 320.4C391.401 320.3 392.201 319.7 392.701 318.9L394.101 319.8ZM392.801 315.8C392.701 314.2 391.901 313.1 390.201 313.3C388.501 313.5 387.601 314.9 387.401 316.5L392.801 315.8Z" fill="#143343"/>
<path d="M396 316.1C396 313.3 397.7 310.8 400.4 310.4C401.7 310.2 402.8 310.6 403.6 311.6V306L405.3 305.8V319.6L403.6 319.8V318.2C402.8 319.5 401.6 320.2 400.3 320.4C397.6 320.9 396 318.8 396 316.1ZM403.7 315C403.7 312.9 402.6 311.6 400.7 311.9C398.7 312.2 397.8 314 397.8 315.9C397.8 317.7 398.7 319.3 400.7 319C402.6 318.7 403.7 317 403.7 315Z" fill="#143343"/>
<path d="M120.4 347.2C124.5 346.6 126.9 349.4 126.9 353.4C126.9 357.3 124.7 360.8 120.5 361.4C116.4 362 114 359.2 114 355.2C114 351.4 116.2 347.8 120.4 347.2ZM120.4 359.9C123.5 359.5 125 356.7 125 353.7C125 350.8 123.6 348.4 120.4 348.8C117.3 349.2 115.8 352 115.8 355C115.8 357.9 117.3 360.3 120.4 359.9Z" fill="#143343"/>
<path d="M137.5 349.2L133.7 359.4L131.9 359.7L128.1 350.6L130 350.3L132.8 357.6L135.7 349.5L137.5 349.2Z" fill="#143343"/>
<path d="M146.8 356.2C145.9 357.3 144.7 358.1 143.1 358.3C140.1 358.7 138.3 357 138.3 353.9C138.3 351 140 348.6 142.8 348.2C145.6 347.8 147.1 349.7 147.1 352.3C147.1 352.6 147.1 353 147 353.3L140 354.3C140.2 356.1 141.2 357 143 356.8C144.1 356.7 144.9 356.1 145.4 355.3L146.8 356.2ZM145.5 352.2C145.4 350.6 144.6 349.5 142.9 349.7C141.2 349.9 140.3 351.3 140.1 352.9L145.5 352.2Z" fill="#143343"/>
<path d="M149.3 347.5L151 347.3V348.8C151.6 347.5 152.5 346.9 153.5 346.8C153.8 346.8 154.1 346.8 154.3 346.8V348.5C154.1 348.5 153.8 348.4 153.4 348.5C151.8 348.7 151 350 151 351.2V357.1L149.3 357.3V347.5Z" fill="#143343"/>
<path d="M155.1 355.1L156.1 353.8C156.9 354.5 158 354.7 159.2 354.6C160.7 354.4 161.5 353.7 161.5 352.9C161.5 352 160.5 351.9 158.9 351.8C157.1 351.7 155.5 351.3 155.5 349.5C155.5 347.8 156.8 346.4 159.3 346C160.8 345.8 162.1 346.1 163.1 346.9L162.1 348.2C161.3 347.6 160.4 347.3 159.3 347.5C158 347.7 157.3 348.4 157.3 349.1C157.3 350 158.2 350.1 159.8 350.2C161.6 350.3 163.3 350.6 163.3 352.5C163.3 354.3 161.9 355.7 159.2 356.1C157.4 356.3 156.1 355.9 155.1 355.1Z" fill="#143343"/>
<path d="M164 345.5L165.9 345.2V342.1L167.6 341.9V345L169.9 344.7V346.1L167.6 346.4V351.7C167.6 352.9 167.9 353.3 169.2 353.2C169.5 353.2 169.8 353.1 170 353V354.4C169.6 354.5 169.2 354.7 168.6 354.8C166.8 355.1 165.9 354.2 165.9 352.5V346.8L164 347.1V345.5Z" fill="#143343"/>
<path d="M171.1 349.3C171.1 346.5 172.8 344 175.9 343.6C178.9 343.2 180.6 345.2 180.6 348C180.6 350.8 178.9 353.3 175.9 353.7C172.8 354.1 171.1 352.1 171.1 349.3ZM172.8 349.1C172.8 351 173.8 352.5 175.8 352.2C177.8 351.9 178.8 350.1 178.8 348.2C178.8 346.3 177.8 344.8 175.8 345C173.8 345.4 172.8 347.2 172.8 349.1Z" fill="#143343"/>
<path d="M182.2 347.8C182.2 344.9 183.9 342.5 186.9 342.1C188.7 341.8 190 342.5 190.8 343.8L189.4 344.8C188.9 343.9 188.1 343.4 186.9 343.5C185 343.8 184 345.5 184 347.5C184 349.4 185 350.9 187 350.6C188.3 350.4 189.1 349.7 189.5 348.7L190.9 349.3C190.2 350.7 188.8 351.8 187 352.1C183.9 352.6 182.2 350.6 182.2 347.8Z" fill="#143343"/>
<path d="M195.6 346.4L194.2 346.6V350.9L192.5 351.1V337.3L194.2 337.1V345.2L195.7 345L198.4 340.7L200.4 340.4L197.1 345.5L200.6 350L198.5 350.3L195.6 346.4Z" fill="#143343"/>
<path d="M209.7 347.4C208.8 348.5 207.6 349.3 206 349.5C203 349.9 201.2 348.2 201.2 345.1C201.2 342.2 202.9 339.8 205.7 339.4C208.5 339 210 340.9 210 343.5C210 343.8 210 344.2 209.9 344.5L202.9 345.5C203.1 347.3 204.1 348.2 205.9 348C207 347.9 207.8 347.3 208.3 346.5L209.7 347.4ZM208.4 343.3C208.3 341.7 207.5 340.6 205.8 340.8C204.1 341 203.2 342.4 203 344L208.4 343.3Z" fill="#143343"/>
<path d="M211.6 343.7C211.6 340.9 213.3 338.4 216 338C217.3 337.8 218.4 338.2 219.2 339.2V333.6L220.9 333.4V347.2L219.2 347.4V345.8C218.4 347.1 217.2 347.8 215.9 348C213.2 348.4 211.6 346.4 211.6 343.7ZM219.3 342.6C219.3 340.5 218.2 339.2 216.3 339.5C214.3 339.8 213.4 341.6 213.4 343.5C213.4 345.3 214.3 346.9 216.3 346.6C218.1 346.3 219.3 344.6 219.3 342.6Z" fill="#143343"/>
<path d="M185 29.6001V11.9001L187.3 11.6001V29.3001L185 29.6001Z" fill="#143343"/>
<path d="M190.4 22.7998C190.4 19.1998 192.5 15.9998 196 15.5998C197.6 15.3998 199.1 15.8998 200 17.1998V10.0998L202.2 9.7998V27.4998L200.1 27.7998V25.7998C199.1 27.3998 197.6 28.3998 195.9 28.5998C192.4 28.8998 190.4 26.2998 190.4 22.7998ZM200.1 21.4998C200.1 18.7998 198.7 17.1998 196.3 17.4998C193.7 17.7998 192.6 20.0998 192.6 22.4998C192.6 24.7998 193.8 26.7998 196.3 26.4998C198.7 26.1998 200.1 24.0998 200.1 21.4998Z" fill="#143343"/>
<path d="M215.8 23.9999C214.7 25.3999 213.1 26.2999 211.1 26.5999C207.2 27.0999 205 24.7999 205 20.8999C205 17.1999 207.2 14.1999 210.8 13.7999C214.3 13.3999 216.3 15.7999 216.3 19.1999C216.3 19.5999 216.3 20.0999 216.2 20.4999L207.3 21.5999C207.5 23.8999 208.9 25.0999 211.2 24.7999C212.6 24.5999 213.6 23.9999 214.3 22.8999L215.8 23.9999ZM214.1 18.8999C214 16.8999 212.9 15.3999 210.8 15.6999C208.6 15.9999 207.5 17.6999 207.3 19.7999L214.1 18.8999Z" fill="#143343"/>
<path d="M226.1 24.4999V22.6999C225.4 23.9999 224.1 24.9999 222.4 25.1999C220 25.4999 218.4 24.0999 218.4 21.9999C218.4 20.3999 219.2 19.1999 220.8 18.4999C222.2 17.8999 224.2 17.5999 226.2 17.1999V16.0999C226.2 14.7999 225.3 13.7999 223.5 13.9999C221.9 14.1999 221 14.9999 220.6 16.1999L218.8 15.4999C219.5 13.5999 221.3 12.3999 223.5 12.0999C226.4 11.6999 228.3 12.9999 228.3 15.6999V24.0999L226.1 24.4999ZM226.1 19.5999V18.8999C225.3 18.9999 224 19.2999 222.9 19.4999C221.5 19.8999 220.5 20.3999 220.5 21.5999C220.5 22.6999 221.4 23.3999 222.8 23.1999C224.8 23.0999 226.1 21.3999 226.1 19.5999Z" fill="#143343"/>
<path d="M231.9 23.7999V6.1999L234.1 5.8999V23.5999L231.9 23.7999Z" fill="#143343"/>
<path d="M251 3.60001C256.3 3.00001 259.3 6.60001 259.3 11.6C259.3 16.6 256.4 21.1 251.1 21.7C245.8 22.3 242.8 18.7 242.8 13.7C242.8 8.70001 245.6 4.20001 251 3.60001ZM251 19.7C255 19.2 256.9 15.7 256.9 11.9C256.9 8.20001 255.1 5.10001 251 5.60001C247 6.10001 245.1 9.60001 245.1 13.4C245.1 17 247 20.2 251 19.7Z" fill="#143343"/>
<path d="M262.3 7.69982L264.4 7.39982V9.29982C265.2 7.69982 266.4 6.89982 267.6 6.79982C268 6.69982 268.4 6.79982 268.6 6.79982V8.99982C268.4 8.99982 268 8.89982 267.4 8.99982C265.4 9.29982 264.3 10.7998 264.3 12.2998V19.7998L262.1 20.0998V7.69982H262.3Z" fill="#143343"/>
<path d="M270.1 13C270.1 9.4 272.2 6.2 275.7 5.8C277.3 5.6 278.8 6.1 279.7 7.4V0.3L282 0V17.7L279.9 18V16C278.9 17.6 277.4 18.6 275.7 18.8C272.1 19.1 270.1 16.5 270.1 13ZM279.9 11.7C279.9 9 278.5 7.4 276.1 7.7C273.5 8 272.4 10.3 272.4 12.7C272.4 15 273.6 17 276.1 16.7C278.4 16.4 279.9 14.4 279.9 11.7Z" fill="#143343"/>
<path d="M295.6 14.2001C294.5 15.6001 292.9 16.5001 290.9 16.8001C287 17.3001 284.8 15.0001 284.8 11.1001C284.8 7.40008 287 4.40008 290.6 4.00008C294.1 3.60008 296.1 6.00008 296.1 9.40008C296.1 9.80008 296.1 10.3001 296 10.7001L287.1 11.8001C287.3 14.1001 288.7 15.3001 291 15.0001C292.4 14.8001 293.4 14.2001 294.1 13.1001L295.6 14.2001ZM293.9 9.10008C293.8 7.10008 292.7 5.60008 290.6 5.90008C288.4 6.20008 287.3 7.90008 287.1 10.0001L293.9 9.10008Z" fill="#143343"/>
<path d="M298.8 3.29991L300.9 2.99991V4.89991C301.7 3.29991 302.9 2.49991 304.1 2.39991C304.5 2.29991 304.9 2.39991 305.1 2.39991V4.49991C304.9 4.49991 304.5 4.39991 303.9 4.49991C301.9 4.79991 300.8 6.29991 300.8 7.79991V15.2999L298.6 15.5999V3.29991H298.8Z" fill="#143343"/>
<path d="M412.2 338.6L289.1 356" stroke="#143343" stroke-miterlimit="10"/>
<path d="M98.2998 383L221.3 365.6" stroke="#143343" stroke-miterlimit="10"/>
<path d="M402.7 332.2L412 338.7L404.7 348" stroke="#143343" stroke-miterlimit="10"/>
<path d="M107.1 389.2L97.7998 382.8L105.1 373.5" stroke="#143343" stroke-miterlimit="10"/>
<path d="M0.200195 282.8C0.200195 280 1.8002 277.6 4.6002 277.3C7.4002 277 9.1002 278.9 9.1002 281.8V285.4L14.0002 284.8V286.6L0.200195 288.3V282.8ZM7.6002 281.8C7.6002 280.1 6.6002 278.9 4.7002 279.1C2.8002 279.3 1.8002 280.8 1.8002 282.5V286.2L7.6002 285.5V281.8Z" fill="black"/>
<path d="M4.4002 275.5V273.8L5.9002 273.6C4.7002 273.1 4.2002 272.3 4.2002 271.3C4.2002 271 4.3002 270.7 4.3002 270.5L6.0002 270.3C5.9002 270.5 5.9002 270.8 5.9002 271.2C5.9002 272.8 7.0002 273.5 8.2002 273.3L14.1002 272.6V274.3L4.4002 275.5Z" fill="black"/>
<path d="M9.2002 268.8C6.4002 269.1 4.2002 267.7 4.2002 264.7C4.2002 261.7 6.5002 259.7 9.2002 259.3C12.0002 259 14.2002 260.4 14.2002 263.4C14.2002 266.5 12.0002 268.5 9.2002 268.8ZM9.2002 267.1C11.1002 266.9 12.8002 265.7 12.8002 263.7C12.8002 261.7 11.1002 260.9 9.2002 261.1C7.3002 261.3 5.6002 262.6 5.6002 264.6C5.6002 266.5 7.3002 267.3 9.2002 267.1Z" fill="black"/>
<path d="M5.8 256.8V258.7L4.4 258.9V257L2.7 257.2C1 257.4 0 256.6 0 254.8C0 254.4 0.1 254 0.1 253.7L1.5 253.5C1.5 253.7 1.4 254 1.4 254.2C1.4 255.2 1.9 255.5 2.8 255.4L4.3 255.2V249.6L14 248.4V250.1L5.8 251.1V255L14 254V255.7L5.8 256.8ZM0.2 252V250.1L2.1 249.9V251.8L0.2 252Z" fill="black"/>
<path d="M4.3998 248.1V246.2L1.2998 246.6V244.9L4.3998 244.5V242.2L5.7998 242V244.3L11.0998 243.6C12.2998 243.5 12.7998 243.1 12.7998 241.8C12.7998 241.5 12.7998 241.2 12.6998 241.1L14.0998 240.9C14.1998 241.3 14.2998 241.7 14.2998 242.2C14.2998 244 13.2998 245 11.5998 245.2L5.7998 246V247.9L4.3998 248.1Z" fill="black"/>
<path d="M208.6 429.7L210.4 429.5V438.6C210.4 441.6 208.3 443.8 204.9 444.2C201.7 444.6 199.4 443 199.4 439.9V430.8L201.2 430.6V439.6C201.2 441.7 202.6 442.9 204.9 442.6C207.2 442.3 208.6 440.8 208.6 438.7V429.7Z" fill="black"/>
<path d="M213.301 433.3L215.001 433.1V434.5C215.601 433.5 216.701 432.7 218.101 432.5C220.201 432.2 221.501 433.4 221.501 435.5V442L219.801 442.2V436C219.801 434.7 219.101 433.8 217.601 434C216.001 434.2 215.001 435.4 215.001 437V442.8L213.301 443V433.3Z" fill="black"/>
<path d="M224.301 427.8L226.201 427.6V429.5L224.301 429.7V427.8ZM224.401 441.6V431.9L226.101 431.7V441.4L224.401 441.6Z" fill="black"/>
<path d="M227.7 431.5L229.6 431.3V428.2L231.3 428V431.1L233.6 430.8V432.2L231.3 432.5V437.8C231.3 439 231.6 439.4 232.9 439.3C233.2 439.3 233.5 439.2 233.7 439.1V440.5C233.3 440.6 232.9 440.8 232.3 440.8C230.5 441 229.6 440.1 229.6 438.4V432.7L227.7 432.9V431.5Z" fill="black"/>
<path d="M234.601 439.1L235.601 437.8C236.401 438.5 237.501 438.8 238.701 438.6C240.201 438.4 241.001 437.8 241.001 436.9C241.001 436 240.001 435.9 238.401 435.7C236.601 435.5 235.001 435.2 235.001 433.3C235.001 431.6 236.301 430.2 238.801 429.9C240.301 429.7 241.601 430 242.601 430.8L241.601 432.1C240.801 431.4 239.901 431.2 238.801 431.3C237.501 431.5 236.801 432.1 236.801 432.9C236.801 433.8 237.701 433.9 239.301 434C241.101 434.2 242.801 434.5 242.801 436.4C242.801 438.2 241.401 439.6 238.701 439.9C237.001 440.2 235.701 439.9 234.601 439.1Z" fill="black"/>
<path d="M248.301 436.7L249.701 435.4C250.601 436.4 252.001 436.9 253.501 436.7C255.801 436.4 256.701 435.4 256.701 434C256.701 432.5 255.401 432.3 253.301 432C251.001 431.7 248.801 431.3 248.801 428.6C248.801 426.2 250.701 424.4 253.701 424C255.601 423.8 257.301 424.3 258.501 425.6L257.101 426.9C256.401 426 255.301 425.4 253.701 425.6C251.701 425.8 250.701 426.9 250.701 428.2C250.701 429.7 252.001 429.9 254.101 430.2C256.501 430.6 258.701 431 258.701 433.6C258.701 436 256.801 437.9 253.601 438.3C251.401 438.5 249.601 438 248.301 436.7Z" fill="black"/>
<path d="M259.5 427.6L261.4 427.4V424.3L263.1 424.1V427.2L265.4 426.9V428.3L263.1 428.6V433.9C263.1 435.1 263.4 435.5 264.7 435.4C265 435.4 265.3 435.3 265.5 435.2V436.6C265.1 436.7 264.7 436.9 264.1 436.9C262.3 437.1 261.4 436.2 261.4 434.5V428.8L259.5 429V427.6Z" fill="black"/>
<path d="M266.601 431.6C266.601 428.8 268.301 426.3 271.401 426C274.401 425.6 276.101 427.7 276.101 430.5C276.101 433.3 274.401 435.7 271.401 436.1C268.301 436.4 266.601 434.4 266.601 431.6ZM268.301 431.4C268.301 433.3 269.301 434.8 271.301 434.6C273.301 434.4 274.301 432.6 274.301 430.7C274.301 428.8 273.301 427.2 271.301 427.5C269.301 427.7 268.301 429.4 268.301 431.4Z" fill="black"/>
<path d="M277.7 430.3C277.7 427.4 279.4 425 282.4 424.6C284.2 424.4 285.5 425.1 286.3 426.4L284.9 427.4C284.4 426.5 283.6 425.9 282.4 426.1C280.5 426.3 279.5 428 279.5 430C279.5 431.9 280.5 433.4 282.5 433.2C283.8 433 284.6 432.3 285 431.3L286.4 431.9C285.7 433.3 284.3 434.4 282.5 434.6C279.4 435 277.7 433.1 277.7 430.3Z" fill="black"/>
<path d="M291.1 429.1L289.7 429.3V433.6L288 433.8V420L289.7 419.8V427.9L291.2 427.7L293.9 423.4L295.9 423.2L292.6 428.3L296.1 432.9L294 433.2L291.1 429.1Z" fill="black"/>
<path d="M305.2 430.3C304.3 431.4 303.1 432.1 301.5 432.3C298.5 432.7 296.7 430.9 296.7 427.8C296.7 424.9 298.4 422.6 301.2 422.2C304 421.9 305.5 423.7 305.5 426.4C305.5 426.7 305.5 427.1 305.4 427.4L298.4 428.3C298.6 430.1 299.6 431 301.4 430.8C302.5 430.7 303.3 430.2 303.8 429.3L305.2 430.3ZM303.9 426.3C303.8 424.7 303 423.6 301.3 423.8C299.6 424 298.7 425.3 298.5 427L303.9 426.3Z" fill="black"/>
<path d="M307.101 426.7C307.101 423.9 308.801 421.4 311.501 421C312.801 420.8 313.901 421.3 314.701 422.2V416.6L316.401 416.4V430.2L314.701 430.4V428.8C313.901 430.1 312.701 430.8 311.401 431C308.701 431.4 307.101 429.4 307.101 426.7ZM314.801 425.7C314.801 423.6 313.701 422.3 311.801 422.5C309.801 422.7 308.901 424.6 308.901 426.4C308.901 428.2 309.801 429.8 311.801 429.6C313.601 429.3 314.801 427.7 314.801 425.7Z" fill="black"/>
</svg>
